font.ufo
<glyph name="quotedbl" format="1">
  <advance width="303"/>
  <unicode hex="0022"/>
  <outline>
    <contour>
      <point x="125" y="673" type="line"/>
      <point x="133" y="664"/>
      <point x="147" y="660"/>
      <point x="164" y="662" type="curve"/>
      <point x="216" y="816" type="line"/>
      <point x="228" y="892" type="line"/>
      <point x="215" y="904"/>
      <point x="190" y="905"/>
      <point x="170" y="892" type="curve"/>
    </contour>
    <contour>
      <point x="255" y="673" type="line"/>
      <point x="262" y="664"/>
      <point x="276" y="660"/>
      <point x="294" y="662" type="curve"/>
      <point x="346" y="816" type="line"/>
      <point x="357" y="892" type="line"/>
      <point x="345" y="904"/>
      <point x="320" y="905"/>
      <point x="299" y="892" type="curve"/>
    </contour>
  </outline>
</glyph>
<glyph name="parenleft" format="1">
  <advance width="498"/>
  <unicode hex="0028"/>
  <outline>
    <contour>
      <point x="400" y="714" type="curve"/>
      <point x="537" y="818" type="line"/>
      <point x="528" y="838"/>
      <point x="514" y="848"/>
      <point x="492" y="848" type="curve"/>
      <point x="323" y="744"/>
      <point x="200" y="555"/>
      <point x="184" y="343" type="curve" smooth="yes"/>
      <point x="171" y="167"/>
      <point x="229" y="48"/>
      <point x="310" y="-50" type="curve"/>
      <point x="329" y="-53"/>
      <point x="348" y="-46"/>
      <point x="365" y="-28" type="curve"/>
      <point x="280" y="85"/>
      <point x="253" y="161"/>
      <point x="267" y="343" type="curve" smooth="yes"/>
      <point x="275" y="457"/>
      <point x="328" y="620"/>
    </contour>
  </outline>
</glyph>
<glyph name="parenright" format="1">
  <advance width="498"/>
  <unicode hex="0029"/>
  <outline>
    <contour>
      <point x="51" y="-51" type="curve"/>
      <point x="220" y="53"/>
      <point x="343" y="243"/>
      <point x="360" y="454" type="curve" smooth="yes"/>
      <point x="373" y="630"/>
      <point x="314" y="751"/>
      <point x="233" y="848" type="curve"/>
      <point x="214" y="850"/>
      <point x="195" y="843"/>
      <point x="178" y="825" type="curve"/>
      <point x="264" y="712"/>
      <point x="291" y="636"/>
      <point x="276" y="454" type="curve" smooth="yes"/>
      <point x="268" y="341"/>
      <point x="215" y="178"/>
      <point x="144" y="83" type="curve"/>
      <point x="6" y="-21" type="line"/>
      <point x="15" y="-41"/>
      <point x="29" y="-51"/>
    </contour>
  </outline>
</glyph>
<glyph name="asterisk" format="1">
  <advance width="353"/>
  <unicode hex="002A"/>
  <outline>
    <contour>
      <point x="274" y="769" type="line"/>
      <point x="402" y="754" type="line"/>
      <point x="410" y="769"/>
      <point x="413" y="785"/>
      <point x="408" y="802" type="curve"/>
      <point x="276" y="787" type="line"/>
      <point x="308" y="916" type="line"/>
      <point x="292" y="921"/>
      <point x="275" y="921"/>
      <point x="259" y="916" type="curve"/>
      <point x="258" y="787" type="line"/>
      <point x="131" y="802" type="line"/>
      <point x="122" y="786"/>
      <point x="120" y="770"/>
      <point x="124" y="754" type="curve"/>
      <point x="256" y="769" type="line"/>
      <point x="225" y="640" type="line"/>
      <point x="241" y="634"/>
      <point x="257" y="634"/>
      <point x="273" y="640" type="curve"/>
    </contour>
    <contour>
      <point x="280" y="779" type="line"/>
      <point x="391" y="859" type="line"/>
      <point x="386" y="875"/>
      <point x="376" y="887"/>
      <point x="361" y="893" type="curve"/>
      <point x="268" y="792" type="line"/>
      <point x="199" y="894" type="line"/>
      <point x="181" y="887"/>
      <point x="170" y="876"/>
      <point x="160" y="860" type="curve"/>
      <point x="253" y="779" type="line"/>
      <point x="141" y="698" type="line"/>
      <point x="148" y="681"/>
      <point x="158" y="670"/>
      <point x="172" y="663" type="curve"/>
      <point x="265" y="765" type="line"/>
      <point x="334" y="662" type="line"/>
      <point x="352" y="669"/>
      <point x="364" y="679"/>
      <point x="373" y="697" type="curve"/>
    </contour>
  </outline>
</glyph>
<glyph name="plus" format="1">
  <advance width="670"/>
  <unicode hex="002B"/>
  <outline>
    <contour>
      <point x="382" y="354" type="line"/>
      <point x="420" y="546" type="line"/>
      <point x="397" y="579"/>
      <point x="368" y="589"/>
      <point x="355" y="576" type="curve"/>
      <point x="323" y="352" type="line"/>
      <point x="103" y="356" type="line"/>
      <point x="82" y="330"/>
      <point x="78" y="305"/>
      <point x="92" y="291" type="curve"/>
      <point x="311" y="294" type="line"/>
      <point x="264" y="89" type="line"/>
      <point x="284" y="64"/>
      <point x="309" y="54"/>
      <point x="325" y="65" type="curve"/>
      <point x="370" y="295" type="line"/>
      <point x="583" y="298" type="line"/>
      <point x="609" y="327"/>
      <point x="613" y="357"/>
      <point x="598" y="367" type="curve"/>
    </contour>
  </outline>
</glyph>
<glyph name="zero" format="1">
  <advance width="545"/>
  <unicode hex="0030"/>
  <outline>
    <contour>
      <point x="339" y="728" type="curve" smooth="yes"/>
      <point x="220" y="730"/>
      <point x="109" y="570"/>
      <point x="71" y="353" type="curve" smooth="yes"/>
      <point x="27" y="90"/>
      <point x="151" y="-4"/>
      <point x="239" y="-4" type="curve" smooth="yes"/>
      <point x="359" y="-4"/>
      <point x="467" y="130"/>
      <point x="509" y="367" type="curve" smooth="yes"/>
      <point x="550" y="612"/>
      <point x="441" y="726"/>
    </contour>
    <contour>
      <point x="327" y="684" type="curve"/>
      <point x="368" y="672"/>
      <point x="411" y="646"/>
      <point x="430" y="606" type="curve"/>
      <point x="443" y="539"/>
      <point x="443" y="471"/>
      <point x="424" y="356" type="curve" smooth="yes"/>
      <point x="401" y="211"/>
      <point x="341" y="92"/>
      <point x="252" y="36" type="curve"/>
      <point x="211" y="48"/>
      <point x="167" y="75"/>
      <point x="149" y="114" type="curve"/>
      <point x="136" y="181"/>
      <point x="136" y="248"/>
      <point x="154" y="363" type="curve" smooth="yes"/>
      <point x="178" y="509"/>
      <point x="238" y="627"/>
    </contour>
  </outline>
</glyph>
<glyph name="three" format="1">
  <advance width="512"/>
  <unicode hex="0033"/>
  <outline>
    <contour>
      <point x="390" y="436" type="line"/>
      <point x="458" y="471"/>
      <point x="486" y="495"/>
      <point x="487" y="537" type="curve" smooth="yes"/>
      <point x="489" y="648"/>
      <point x="377" y="744"/>
      <point x="284" y="744" type="curve" smooth="yes"/>
      <point x="191" y="744"/>
      <point x="111" y="679"/>
      <point x="67" y="588" type="curve"/>
      <point x="89" y="555"/>
      <point x="118" y="525"/>
      <point x="144" y="504" type="curve"/>
      <point x="161" y="507"/>
      <point x="175" y="511"/>
      <point x="185" y="528" type="curve"/>
      <point x="145" y="607" type="line"/>
      <point x="173" y="640"/>
      <point x="218" y="672"/>
      <point x="273" y="672" type="curve" smooth="yes"/>
      <point x="327" y="672"/>
      <point x="407" y="609"/>
      <point x="414" y="523" type="curve"/>
      <point x="214" y="390" type="line"/>
      <point x="201" y="347" type="line"/>
      <point x="337" y="299"/>
      <point x="406" y="247"/>
      <point x="419" y="189" type="curve"/>
      <point x="329" y="116"/>
      <point x="225" y="82"/>
      <point x="22" y="46" type="curve"/>
      <point x="16" y="29"/>
      <point x="23" y="13"/>
      <point x="43" y="-2" type="curve"/>
      <point x="280" y="24"/>
      <point x="471" y="90"/>
      <point x="482" y="202" type="curve" smooth="yes"/>
      <point x="492" y="310"/>
      <point x="354" y="360"/>
      <point x="241" y="387" type="curve"/>
      <point x="224" y="353" type="line"/>
    </contour>
  </outline>
</glyph>
<glyph name="four" format="1">
  <advance width="525"/>
  <unicode hex="0034"/>
  <outline>
    <contour>
      <point x="525" y="691" type="line"/>
      <point x="497" y="727"/>
      <point x="469" y="738"/>
      <point x="437" y="738" type="curve" smooth="yes"/>
      <point x="424" y="738"/>
      <point x="410" y="737"/>
      <point x="395" y="733" type="curve"/>
      <point x="30" y="251" type="line"/>
      <point x="35" y="226"/>
      <point x="45" y="206"/>
      <point x="65" y="194" type="curve"/>
      <point x="294" y="200" type="line"/>
      <point x="507" y="190" type="line"/>
      <point x="527" y="211"/>
      <point x="536" y="244"/>
      <point x="525" y="268" type="curve"/>
      <point x="202" y="255" type="line"/>
      <point x="105" y="253" type="line"/>
      <point x="310" y="514" type="line"/>
      <point x="437" y="681" type="line"/>
      <point x="450" y="677" type="line"/>
      <point x="379" y="420" type="line"/>
      <point x="287" y="18" type="line"/>
      <point x="318" y="0"/>
      <point x="341" y="-6"/>
      <point x="374" y="-1" type="curve"/>
      <point x="387" y="176" type="line"/>
      <point x="464" y="528" type="line"/>
    </contour>
  </outline>
</glyph>
<glyph name="eight" format="1">
  <advance width="531"/>
  <unicode hex="0038"/>
  <outline>
    <contour>
      <point x="340" y="388" type="line"/>
      <point x="457" y="468"/>
      <point x="532" y="505"/>
      <point x="532" y="575" type="curve" smooth="yes"/>
      <point x="532" y="649"/>
      <point x="454" y="739"/>
      <point x="366" y="742" type="curve" smooth="yes"/>
      <point x="279" y="745"/>
      <point x="127" y="649"/>
      <point x="121" y="528" type="curve" smooth="yes"/>
      <point x="113" y="383"/>
      <point x="404" y="307"/>
      <point x="413" y="184" type="curve"/>
      <point x="388" y="134"/>
      <point x="350" y="89"/>
      <point x="301" y="57" type="curve"/>
      <point x="167" y="44"/>
      <point x="119" y="89"/>
      <point x="120" y="177" type="curve"/>
      <point x="165" y="235"/>
      <point x="220" y="288"/>
      <point x="289" y="346" type="curve"/>
      <point x="258" y="379" type="line"/>
      <point x="105" y="259"/>
      <point x="64" y="227"/>
      <point x="58" y="148" type="curve" smooth="yes"/>
      <point x="52" y="62"/>
      <point x="116" y="-1"/>
      <point x="210" y="-4" type="curve" smooth="yes"/>
      <point x="311" y="-11"/>
      <point x="464" y="78"/>
      <point x="470" y="212" type="curve" smooth="yes"/>
      <point x="476" y="378"/>
      <point x="187" y="431"/>
      <point x="179" y="553" type="curve"/>
      <point x="210" y="613"/>
      <point x="284" y="671"/>
      <point x="337" y="696" type="curve"/>
      <point x="407" y="681"/>
      <point x="454" y="635"/>
      <point x="460" y="549" type="curve"/>
      <point x="403" y="494"/>
      <point x="357" y="456"/>
      <point x="303" y="417" type="curve"/>
    </contour>
  </outline>
</glyph>
<glyph name="nine" format="1">
  <advance width="572"/>
  <unicode hex="0039"/>
  <outline>
    <contour>
      <point x="151" y="-12" type="curve"/>
      <point x="386" y="64"/>
      <point x="495" y="178"/>
      <point x="525" y="408" type="curve" smooth="yes"/>
      <point x="553" y="619"/>
      <point x="455" y="742"/>
      <point x="347" y="742" type="curve" smooth="yes"/>
      <point x="228" y="742"/>
      <point x="103" y="580"/>
      <point x="78" y="432" type="curve" smooth="yes"/>
      <point x="58" y="319"/>
      <point x="112" y="259"/>
      <point x="187" y="259" type="curve" smooth="yes"/>
      <point x="275" y="259"/>
      <point x="394" y="395"/>
      <point x="472" y="646" type="curve"/>
      <point x="431" y="643" type="line"/>
      <point x="400" y="532"/>
      <point x="308" y="390"/>
      <point x="216" y="324" type="curve"/>
      <point x="139" y="324"/>
      <point x="143" y="380"/>
      <point x="152" y="435" type="curve" smooth="yes"/>
      <point x="170" y="535"/>
      <point x="276" y="663"/>
      <point x="338" y="678" type="curve"/>
      <point x="413" y="660"/>
      <point x="472" y="564"/>
      <point x="456" y="407" type="curve" smooth="yes"/>
      <point x="447" y="328"/>
      <point x="421" y="241"/>
      <point x="383" y="172" type="curve"/>
      <point x="309" y="113"/>
      <point x="217" y="76"/>
      <point x="112" y="52" type="curve"/>
      <point x="113" y="27"/>
      <point x="130" y="0"/>
    </contour>
  </outline>
</glyph>
<glyph name="less" format="1">
  <advance width="593"/>
  <unicode hex="003C"/>
  <outline>
    <contour>
      <point x="337" y="441" type="line"/>
      <point x="545" y="516" type="line"/>
      <point x="558" y="540"/>
      <point x="552" y="573"/>
      <point x="529" y="589" type="curve"/>
      <point x="82" y="387" type="line"/>
      <point x="68" y="364"/>
      <point x="64" y="342"/>
      <point x="70" y="318" type="curve"/>
      <point x="270" y="215" type="line"/>
      <point x="463" y="98" type="line"/>
      <point x="488" y="105"/>
      <point x="504" y="127"/>
      <point x="507" y="150" type="curve"/>
      <point x="137" y="350" type="line"/>
    </contour>
  </outline>
</glyph>
<glyph name="A" format="1">
  <advance width="567"/>
  <unicode hex="0041"/>
  <outline>
    <contour>
      <point x="428" y="796" type="move" name="top"/>
    </contour>
    <contour>
      <point x="469" y="0" type="move" name="ogonek"/>
    </contour>
    <contour>
      <point x="387" y="327" type="line"/>
      <point x="39" y="310" type="line"/>
      <point x="19" y="288"/>
      <point x="16" y="261"/>
      <point x="32" y="240" type="curve"/>
      <point x="253" y="273" type="line"/>
      <point x="544" y="289" type="line"/>
      <point x="566" y="319"/>
      <point x="567" y="349"/>
      <point x="551" y="360" type="curve"/>
    </contour>
    <contour>
      <point x="474" y="0" type="curve"/>
      <point x="433" y="550" type="line"/>
      <point x="448" y="724" type="line"/>
      <point x="415" y="734"/>
      <point x="368" y="738"/>
      <point x="324" y="710" type="curve"/>
      <point x="210" y="438" type="line"/>
      <point x="-11" y="24" type="line"/>
      <point x="2" y="2"/>
      <point x="27" y="-4"/>
      <point x="72" y="0" type="curve"/>
      <point x="367" y="644" type="line"/>
      <point x="376" y="646" type="line"/>
      <point x="387" y="315" type="line"/>
      <point x="388" y="25" type="line"/>
      <point x="403" y="6"/>
      <point x="429" y="-5"/>
    </contour>
  </outline>
</glyph>
<glyph name="E" format="1">
  <advance width="497"/>
  <unicode hex="0045"/>
  <outline>
    <contour>
      <point x="359" y="796" type="move" name="top"/>
    </contour>
    <contour>
      <point x="399" y="0" type="move" name="ogonek"/>
    </contour>
    <contour>
      <point x="438" y="656" type="curve"/>
      <point x="501" y="615" type="line"/>
      <point x="536" y="644"/>
      <point x="553" y="708"/>
      <point x="526" y="728" type="curve"/>
      <point x="352" y="730"/>
      <point x="249" y="726"/>
      <point x="135" y="715" type="curve"/>
      <point x="124" y="704"/>
      <point x="124" y="684"/>
      <point x="135" y="664" type="curve"/>
      <point x="152" y="663"/>
      <point x="170" y="660"/>
      <point x="181" y="653" type="curve"/>
      <point x="162" y="492" type="line"/>
      <point x="134" y="334"/>
      <point x="94" y="205"/>
      <point x="41" y="66" type="curve"/>
      <point x="42" y="33"/>
      <point x="71" y="13"/>
      <point x="118" y="0" type="curve"/>
      <point x="409" y="29" type="line"/>
      <point x="427" y="57"/>
      <point x="435" y="103"/>
      <point x="405" y="113" type="curve"/>
      <point x="324" y="97"/>
      <point x="230" y="80"/>
      <point x="127" y="67" type="curve"/>
      <point x="197" y="332" type="line"/>
      <point x="268" y="335"/>
      <point x="339" y="330"/>
      <point x="411" y="325" type="curve"/>
      <point x="431" y="355"/>
      <point x="433" y="390"/>
      <point x="422" y="408" type="curve"/>
      <point x="364" y="401"/>
      <point x="288" y="397"/>
      <point x="206" y="389" type="curve"/>
      <point x="235" y="552" type="line"/>
      <point x="264" y="661" type="line"/>
      <point x="337" y="669"/>
      <point x="394" y="663"/>
    </contour>
  </outline>
</glyph>
<glyph name="H" format="1">
  <advance width="669"/>
  <unicode hex="0048"/>
  <outline>
    <contour>
      <point x="374" y="390" type="line"/>
      <point x="78" y="379" type="line"/>
      <point x="57" y="357"/>
      <point x="53" y="330"/>
      <point x="68" y="309" type="curve"/>
      <point x="207" y="330" type="line"/>
      <point x="626" y="362" type="line"/>
      <point x="649" y="391"/>
      <point x="651" y="421"/>
      <point x="635" y="432" type="curve"/>
    </contour>
    <contour>
      <point x="279" y="726" type="line"/>
      <point x="266" y="732"/>
      <point x="255" y="735"/>
      <point x="243" y="735" type="curve" smooth="yes"/>
      <point x="222" y="735"/>
      <point x="202" y="727"/>
      <point x="174" y="710" type="curve"/>
      <point x="159" y="497" type="line"/>
      <point x="127" y="302"/>
      <point x="105" y="217"/>
      <point x="59" y="31" type="curve"/>
      <point x="77" y="2"/>
      <point x="113" y="-4"/>
      <point x="154" y="0" type="curve"/>
      <point x="171" y="154"/>
      <point x="194" y="299"/>
      <point x="204" y="401" type="curve"/>
    </contour>
    <contour>
      <point x="632" y="726" type="line"/>
      <point x="619" y="732"/>
      <point x="608" y="735"/>
      <point x="596" y="735" type="curve" smooth="yes"/>
      <point x="576" y="735"/>
      <point x="555" y="727"/>
      <point x="527" y="710" type="curve"/>
      <point x="512" y="497" type="line"/>
      <point x="481" y="302"/>
      <point x="458" y="217"/>
      <point x="413" y="31" type="curve"/>
      <point x="430" y="2"/>
      <point x="467" y="-4"/>
      <point x="508" y="0" type="curve"/>
      <point x="524" y="154"/>
      <point x="548" y="299"/>
      <point x="557" y="401" type="curve"/>
    </contour>
  </outline>
</glyph>
<glyph name="S" format="1">
  <advance width="565"/>
  <unicode hex="0053"/>
  <outline>
    <contour>
      <point x="382" y="796" type="move" name="top"/>
    </contour>
    <contour>
      <point x="275" y="0" type="move" name="bottom"/>
    </contour>
    <contour>
      <point x="526" y="232" type="curve"/>
      <point x="462" y="377"/>
      <point x="170" y="450"/>
      <point x="165" y="544" type="curve" smooth="yes"/>
      <point x="163" y="594"/>
      <point x="272" y="673"/>
      <point x="359" y="692" type="curve"/>
      <point x="402" y="660"/>
      <point x="436" y="626"/>
      <point x="468" y="543" type="curve"/>
      <point x="509" y="539"/>
      <point x="535" y="559"/>
      <point x="539" y="583" type="curve"/>
      <point x="503" y="657"/>
      <point x="442" y="712"/>
      <point x="366" y="744" type="curve"/>
      <point x="261" y="735"/>
      <point x="131" y="657"/>
      <point x="87" y="548" type="curve"/>
      <point x="112" y="388"/>
      <point x="447" y="311"/>
      <point x="449" y="229" type="curve" smooth="yes"/>
      <point x="449" y="151"/>
      <point x="364" y="81"/>
      <point x="251" y="53" type="curve"/>
      <point x="162" y="107"/>
      <point x="135" y="140"/>
      <point x="105" y="232" type="curve"/>
      <point x="66" y="245"/>
      <point x="48" y="239"/>
      <point x="21" y="202" type="curve"/>
      <point x="35" y="131"/>
      <point x="137" y="33"/>
      <point x="241" y="0" type="curve"/>
      <point x="420" y="33"/>
      <point x="509" y="122"/>
    </contour>
  </outline>
</glyph>
<glyph name="V" format="1">
  <advance width="536"/>
  <unicode hex="0056"/>
  <outline>
    <contour>
      <point x="216" y="247" type="line"/>
      <point x="197" y="713" type="line"/>
      <point x="176" y="730"/>
      <point x="132" y="721"/>
      <point x="108" y="705" type="curve"/>
      <point x="177" y="22" type="line"/>
      <point x="204" y="-2"/>
      <point x="247" y="-5"/>
      <point x="280" y="3" type="curve"/>
      <point x="337" y="161" type="line"/>
      <point x="406" y="291"/>
      <point x="476" y="403"/>
      <point x="546" y="532" type="curve"/>
      <point x="570" y="584"/>
      <point x="590" y="639"/>
      <point x="584" y="706" type="curve"/>
      <point x="559" y="725"/>
      <point x="528" y="730"/>
      <point x="471" y="706" type="curve"/>
      <point x="484" y="552" type="line"/>
      <point x="224" y="32" type="line"/>
      <point x="247" y="29" type="line"/>
    </contour>
  </outline>
</glyph>
<glyph name="Z" format="1">
  <advance width="571"/>
  <unicode hex="005A"/>
  <outline>
    <contour>
      <point x="365" y="796" type="move" name="top"/>
    </contour>
    <contour>
      <point x="90" y="41" type="line"/>
      <point x="181" y="45"/>
      <point x="369" y="30"/>
      <point x="442" y="0" type="curve"/>
      <point x="495" y="38"/>
      <point x="530" y="84"/>
      <point x="541" y="126" type="curve"/>
      <point x="529" y="154"/>
      <point x="507" y="163"/>
      <point x="455" y="152" type="curve"/>
      <point x="449" y="123"/>
      <point x="443" y="105"/>
      <point x="428" y="76" type="curve"/>
      <point x="345" y="90"/>
      <point x="213" y="87"/>
      <point x="111" y="87" type="curve"/>
      <point x="106" y="96" type="line"/>
      <point x="252" y="229"/>
      <point x="546" y="558"/>
      <point x="585" y="713" type="curve"/>
      <point x="573" y="732"/>
      <point x="561" y="742"/>
      <point x="513" y="744" type="curve"/>
      <point x="494" y="702" type="line"/>
      <point x="409" y="700"/>
      <point x="246" y="713"/>
      <point x="172" y="735" type="curve"/>
      <point x="110" y="708"/>
      <point x="84" y="644"/>
      <point x="73" y="593" type="curve"/>
      <point x="85" y="569"/>
      <point x="109" y="561"/>
      <point x="158" y="570" type="curve"/>
      <point x="160" y="605"/>
      <point x="168" y="640"/>
      <point x="190" y="670" type="curve"/>
      <point x="249" y="657"/>
      <point x="384" y="656"/>
      <point x="475" y="657" type="curve"/>
      <point x="482" y="649" type="line"/>
      <point x="364" y="397"/>
      <point x="5" y="124"/>
      <point x="4" y="54" type="curve" smooth="yes"/>
      <point x="3" y="33"/>
      <point x="6" y="18"/>
      <point x="17" y="0" type="curve"/>
      <point x="64" y="-4"/>
      <point x="82" y="3"/>
      <point x="93" y="19" type="curve"/>
      <point x="85" y="36" type="line"/>
    </contour>
  </outline>
</glyph>
<glyph name="bracketleft" format="1">
  <advance width="505"/>
  <unicode hex="005B"/>
  <outline>
    <contour>
      <point x="417" y="787" type="line"/>
      <point x="512" y="781" type="line"/>
      <point x="529" y="811"/>
      <point x="535" y="823"/>
      <point x="530" y="846" type="curve"/>
      <point x="279" y="840" type="line"/>
      <point x="210" y="416" type="line"/>
      <point x="108" y="-10" type="line"/>
      <point x="114" y="-27"/>
      <point x="132" y="-46"/>
      <point x="157" y="-59" type="curve"/>
      <point x="359" y="-19" type="line"/>
      <point x="376" y="-1"/>
      <point x="381" y="18"/>
      <point x="373" y="31" type="curve"/>
      <point x="197" y="5" type="line"/>
      <point x="232" y="243" type="line"/>
      <point x="305" y="625" type="line"/>
      <point x="352" y="783" type="line"/>
    </contour>
  </outline>
</glyph>
<glyph name="asciicircum" format="1">
  <advance width="443"/>
  <unicode hex="005E"/>
  <outline>
    <contour>
      <point x="53" y="415" type="line"/>
      <point x="56" y="402"/>
      <point x="70" y="392"/>
      <point x="86" y="394" type="curve"/>
      <point x="278" y="701" type="line"/>
      <point x="372" y="402" type="line"/>
      <point x="386" y="392"/>
      <point x="418" y="388"/>
      <point x="441" y="409" type="curve"/>
      <point x="333" y="738" type="line"/>
      <point x="318" y="750"/>
      <point x="291" y="753"/>
      <point x="262" y="746" type="curve"/>
    </contour>
  </outline>
</glyph>
<glyph name="grave" format="1">
  <advance width="227"/>
  <unicode hex="0060"/>
  <outline>
    <contour>
      <point x="251" y="594" type="move" name="_top"/>
    </contour>
    <contour>
      <point x="193" y="787" type="line"/>
      <point x="150" y="796"/>
      <point x="113" y="783"/>
      <point x="103" y="747" type="curve"/>
      <point x="189" y="659" type="line"/>
      <point x="240" y="586" type="line"/>
      <point x="259" y="584"/>
      <point x="271" y="589"/>
      <point x="274" y="600" type="curve"/>
    </contour>
  </outline>
</glyph>
<glyph name="a" format="1">
  <advance width="501"/>
  <unicode hex="0061"/>
  <outline>
    <contour>
      <point x="353" y="594" type="move" name="top"/>
    </contour>
    <contour>
      <point x="385" y="0" type="move" name="ogonek"/>
    </contour>
    <contour>
      <point x="338" y="242" type="line"/>
      <point x="282" y="189"/>
      <point x="225" y="134"/>
      <point x="162" y="72" type="curve"/>
      <point x="118" y="98"/>
      <point x="106" y="132"/>
      <point x="106" y="181" type="curve" smooth="yes"/>
      <point x="106" y="319"/>
      <point x="171" y="440"/>
      <point x="287" y="487" type="curve"/>
      <point x="332" y="457"/>
      <point x="351" y="432"/>
      <point x="372" y="389" type="curve"/>
      <point x="405" y="411" type="line"/>
      <point x="383" y="467"/>
      <point x="339" y="519"/>
      <point x="291" y="540" type="curve"/>
      <point x="159" y="540"/>
      <point x="27" y="346"/>
      <point x="30" y="175" type="curve" smooth="yes"/>
      <point x="31" y="80"/>
      <point x="85" y="15"/>
      <point x="190" y="13" type="curve"/>
      <point x="248" y="82"/>
      <point x="318" y="154"/>
      <point x="359" y="212" type="curve"/>
    </contour>
    <contour>
      <point x="407" y="546" type="curve"/>
      <point x="400" y="528"/>
      <point x="393" y="495"/>
      <point x="391" y="446" type="curve"/>
      <point x="372" y="390" type="line"/>
      <point x="338" y="242" type="line"/>
      <point x="319" y="164" type="line"/>
      <point x="332" y="154" type="line"/>
      <point x="287" y="29" type="line"/>
      <point x="308" y="6"/>
      <point x="346" y="-5"/>
      <point x="389" y="0" type="curve"/>
      <point x="400" y="136"/>
      <point x="411" y="262"/>
      <point x="427" y="367" type="curve"/>
      <point x="502" y="514" type="line"/>
      <point x="484" y="538"/>
      <point x="457" y="546"/>
    </contour>
  </outline>
</glyph>
<glyph name="d" format="1">
  <advance width="462"/>
  <unicode hex="0064"/>
  <outline>
    <contour>
      <point x="338" y="242" type="line"/>
      <point x="282" y="189"/>
      <point x="225" y="134"/>
      <point x="162" y="72" type="curve"/>
      <point x="118" y="98"/>
      <point x="106" y="132"/>
      <point x="106" y="181" type="curve" smooth="yes"/>
      <point x="106" y="319"/>
      <point x="175" y="445"/>
      <point x="292" y="492" type="curve"/>
      <point x="336" y="462"/>
      <point x="351" y="432"/>
      <point x="372" y="389" type="curve"/>
      <point x="405" y="411" type="line"/>
      <point x="383" y="467"/>
      <point x="353" y="540"/>
      <point x="291" y="540" type="curve" smooth="yes"/>
      <point x="159" y="540"/>
      <point x="27" y="346"/>
      <point x="30" y="175" type="curve" smooth="yes"/>
      <point x="31" y="80"/>
      <point x="85" y="15"/>
      <point x="190" y="13" type="curve"/>
      <point x="248" y="82"/>
      <point x="318" y="154"/>
      <point x="359" y="212" type="curve"/>
    </contour>
    <contour>
      <point x="518" y="804" type="line"/>
      <point x="485" y="822"/>
      <point x="458" y="814"/>
      <point x="410" y="787" type="curve"/>
      <point x="405" y="540" type="line"/>
      <point x="394" y="487"/>
      <point x="384" y="440"/>
      <point x="372" y="389" type="curve"/>
      <point x="338" y="242" type="line"/>
      <point x="311" y="173" type="line"/>
      <point x="333" y="154" type="line"/>
      <point x="288" y="24" type="line"/>
      <point x="303" y="2"/>
      <point x="328" y="-4"/>
      <point x="374" y="0" type="curve"/>
      <point x="397" y="141"/>
      <point x="437" y="408"/>
      <point x="460" y="580" type="curve"/>
    </contour>
  </outline>
</glyph>
<glyph name="e" format="1">
  <advance width="481"/>
  <unicode hex="0065"/>
  <outline>
    <contour>
      <point x="293" y="594" type="move" name="top"/>
    </contour>
    <contour>
      <point x="255" y="0" type="move" name="ogonek"/>
    </contour>
    <contour>
      <point x="94" y="206" type="line"/>
      <point x="210" y="229"/>
      <point x="308" y="264"/>
      <point x="428" y="321" type="curve"/>
      <point x="436" y="423"/>
      <point x="399" y="516"/>
      <point x="275" y="548" type="curve"/>
      <point x="154" y="499"/>
      <point x="92" y="416"/>
      <point x="51" y="347" type="curve"/>
      <point x="41" y="314"/>
      <point x="33" y="282"/>
      <point x="32" y="248" type="curve" smooth="yes"/>
      <point x="30" y="129"/>
      <point x="90" y="30"/>
      <point x="227" y="0" type="curve"/>
      <point x="284" y="13"/>
      <point x="391" y="65"/>
      <point x="419" y="103" type="curve"/>
      <point x="421" y="133"/>
      <point x="417" y="145"/>
      <point x="389" y="145" type="curve"/>
      <point x="348" y="106"/>
      <point x="283" y="77"/>
      <point x="230" y="58" type="curve"/>
      <point x="124" y="97"/>
      <point x="104" y="167"/>
      <point x="105" y="267" type="curve" smooth="yes"/>
      <point x="107" y="340"/>
      <point x="178" y="447"/>
      <point x="268" y="491" type="curve"/>
      <point x="282" y="494" type="line"/>
      <point x="346" y="462"/>
      <point x="359" y="419"/>
      <point x="359" y="348" type="curve"/>
      <point x="268" y="307"/>
      <point x="190" y="279"/>
      <point x="85" y="254" type="curve"/>
    </contour>
  </outline>
</glyph>
<glyph name="n" format="1">
  <advance width="500"/>
  <unicode hex="006E"/>
  <outline>
    <contour>
      <point x="297" y="594" type="move" name="top"/>
    </contour>
    <contour>
      <point x="243" y="0" type="move" name="bottom"/>
    </contour>
    <contour>
      <point x="409" y="0" type="curve"/>
      <point x="417" y="136"/>
      <point x="429" y="256"/>
      <point x="437" y="328" type="curve"/>
      <point x="473" y="417" type="line"/>
      <point x="464" y="467"/>
      <point x="424" y="532"/>
      <point x="346" y="540" type="curve"/>
      <point x="258" y="504"/>
      <point x="178" y="423"/>
      <point x="125" y="336" type="curve"/>
      <point x="151" y="302" type="line"/>
      <point x="215" y="384"/>
      <point x="283" y="441"/>
      <point x="347" y="469" type="curve"/>
      <point x="366" y="461"/>
      <point x="384" y="445"/>
      <point x="389" y="413" type="curve"/>
      <point x="363" y="276"/>
      <point x="342" y="166"/>
      <point x="321" y="25" type="curve"/>
      <point x="337" y="6"/>
      <point x="363" y="-5"/>
    </contour>
    <contour>
      <point x="107" y="372" type="line"/>
      <point x="86" y="267"/>
      <point x="54" y="141"/>
      <point x="19" y="24" type="curve"/>
      <point x="35" y="2"/>
      <point x="59" y="-4"/>
      <point x="105" y="0" type="curve"/>
      <point x="127" y="119"/>
      <point x="147" y="237"/>
      <point x="166" y="375" type="curve"/>
      <point x="147" y="388" type="line"/>
      <point x="174" y="437" type="line"/>
      <point x="187" y="505"/>
      <point x="189" y="528"/>
      <point x="185" y="546" type="curve"/>
      <point x="143" y="552"/>
      <point x="117" y="544"/>
      <point x="86" y="515" type="curve"/>
    </contour>
  </outline>
</glyph>
<glyph name="q" format="1">
  <advance width="483"/>
  <unicode hex="0071"/>
  <outline>
    <contour>
      <point x="323" y="-158" type="line"/>
      <point x="360" y="19"/>
      <point x="377" y="148"/>
      <point x="420" y="367" type="curve"/>
      <point x="496" y="514" type="line"/>
      <point x="477" y="538"/>
      <point x="450" y="546"/>
      <point x="401" y="546" type="curve"/>
      <point x="393" y="528"/>
      <point x="387" y="495"/>
      <point x="384" y="446" type="curve"/>
      <point x="337" y="248" type="line"/>
      <point x="319" y="116"/>
      <point x="259" y="-108"/>
      <point x="233" y="-213" type="curve"/>
      <point x="233" y="-239"/>
      <point x="258" y="-262"/>
      <point x="318" y="-270" type="curve"/>
      <point x="367" y="-202"/>
      <point x="428" y="-132"/>
      <point x="472" y="-71" type="curve"/>
      <point x="470" y="-52"/>
      <point x="460" y="-45"/>
      <point x="444" y="-48" type="curve"/>
      <point x="410" y="-80"/>
      <point x="356" y="-135"/>
      <point x="328" y="-163" type="curve"/>
    </contour>
    <contour>
      <point x="337" y="242" type="line"/>
      <point x="281" y="189"/>
      <point x="224" y="134"/>
      <point x="161" y="72" type="curve"/>
      <point x="117" y="98"/>
      <point x="105" y="132"/>
      <point x="105" y="181" type="curve" smooth="yes"/>
      <point x="105" y="319"/>
      <point x="174" y="445"/>
      <point x="291" y="492" type="curve"/>
      <point x="335" y="462"/>
      <point x="350" y="432"/>
      <point x="370" y="389" type="curve"/>
      <point x="404" y="411" type="line"/>
      <point x="382" y="467"/>
      <point x="352" y="540"/>
      <point x="289" y="540" type="curve" smooth="yes"/>
      <point x="158" y="540"/>
      <point x="26" y="346"/>
      <point x="29" y="175" type="curve" smooth="yes"/>
      <point x="30" y="80"/>
      <point x="84" y="15"/>
      <point x="189" y="13" type="curve"/>
      <point x="247" y="82"/>
      <point x="316" y="154"/>
      <point x="357" y="212" type="curve"/>
    </contour>
  </outline>
</glyph>
<glyph name="s" format="1">
  <advance width="464"/>
  <unicode hex="0073"/>
  <outline>
    <contour>
      <point x="292" y="594" type="move" name="top"/>
    </contour>
    <contour>
      <point x="211" y="0" type="move" name="bottom"/>
    </contour>
    <contour>
      <point x="409" y="172" type="curve"/>
      <point x="379" y="293"/>
      <point x="146" y="337"/>
      <point x="146" y="390" type="curve" smooth="yes"/>
      <point x="146" y="424"/>
      <point x="219" y="487"/>
      <point x="292" y="507" type="curve"/>
      <point x="323" y="467"/>
      <point x="337" y="435"/>
      <point x="339" y="390" type="curve"/>
      <point x="390" y="380"/>
      <point x="415" y="395"/>
      <point x="419" y="414" type="curve"/>
      <point x="403" y="494"/>
      <point x="355" y="529"/>
      <point x="299" y="553" type="curve"/>
      <point x="192" y="545"/>
      <point x="84" y="475"/>
      <point x="67" y="375" type="curve"/>
      <point x="96" y="269"/>
      <point x="332" y="227"/>
      <point x="332" y="171" type="curve" smooth="yes"/>
      <point x="332" y="125"/>
      <point x="282" y="65"/>
      <point x="176" y="44" type="curve"/>
      <point x="129" y="82"/>
      <point x="107" y="127"/>
      <point x="95" y="189" type="curve"/>
      <point x="63" y="195"/>
      <point x="44" y="187"/>
      <point x="19" y="150" type="curve"/>
      <point x="28" y="93"/>
      <point x="93" y="22"/>
      <point x="168" y="0" type="curve"/>
      <point x="301" y="5"/>
      <point x="386" y="69"/>
    </contour>
  </outline>
</glyph>
<glyph name="u" format="1">
  <advance width="501"/>
  <unicode hex="0075"/>
  <outline>
    <contour>
      <point x="301" y="594" type="move" name="top"/>
    </contour>
    <contour>
      <point x="387" y="0" type="move" name="ogonek"/>
    </contour>
    <contour>
      <point x="406" y="546" type="curve"/>
      <point x="383" y="457"/>
      <point x="363" y="366"/>
      <point x="339" y="238" type="curve"/>
      <point x="328" y="175" type="line"/>
      <point x="351" y="156" type="line"/>
      <point x="302" y="25" type="line"/>
      <point x="319" y="6"/>
      <point x="345" y="-5"/>
      <point x="391" y="0" type="curve"/>
      <point x="399" y="136"/>
      <point x="410" y="262"/>
      <point x="426" y="367" type="curve"/>
      <point x="501" y="514" type="line"/>
      <point x="483" y="538"/>
      <point x="456" y="546"/>
    </contour>
    <contour>
      <point x="92" y="546" type="curve"/>
      <point x="94" y="434"/>
      <point x="84" y="324"/>
      <point x="79" y="267" type="curve"/>
      <point x="28" y="94" type="line"/>
      <point x="42" y="53"/>
      <point x="83" y="15"/>
      <point x="191" y="0" type="curve"/>
      <point x="259" y="68"/>
      <point x="327" y="145"/>
      <point x="366" y="204" type="curve"/>
      <point x="340" y="238" type="line"/>
      <point x="287" y="163"/>
      <point x="232" y="110"/>
      <point x="180" y="63" type="curve"/>
      <point x="136" y="76"/>
      <point x="118" y="92"/>
      <point x="110" y="111" type="curve"/>
      <point x="157" y="320"/>
      <point x="175" y="427"/>
      <point x="185" y="515" type="curve"/>
      <point x="153" y="545"/>
      <point x="133" y="551"/>
    </contour>
  </outline>
</glyph>
<glyph name="w" format="1">
  <advance width="677"/>
  <unicode hex="0077"/>
  <outline>
    <contour>
      <point x="441" y="70" type="line"/>
      <point x="467" y="260"/>
      <point x="455" y="376"/>
      <point x="388" y="538" type="curve"/>
      <point x="345" y="545"/>
      <point x="308" y="526"/>
      <point x="296" y="491" type="curve"/>
      <point x="357" y="397" type="line"/>
      <point x="311" y="276"/>
      <point x="261" y="177"/>
      <point x="181" y="70" type="curve"/>
      <point x="173" y="72" type="line"/>
      <point x="194" y="261"/>
      <point x="181" y="432"/>
      <point x="109" y="540" type="curve"/>
      <point x="65" y="543"/>
      <point x="30" y="521"/>
      <point x="22" y="485" type="curve"/>
      <point x="105" y="382" type="line"/>
      <point x="122" y="276"/>
      <point x="119" y="201"/>
      <point x="94" y="48" type="curve"/>
      <point x="103" y="16"/>
      <point x="151" y="0"/>
      <point x="194" y="0" type="curve"/>
      <point x="293" y="127"/>
      <point x="347" y="221"/>
      <point x="378" y="313" type="curve"/>
      <point x="384" y="311" type="line"/>
      <point x="392" y="222"/>
      <point x="387" y="153"/>
      <point x="366" y="48" type="curve"/>
      <point x="374" y="18"/>
      <point x="421" y="-2"/>
      <point x="467" y="0" type="curve"/>
      <point x="605" y="163"/>
      <point x="675" y="348"/>
      <point x="698" y="527" type="curve"/>
      <point x="672" y="555"/>
      <point x="639" y="550"/>
      <point x="594" y="522" type="curve"/>
      <point x="621" y="411" type="line"/>
      <point x="581" y="259"/>
      <point x="515" y="145"/>
      <point x="448" y="67" type="curve"/>
    </contour>
  </outline>
</glyph>
<glyph name="y" format="1">
  <advance width="470"/>
  <unicode hex="0079"/>
  <outline>
    <contour>
      <point x="309" y="594" type="move" name="top"/>
    </contour>
    <contour>
      <point x="86" y="546" type="curve"/>
      <point x="90" y="496"/>
      <point x="86" y="363"/>
      <point x="78" y="296" type="curve"/>
      <point x="29" y="153" type="line"/>
      <point x="43" y="105"/>
      <point x="85" y="67"/>
      <point x="212" y="46" type="curve"/>
      <point x="281" y="109"/>
      <point x="312" y="135"/>
      <point x="360" y="204" type="curve"/>
      <point x="334" y="238" type="line"/>
      <point x="296" y="181"/>
      <point x="249" y="143"/>
      <point x="199" y="105" type="curve"/>
      <point x="141" y="122"/>
      <point x="123" y="138"/>
      <point x="109" y="171" type="curve"/>
      <point x="150" y="334"/>
      <point x="160" y="379"/>
      <point x="179" y="515" type="curve"/>
      <point x="148" y="545"/>
      <point x="127" y="551"/>
    </contour>
    <contour>
      <point x="298" y="76" type="line"/>
      <point x="279" y="-44"/>
      <point x="270" y="-96"/>
      <point x="237" y="-203" type="curve"/>
      <point x="229" y="-210"/>
      <point x="212" y="-212"/>
      <point x="197" y="-210" type="curve"/>
      <point x="140" y="-167"/>
      <point x="110" y="-110"/>
      <point x="105" y="-46" type="curve"/>
      <point x="80" y="-30"/>
      <point x="46" y="-46"/>
      <point x="24" y="-81" type="curve"/>
      <point x="32" y="-141"/>
      <point x="83" y="-221"/>
      <point x="180" y="-270" type="curve"/>
      <point x="230" y="-273"/>
      <point x="294" y="-257"/>
      <point x="318" y="-224" type="curve"/>
      <point x="343" y="-75"/>
      <point x="381" y="188"/>
      <point x="414" y="347" type="curve"/>
      <point x="497" y="514" type="line"/>
      <point x="480" y="538"/>
      <point x="453" y="546"/>
      <point x="403" y="546" type="curve"/>
      <point x="380" y="482"/>
      <point x="362" y="395"/>
      <point x="334" y="237" type="curve"/>
      <point x="324" y="159" type="line"/>
      <point x="337" y="147" type="line"/>
    </contour>
  </outline>
</glyph>
<glyph name="z" format="1">
  <advance width="504"/>
  <unicode hex="007A"/>
  <outline>
    <contour>
      <point x="290" y="594" type="move" name="top"/>
    </contour>
    <contour>
      <point x="141" y="375" type="curve"/>
      <point x="141" y="409"/>
      <point x="149" y="445"/>
      <point x="170" y="476" type="curve"/>
      <point x="237" y="461"/>
      <point x="292" y="451"/>
      <point x="375" y="453" type="curve"/>
      <point x="381" y="445" type="line"/>
      <point x="259" y="240"/>
      <point x="11" y="143"/>
      <point x="12" y="54" type="curve" smooth="yes"/>
      <point x="12" y="37"/>
      <point x="14" y="19"/>
      <point x="24" y="0" type="curve"/>
      <point x="70" y="-4"/>
      <point x="89" y="3"/>
      <point x="98" y="19" type="curve"/>
      <point x="91" y="36" type="line"/>
      <point x="95" y="41" type="line"/>
      <point x="158" y="45"/>
      <point x="282" y="38"/>
      <point x="356" y="0" type="curve"/>
      <point x="404" y="31"/>
      <point x="438" y="78"/>
      <point x="448" y="123" type="curve"/>
      <point x="445" y="153"/>
      <point x="420" y="162"/>
      <point x="373" y="152" type="curve"/>
      <point x="370" y="125"/>
      <point x="364" y="106"/>
      <point x="348" y="75" type="curve"/>
      <point x="261" y="90"/>
      <point x="180" y="85"/>
      <point x="114" y="87" type="curve"/>
      <point x="109" y="96" type="line"/>
      <point x="230" y="197"/>
      <point x="476" y="395"/>
      <point x="484" y="504" type="curve"/>
      <point x="471" y="527"/>
      <point x="458" y="537"/>
      <point x="409" y="540" type="curve"/>
      <point x="392" y="498" type="line"/>
      <point x="308" y="496"/>
      <point x="231" y="517"/>
      <point x="157" y="540" type="curve"/>
      <point x="96" y="513"/>
      <point x="72" y="448"/>
      <point x="63" y="397" type="curve"/>
      <point x="75" y="374"/>
      <point x="98" y="365"/>
    </contour>
  </outline>
</glyph>
<glyph name="braceleft" format="1">
  <advance width="648"/>
  <unicode hex="007B"/>
  <outline>
    <contour>
      <point x="511" y="744" type="line"/>
      <point x="530" y="751"/>
      <point x="541" y="766"/>
      <point x="542" y="787" type="curve"/>
      <point x="501" y="821"/>
      <point x="448" y="856"/>
      <point x="396" y="856" type="curve" smooth="yes"/>
      <point x="352" y="856"/>
      <point x="300" y="827"/>
      <point x="271" y="789" type="curve"/>
      <point x="387" y="634"/>
      <point x="278" y="465"/>
      <point x="166" y="465" type="curve"/>
      <point x="144" y="387" type="line"/>
      <point x="195" y="364"/>
      <point x="246" y="309"/>
      <point x="244" y="237" type="curve" smooth="yes"/>
      <point x="242" y="152"/>
      <point x="202" y="80"/>
      <point x="122" y="30" type="curve"/>
      <point x="141" y="-32"/>
      <point x="179" y="-73"/>
      <point x="233" y="-90" type="curve"/>
      <point x="291" y="-86"/>
      <point x="337" y="-73"/>
      <point x="382" y="-59" type="curve"/>
      <point x="389" y="-42"/>
      <point x="379" y="-22"/>
      <point x="363" y="-10" type="curve"/>
      <point x="226" y="-38" type="line"/>
      <point x="195" y="2" type="line"/>
      <point x="261" y="60"/>
      <point x="316" y="139"/>
      <point x="318" y="229" type="curve" smooth="yes"/>
      <point x="319" y="305"/>
      <point x="282" y="361"/>
      <point x="215" y="405" type="curve"/>
      <point x="217" y="417" type="line"/>
      <point x="295" y="423"/>
      <point x="359" y="474"/>
      <point x="382" y="549" type="curve" smooth="yes"/>
      <point x="403" y="613"/>
      <point x="394" y="699"/>
      <point x="351" y="786" type="curve"/>
      <point x="394" y="811" type="line"/>
    </contour>
  </outline>
</glyph>
<glyph name="asciitilde" format="1">
  <advance width="648"/>
  <unicode hex="007E"/>
  <outline>
    <contour>
      <point x="201" y="408" type="curve"/>
      <point x="144" y="390"/>
      <point x="95" y="346"/>
      <point x="69" y="313" type="curve"/>
      <point x="68" y="297"/>
      <point x="95" y="283"/>
      <point x="133" y="284" type="curve"/>
      <point x="203" y="356" type="line"/>
      <point x="210" y="359" type="line"/>
      <point x="260" y="319"/>
      <point x="314" y="300"/>
      <point x="423" y="281" type="curve"/>
      <point x="484" y="305"/>
      <point x="532" y="332"/>
      <point x="561" y="373" type="curve"/>
      <point x="559" y="393"/>
      <point x="534" y="408"/>
      <point x="498" y="402" type="curve"/>
      <point x="413" y="333" type="line"/>
      <point x="406" y="334" type="line"/>
      <point x="339" y="374"/>
      <point x="316" y="389"/>
    </contour>
  </outline>
</glyph>
<glyph name="sterling" format="1">
  <advance width="648"/>
  <unicode hex="00A3"/>
  <outline>
    <contour>
      <point x="503" y="104" type="curve"/>
      <point x="454" y="59" type="line"/>
      <point x="345" y="60"/>
      <point x="248" y="72"/>
      <point x="161" y="90" type="curve"/>
      <point x="201" y="68" type="line"/>
      <point x="254" y="170"/>
      <point x="352" y="424"/>
      <point x="318" y="660" type="curve"/>
      <point x="346" y="683"/>
      <point x="393" y="696"/>
      <point x="422" y="703" type="curve"/>
      <point x="460" y="674"/>
      <point x="477" y="650"/>
      <point x="482" y="590" type="curve"/>
      <point x="503" y="577"/>
      <point x="540" y="583"/>
      <point x="565" y="604" type="curve"/>
      <point x="559" y="672"/>
      <point x="503" y="744"/>
      <point x="426" y="756" type="curve"/>
      <point x="354" y="747"/>
      <point x="291" y="711"/>
      <point x="244" y="656" type="curve"/>
      <point x="275" y="518" type="line"/>
      <point x="252" y="338"/>
      <point x="201" y="213"/>
      <point x="140" y="94" type="curve"/>
      <point x="170" y="94" type="line"/>
      <point x="90" y="114" type="line"/>
      <point x="48" y="80"/>
      <point x="46" y="45"/>
      <point x="107" y="0" type="curve"/>
      <point x="141" y="1"/>
      <point x="181" y="17"/>
      <point x="193" y="63" type="curve"/>
      <point x="149" y="35" type="line"/>
      <point x="286" y="14"/>
      <point x="408" y="4"/>
      <point x="518" y="0" type="curve"/>
      <point x="550" y="49"/>
      <point x="553" y="82"/>
    </contour>
    <contour>
      <point x="480" y="393" type="curve"/>
      <point x="252" y="369" type="line"/>
      <point x="112" y="381" type="line"/>
      <point x="96" y="355"/>
      <point x="94" y="337"/>
      <point x="106" y="323" type="curve"/>
      <point x="470" y="332" type="line"/>
      <point x="490" y="362"/>
      <point x="495" y="384"/>
    </contour>
  </outline>
</glyph>
<glyph name="brokenbar" format="1">
  <advance width="224"/>
  <unicode hex="00A6"/>
  <outline>
    <contour>
      <point x="161" y="743" type="line"/>
      <point x="147" y="658"/>
      <point x="129" y="602"/>
      <point x="102" y="491" type="curve"/>
      <point x="121" y="480"/>
      <point x="160" y="471"/>
      <point x="200" y="477" type="curve"/>
      <point x="205" y="549"/>
      <point x="217" y="653"/>
      <point x="220" y="701" type="curve"/>
      <point x="293" y="966" type="line"/>
      <point x="279" y="971"/>
      <point x="267" y="974"/>
      <point x="255" y="974" type="curve" smooth="yes"/>
      <point x="234" y="974"/>
      <point x="215" y="970"/>
      <point x="188" y="960" type="curve"/>
    </contour>
    <contour>
      <point x="36" y="83" type="line"/>
      <point x="22" y="-2"/>
      <point x="3" y="-63"/>
      <point x="-24" y="-173" type="curve"/>
      <point x="-3" y="-188"/>
      <point x="35" y="-205"/>
      <point x="75" y="-185" type="curve"/>
      <point x="80" y="-113"/>
      <point x="92" y="-6"/>
      <point x="95" y="41" type="curve"/>
      <point x="166" y="300" type="line"/>
      <point x="157" y="307"/>
      <point x="144" y="311"/>
      <point x="130" y="311" type="curve" smooth="yes"/>
      <point x="109" y="311"/>
      <point x="85" y="308"/>
      <point x="63" y="297" type="curve"/>
    </contour>
  </outline>
</glyph>
<glyph name="guillemotleft" format="1">
  <advance width="535"/>
  <unicode hex="00AB"/>
  <outline>
    <contour>
      <point x="255" y="220" type="curve"/>
      <point x="174" y="293" type="line"/>
      <point x="116" y="359" type="line"/>
      <point x="279" y="477" type="line"/>
      <point x="305" y="518"/>
      <point x="298" y="548"/>
      <point x="269" y="558" type="curve"/>
      <point x="171" y="477" type="line"/>
      <point x="68" y="389" type="line"/>
      <point x="62" y="378"/>
      <point x="59" y="365"/>
      <point x="59" y="354" type="curve"/>
      <point x="216" y="147" type="line"/>
      <point x="241" y="147"/>
      <point x="264" y="184"/>
    </contour>
    <contour>
      <point x="449" y="220" type="curve"/>
      <point x="368" y="293" type="line"/>
      <point x="310" y="359" type="line"/>
      <point x="490" y="477" type="line"/>
      <point x="516" y="518"/>
      <point x="510" y="548"/>
      <point x="481" y="558" type="curve"/>
      <point x="382" y="477" type="line"/>
      <point x="262" y="389" type="line"/>
      <point x="256" y="378"/>
      <point x="254" y="365"/>
      <point x="254" y="354" type="curve"/>
      <point x="410" y="147" type="line"/>
      <point x="435" y="147"/>
      <point x="458" y="184"/>
    </contour>
  </outline>
</glyph>
<glyph name="logicalnot" format="1">
  <advance width="893"/>
  <unicode hex="00AC"/>
  <outline>
    <contour>
      <point x="457" y="397" type="line"/>
      <point x="89" y="402" type="line"/>
      <point x="68" y="376"/>
      <point x="64" y="350"/>
      <point x="78" y="336" type="curve"/>
      <point x="793" y="343" type="line"/>
      <point x="756" y="178" type="line"/>
      <point x="778" y="158"/>
      <point x="804" y="153"/>
      <point x="820" y="167" type="curve"/>
      <point x="858" y="372" type="line" smooth="yes"/>
      <point x="862" y="393"/>
      <point x="859" y="406"/>
      <point x="849" y="413" type="curve"/>
    </contour>
  </outline>
</glyph>
<glyph name="registered" format="1">
  <advance width="471"/>
  <unicode hex="00AE"/>
  <outline>
    <contour>
      <point x="262" y="517" type="line"/>
      <point x="268" y="472"/>
      <point x="294" y="426"/>
      <point x="342" y="394" type="curve"/>
      <point x="361" y="399"/>
      <point x="371" y="412"/>
      <point x="365" y="423" type="curve"/>
      <point x="314" y="445"/>
      <point x="293" y="469"/>
      <point x="277" y="522" type="curve"/>
    </contour>
    <contour>
      <point x="321" y="517" type="curve"/>
      <point x="362" y="539"/>
      <point x="379" y="561"/>
      <point x="379" y="597" type="curve"/>
      <point x="379" y="629"/>
      <point x="351" y="661"/>
      <point x="287" y="661" type="curve"/>
      <point x="264" y="661"/>
      <point x="249" y="659"/>
      <point x="231" y="656" type="curve"/>
      <point x="226" y="653"/>
      <point x="224" y="642"/>
      <point x="229" y="633" type="curve"/>
      <point x="250" y="633" type="line"/>
      <point x="239" y="558" type="line"/>
      <point x="231" y="514"/>
      <point x="223" y="463"/>
      <point x="206" y="405" type="curve"/>
      <point x="214" y="396"/>
      <point x="229" y="393"/>
      <point x="240" y="396" type="curve"/>
      <point x="250" y="458"/>
      <point x="255" y="499"/>
      <point x="258" y="544" type="curve"/>
      <point x="282" y="649" type="line"/>
      <point x="261" y="634" type="line"/>
      <point x="323" y="646"/>
      <point x="346" y="623"/>
      <point x="346" y="596" type="curve"/>
      <point x="346" y="568"/>
      <point x="336" y="554"/>
      <point x="313" y="538" type="curve"/>
      <point x="289" y="532"/>
      <point x="274" y="530"/>
      <point x="250" y="530" type="curve"/>
      <point x="251" y="511" type="line"/>
      <point x="284" y="512"/>
      <point x="292" y="513"/>
    </contour>
    <contour>
      <point x="84" y="525" type="curve"/>
      <point x="86" y="429"/>
      <point x="130" y="334"/>
      <point x="253" y="309" type="curve"/>
      <point x="400" y="323"/>
      <point x="465" y="421"/>
      <point x="483" y="519" type="curve"/>
      <point x="476" y="632"/>
      <point x="449" y="715"/>
      <point x="308" y="739" type="curve"/>
      <point x="164" y="720"/>
      <point x="103" y="626"/>
    </contour>
    <contour>
      <point x="451" y="518" type="curve"/>
      <point x="436" y="436"/>
      <point x="386" y="347"/>
      <point x="256" y="334" type="curve"/>
      <point x="164" y="365"/>
      <point x="127" y="423"/>
      <point x="116" y="524" type="curve"/>
      <point x="129" y="609"/>
      <point x="189" y="696"/>
      <point x="305" y="715" type="curve"/>
      <point x="425" y="683"/>
      <point x="443" y="616"/>
    </contour>
  </outline>
</glyph>
<glyph name="macron" format="1">
  <advance width="335"/>
  <unicode hex="00AF"/>
  <outline>
    <contour>
      <point x="249" y="594" type="move" name="_top"/>
    </contour>
    <contour>
      <point x="384" y="680" type="curve"/>
      <point x="246" y="665" type="line"/>
      <point x="94" y="670" type="line"/>
      <point x="73" y="644"/>
      <point x="69" y="625"/>
      <point x="83" y="611" type="curve"/>
      <point x="369" y="619" type="line"/>
      <point x="395" y="648"/>
      <point x="400" y="671"/>
    </contour>
  </outline>
</glyph>
<glyph name="degree" format="1">
  <advance width="405"/>
  <unicode hex="00B0"/>
  <outline>
    <contour>
      <point x="289" y="757" type="curve" smooth="yes"/>
      <point x="216" y="757"/>
      <point x="108" y="647"/>
      <point x="108" y="567" type="curve" smooth="yes"/>
      <point x="108" y="491"/>
      <point x="181" y="432"/>
      <point x="222" y="432" type="curve"/>
      <point x="296" y="432"/>
      <point x="410" y="534"/>
      <point x="409" y="606" type="curve" smooth="yes"/>
      <point x="407" y="660"/>
      <point x="338" y="757"/>
    </contour>
    <contour>
      <point x="278" y="719" type="curve"/>
      <point x="310" y="689"/>
      <point x="333" y="642"/>
      <point x="338" y="603" type="curve"/>
      <point x="326" y="537"/>
      <point x="296" y="495"/>
      <point x="231" y="464" type="curve"/>
      <point x="199" y="495"/>
      <point x="184" y="527"/>
      <point x="180" y="579" type="curve"/>
      <point x="192" y="637"/>
      <point x="217" y="684"/>
    </contour>
  </outline>
</glyph>
<glyph name="paragraph" format="1">
  <advance width="594"/>
  <unicode hex="00B6"/>
  <outline>
    <contour>
      <point x="527" y="734" type="line"/>
      <point x="288" y="737"/>
      <point x="103" y="701"/>
      <point x="80" y="502" type="curve" smooth="yes"/>
      <point x="68" y="388"/>
      <point x="164" y="335"/>
      <point x="341" y="323" type="curve"/>
      <point x="305" y="375" type="line"/>
      <point x="278" y="256"/>
      <point x="249" y="138"/>
      <point x="222" y="19" type="curve"/>
      <point x="253" y="-3"/>
      <point x="287" y="-8"/>
      <point x="309" y="0" type="curve"/>
      <point x="341" y="247" type="line"/>
      <point x="441" y="675" type="line"/>
      <point x="463" y="680"/>
      <point x="491" y="680"/>
      <point x="515" y="679" type="curve"/>
      <point x="458" y="368" type="line"/>
      <point x="376" y="19" type="line"/>
      <point x="406" y="-3"/>
      <point x="441" y="-8"/>
      <point x="462" y="0" type="curve"/>
      <point x="473" y="82"/>
      <point x="484" y="165"/>
      <point x="495" y="247" type="curve"/>
      <point x="565" y="618" type="line"/>
      <point x="646" y="810" type="line"/>
      <point x="616" y="833"/>
      <point x="590" y="837"/>
      <point x="548" y="829" type="curve"/>
    </contour>
  </outline>
</glyph>
<glyph name="cedilla" format="1">
  <advance width="311"/>
  <unicode hex="00B8"/>
  <outline>
    <contour>
      <point x="127" y="0" type="move" name="_bottom"/>
    </contour>
    <contour>
      <point x="81" y="19" type="line"/>
      <point x="25" y="-100" type="line"/>
      <point x="32" y="-122"/>
      <point x="53" y="-127"/>
      <point x="70" y="-127" type="curve"/>
      <point x="90" y="-110"/>
      <point x="110" y="-100"/>
      <point x="135" y="-97" type="curve"/>
      <point x="141" y="-106"/>
      <point x="147" y="-121"/>
      <point x="143" y="-140" type="curve" smooth="yes"/>
      <point x="135" y="-172"/>
      <point x="108" y="-188"/>
      <point x="69" y="-188" type="curve" smooth="yes"/>
      <point x="26" y="-188"/>
      <point x="-10" y="-168"/>
      <point x="-44" y="-134" type="curve"/>
      <point x="-56" y="-135"/>
      <point x="-65" y="-151"/>
      <point x="-66" y="-171" type="curve"/>
      <point x="-31" y="-215"/>
      <point x="30" y="-240"/>
      <point x="89" y="-240" type="curve" smooth="yes"/>
      <point x="160" y="-240"/>
      <point x="213" y="-203"/>
      <point x="225" y="-144" type="curve" smooth="yes"/>
      <point x="235" y="-87"/>
      <point x="205" y="-51"/>
      <point x="162" y="-51" type="curve" smooth="yes"/>
      <point x="135" y="-51"/>
      <point x="112" y="-62"/>
      <point x="92" y="-81" type="curve"/>
      <point x="144" y="19" type="line"/>
    </contour>
  </outline>
</glyph>
<glyph name="guillemotright" format="1">
  <advance width="535"/>
  <unicode hex="00BB"/>
  <outline>
    <contour>
      <point x="309" y="485" type="curve"/>
      <point x="390" y="413" type="line"/>
      <point x="448" y="347" type="line"/>
      <point x="285" y="228" type="line"/>
      <point x="259" y="187"/>
      <point x="266" y="158"/>
      <point x="295" y="147" type="curve"/>
      <point x="393" y="228" type="line"/>
      <point x="496" y="316" type="line"/>
      <point x="502" y="327"/>
      <point x="504" y="340"/>
      <point x="504" y="351" type="curve"/>
      <point x="348" y="558" type="line"/>
      <point x="323" y="558"/>
      <point x="300" y="522"/>
    </contour>
    <contour>
      <point x="114" y="485" type="curve"/>
      <point x="195" y="413" type="line"/>
      <point x="254" y="347" type="line"/>
      <point x="73" y="228" type="line"/>
      <point x="48" y="187"/>
      <point x="54" y="158"/>
      <point x="83" y="147" type="curve"/>
      <point x="181" y="228" type="line"/>
      <point x="301" y="316" type="line"/>
      <point x="308" y="327"/>
      <point x="310" y="340"/>
      <point x="310" y="351" type="curve"/>
      <point x="153" y="558" type="line"/>
      <point x="129" y="558"/>
      <point x="106" y="522"/>
    </contour>
  </outline>
</glyph>
<glyph name="onequarter" format="1">
  <advance width="673"/>
  <unicode hex="00BC"/>
  <outline>
    <contour>
      <point x="599" y="383" type="line"/>
      <point x="583" y="403"/>
      <point x="559" y="408"/>
      <point x="515" y="408" type="curve" smooth="yes"/>
      <point x="508" y="408"/>
      <point x="500" y="407"/>
      <point x="491" y="406" type="curve"/>
      <point x="291" y="136" type="line"/>
      <point x="293" y="122"/>
      <point x="325" y="111"/>
      <point x="336" y="105" type="curve"/>
      <point x="451" y="108" type="line"/>
      <point x="589" y="103" type="line"/>
      <point x="600" y="114"/>
      <point x="611" y="144"/>
      <point x="606" y="157" type="curve"/>
      <point x="406" y="150" type="line"/>
      <point x="365" y="148" type="line"/>
      <point x="460" y="275" type="line"/>
      <point x="529" y="374" type="line"/>
      <point x="537" y="372" type="line"/>
      <point x="499" y="231" type="line"/>
      <point x="447" y="6" type="line"/>
      <point x="464" y="-4"/>
      <point x="496" y="-8"/>
      <point x="514" y="-4" type="curve"/>
      <point x="522" y="95" type="line"/>
      <point x="565" y="292" type="line"/>
    </contour>
    <component base="onesuperior" xOffset="32"/>
    <component base="fraction" xOffset="53"/>
  </outline>
</glyph>
<glyph name="threequarters" format="1">
  <advance width="648"/>
  <unicode hex="00BE"/>
  <outline>
    <contour>
      <point x="647" y="383" type="line"/>
      <point x="631" y="403"/>
      <point x="607" y="408"/>
      <point x="563" y="408" type="curve" smooth="yes"/>
      <point x="555" y="408"/>
      <point x="548" y="407"/>
      <point x="539" y="406" type="curve"/>
      <point x="338" y="136" type="line"/>
      <point x="340" y="122"/>
      <point x="373" y="111"/>
      <point x="383" y="105" type="curve"/>
      <point x="499" y="108" type="line"/>
      <point x="636" y="103" type="line"/>
      <point x="648" y="114"/>
      <point x="659" y="144"/>
      <point x="653" y="157" type="curve"/>
      <point x="454" y="150" type="line"/>
      <point x="413" y="148" type="line"/>
      <point x="508" y="275" type="line"/>
      <point x="577" y="374" type="line"/>
      <point x="584" y="372" type="line"/>
      <point x="546" y="231" type="line"/>
      <point x="495" y="6" type="line"/>
      <point x="512" y="-4"/>
      <point x="543" y="-8"/>
      <point x="562" y="-4" type="curve"/>
      <point x="569" y="95" type="line"/>
      <point x="612" y="292" type="line"/>
    </contour>
    <component base="threesuperior"/>
    <component base="fraction" xOffset="100"/>
  </outline>
</glyph>
<glyph name="multiply" format="1">
  <advance width="648"/>
  <unicode hex="00D7"/>
  <outline>
    <contour>
      <point x="468" y="118" type="line"/>
      <point x="491" y="107"/>
      <point x="515" y="122"/>
      <point x="527" y="158" type="curve"/>
      <point x="341" y="351" type="line"/>
      <point x="186" y="583" type="line"/>
      <point x="157" y="583"/>
      <point x="131" y="567"/>
      <point x="134" y="532" type="curve"/>
    </contour>
    <contour>
      <point x="332" y="354" type="line"/>
      <point x="83" y="160" type="line"/>
      <point x="84" y="136"/>
      <point x="99" y="119"/>
      <point x="131" y="114" type="curve"/>
      <point x="584" y="537" type="line"/>
      <point x="589" y="571"/>
      <point x="564" y="584"/>
      <point x="536" y="584" type="curve"/>
    </contour>
  </outline>
</glyph>
<glyph name="ae" format="1">
  <advance width="788"/>
  <unicode hex="00E6"/>
  <outline>
    <contour>
      <point x="531" y="58" type="curve"/>
      <point x="450" y="87"/>
      <point x="418" y="139"/>
      <point x="409" y="210" type="curve"/>
      <point x="518" y="232"/>
      <point x="622" y="267"/>
      <point x="735" y="321" type="curve"/>
      <point x="742" y="423"/>
      <point x="706" y="516"/>
      <point x="592" y="548" type="curve"/>
      <point x="543" y="535"/>
      <point x="483" y="495"/>
      <point x="451" y="459" type="curve"/>
      <point x="482" y="524" type="line"/>
      <point x="468" y="546"/>
      <point x="441" y="549"/>
      <point x="407" y="546" type="curve"/>
      <point x="399" y="526"/>
      <point x="393" y="497"/>
      <point x="390" y="444" type="curve"/>
      <point x="366" y="486"/>
      <point x="329" y="524"/>
      <point x="291" y="540" type="curve"/>
      <point x="159" y="540"/>
      <point x="27" y="346"/>
      <point x="30" y="175" type="curve" smooth="yes"/>
      <point x="31" y="80"/>
      <point x="85" y="15"/>
      <point x="190" y="13" type="curve"/>
      <point x="233" y="64"/>
      <point x="281" y="116"/>
      <point x="321" y="163" type="curve"/>
      <point x="332" y="154" type="line"/>
      <point x="287" y="29" type="line"/>
      <point x="308" y="6"/>
      <point x="322" y="-5"/>
      <point x="365" y="0" type="curve"/>
      <point x="381" y="106" type="line"/>
      <point x="406" y="59"/>
      <point x="456" y="19"/>
      <point x="522" y="0" type="curve"/>
      <point x="590" y="11"/>
      <point x="694" y="69"/>
      <point x="730" y="109" type="curve"/>
      <point x="732" y="139"/>
      <point x="728" y="151"/>
      <point x="700" y="151" type="curve"/>
      <point x="664" y="112"/>
      <point x="595" y="82"/>
    </contour>
    <contour>
      <point x="590" y="494" type="line"/>
      <point x="651" y="458"/>
      <point x="661" y="414"/>
      <point x="662" y="348" type="curve"/>
      <point x="582" y="310"/>
      <point x="501" y="283"/>
      <point x="408" y="260" type="curve"/>
      <point x="410" y="349"/>
      <point x="485" y="446"/>
      <point x="576" y="491" type="curve"/>
    </contour>
    <contour>
      <point x="287" y="487" type="curve"/>
      <point x="332" y="457"/>
      <point x="351" y="432"/>
      <point x="372" y="389" type="curve"/>
      <point x="361" y="357"/>
      <point x="341" y="292"/>
      <point x="338" y="242" type="curve"/>
      <point x="282" y="189"/>
      <point x="225" y="134"/>
      <point x="162" y="72" type="curve"/>
      <point x="118" y="98"/>
      <point x="106" y="132"/>
      <point x="106" y="181" type="curve" smooth="yes"/>
      <point x="106" y="319"/>
      <point x="171" y="440"/>
    </contour>
  </outline>
</glyph>
<glyph name="eth" format="1">
  <advance width="456"/>
  <unicode hex="00F0"/>
  <outline>
    <contour>
      <point x="222" y="769" type="curve"/>
      <point x="311" y="662" type="line"/>
      <point x="376" y="490"/>
      <point x="402" y="195"/>
      <point x="202" y="55" type="curve"/>
      <point x="137" y="83"/>
      <point x="103" y="139"/>
      <point x="103" y="217" type="curve" smooth="yes"/>
      <point x="103" y="319"/>
      <point x="146" y="416"/>
      <point x="247" y="474" type="curve"/>
      <point x="307" y="442"/>
      <point x="330" y="400"/>
      <point x="359" y="345" type="curve"/>
      <point x="384" y="365" type="line"/>
      <point x="357" y="432"/>
      <point x="340" y="482"/>
      <point x="259" y="536" type="curve"/>
      <point x="108" y="480"/>
      <point x="32" y="342"/>
      <point x="32" y="218" type="curve" smooth="yes"/>
      <point x="32" y="112"/>
      <point x="89" y="23"/>
      <point x="207" y="0" type="curve"/>
      <point x="359" y="73"/>
      <point x="414" y="243"/>
      <point x="414" y="408" type="curve" smooth="yes"/>
      <point x="414" y="556"/>
      <point x="366" y="708"/>
      <point x="284" y="801" type="curve"/>
      <point x="248" y="804"/>
      <point x="234" y="797"/>
    </contour>
    <contour>
      <point x="450" y="744" type="curve"/>
      <point x="309" y="685" type="line"/>
      <point x="166" y="660" type="line"/>
      <point x="150" y="645"/>
      <point x="159" y="615"/>
      <point x="190" y="604" type="curve"/>
      <point x="341" y="653" type="line"/>
      <point x="474" y="691" type="line"/>
      <point x="490" y="716"/>
      <point x="471" y="741"/>
    </contour>
  </outline>
</glyph>
<glyph name="divide" format="1">
  <advance width="680"/>
  <unicode hex="00F7"/>
  <outline>
    <contour>
      <point x="652" y="367" type="curve"/>
      <point x="352" y="352" type="line"/>
      <point x="59" y="356" type="line"/>
      <point x="39" y="330"/>
      <point x="35" y="305"/>
      <point x="49" y="291" type="curve"/>
      <point x="637" y="298" type="line"/>
      <point x="663" y="327"/>
      <point x="667" y="357"/>
    </contour>
    <contour>
      <point x="303" y="97" type="curve"/>
      <point x="333" y="97"/>
      <point x="374" y="122"/>
      <point x="393" y="152" type="curve"/>
      <point x="387" y="185"/>
      <point x="354" y="221"/>
      <point x="330" y="221" type="curve"/>
      <point x="297" y="217"/>
      <point x="260" y="175"/>
      <point x="257" y="139" type="curve"/>
      <point x="261" y="114"/>
      <point x="281" y="97"/>
    </contour>
    <contour>
      <point x="357" y="432" type="curve"/>
      <point x="387" y="432"/>
      <point x="428" y="457"/>
      <point x="447" y="487" type="curve"/>
      <point x="441" y="519"/>
      <point x="408" y="556"/>
      <point x="384" y="556" type="curve"/>
      <point x="351" y="552"/>
      <point x="314" y="510"/>
      <point x="311" y="474" type="curve"/>
      <point x="315" y="449"/>
      <point x="335" y="432"/>
    </contour>
  </outline>
</glyph>
<glyph name="thorn" format="1">
  <advance width="491"/>
  <unicode hex="00FE"/>
  <outline>
    <contour>
      <point x="145" y="393" type="line"/>
      <point x="174" y="447" type="line"/>
      <point x="198" y="576" type="line"/>
      <point x="255" y="804" type="line"/>
      <point x="221" y="822"/>
      <point x="194" y="814"/>
      <point x="150" y="787" type="curve"/>
      <point x="132" y="540" type="line"/>
      <point x="82" y="219"/>
      <point x="51" y="59"/>
      <point x="-23" y="-245" type="curve"/>
      <point x="-8" y="-267"/>
      <point x="17" y="-273"/>
      <point x="63" y="-269" type="curve"/>
      <point x="110" y="-67"/>
      <point x="127" y="150"/>
      <point x="165" y="372" type="curve" smooth="yes"/>
    </contour>
    <contour>
      <point x="94" y="0" type="line"/>
      <point x="305" y="24"/>
      <point x="431" y="150"/>
      <point x="473" y="326" type="curve"/>
      <point x="449" y="432"/>
      <point x="418" y="498"/>
      <point x="302" y="540" type="curve"/>
      <point x="245" y="487"/>
      <point x="179" y="416"/>
      <point x="125" y="336" type="curve"/>
      <point x="151" y="302" type="line"/>
      <point x="204" y="374"/>
      <point x="258" y="427"/>
      <point x="302" y="469" type="curve"/>
      <point x="364" y="442"/>
      <point x="390" y="401"/>
      <point x="402" y="328" type="curve"/>
      <point x="378" y="202"/>
      <point x="274" y="83"/>
      <point x="91" y="56" type="curve"/>
    </contour>
  </outline>
</glyph>
<glyph name="Aogonek" format="1">
  <advance width="567"/>
  <unicode hex="0104"/>
  <outline>
    <contour>
      <point x="462" y="-1" type="curve"/>
      <point x="462" y="13"/>
      <point x="451" y="20"/>
      <point x="429" y="23" type="curve"/>
      <point x="373" y="4"/>
      <point x="293" y="-51"/>
      <point x="293" y="-118" type="curve" smooth="yes"/>
      <point x="293" y="-160"/>
      <point x="353" y="-198"/>
      <point x="414" y="-198" type="curve" smooth="yes"/>
      <point x="468" y="-198"/>
      <point x="513" y="-171"/>
      <point x="545" y="-137" type="curve"/>
      <point x="541" y="-119"/>
      <point x="532" y="-113"/>
      <point x="518" y="-112" type="curve"/>
      <point x="491" y="-135"/>
      <point x="455" y="-147"/>
      <point x="420" y="-147" type="curve" smooth="yes"/>
      <point x="383" y="-147"/>
      <point x="356" y="-132"/>
      <point x="345" y="-110" type="curve"/>
      <point x="356" y="-65"/>
      <point x="400" y="-14"/>
    </contour>
    <component base="A"/>
  </outline>
</glyph>
<glyph name="aogonek" format="1">
  <advance width="496"/>
  <unicode hex="0105"/>
  <outline>
    <contour>
      <point x="389" y="0" type="curve"/>
      <point x="390" y="15"/>
      <point x="378" y="32"/>
      <point x="364" y="32" type="curve"/>
      <point x="273" y="11"/>
      <point x="204" y="-59"/>
      <point x="204" y="-117" type="curve" smooth="yes"/>
      <point x="204" y="-162"/>
      <point x="248" y="-198"/>
      <point x="317" y="-198" type="curve" smooth="yes"/>
      <point x="365" y="-198"/>
      <point x="409" y="-180"/>
      <point x="443" y="-137" type="curve"/>
      <point x="439" y="-119"/>
      <point x="430" y="-113"/>
      <point x="416" y="-112" type="curve"/>
      <point x="375" y="-156"/>
      <point x="299" y="-160"/>
      <point x="256" y="-128" type="curve"/>
      <point x="272" y="-58"/>
      <point x="320" y="-18"/>
    </contour>
    <component base="a"/>
  </outline>
</glyph>
<glyph name="Iogonek" format="1">
  <advance width="225"/>
  <unicode hex="012E"/>
  <outline>
    <contour>
      <point x="118" y="0" type="curve"/>
      <point x="118" y="15"/>
      <point x="107" y="23"/>
      <point x="89" y="23" type="curve"/>
      <point x="5" y="-3"/>
      <point x="-40" y="-62"/>
      <point x="-40" y="-112" type="curve" smooth="yes"/>
      <point x="-40" y="-158"/>
      <point x="-1" y="-198"/>
      <point x="81" y="-198" type="curve" smooth="yes"/>
      <point x="135" y="-198"/>
      <point x="180" y="-171"/>
      <point x="212" y="-137" type="curve"/>
      <point x="208" y="-119"/>
      <point x="199" y="-113"/>
      <point x="185" y="-112" type="curve"/>
      <point x="159" y="-137"/>
      <point x="120" y="-151"/>
      <point x="83" y="-151" type="curve" smooth="yes"/>
      <point x="56" y="-151"/>
      <point x="29" y="-143"/>
      <point x="11" y="-125" type="curve"/>
      <point x="12" y="-65"/>
      <point x="64" y="-22"/>
    </contour>
    <component base="I"/>
  </outline>
</glyph>
<glyph name="Ncommaaccent" format="1">
  <advance width="626"/>
  <unicode hex="0145"/>
  <outline>
    <contour>
      <point x="221" y="-245" type="curve"/>
      <point x="263" y="-207"/>
      <point x="318" y="-136"/>
      <point x="325" y="-70" type="curve"/>
      <point x="309" y="-26"/>
      <point x="262" y="-2"/>
      <point x="220" y="-36" type="curve"/>
      <point x="243" y="-148" type="line"/>
      <point x="189" y="-231" type="line"/>
      <point x="196" y="-242"/>
      <point x="210" y="-246"/>
    </contour>
    <component base="N"/>
  </outline>
</glyph>
<glyph name="oe" format="1">
  <advance width="823"/>
  <unicode hex="0153"/>
  <outline>
    <contour>
      <point x="704" y="348" type="curve"/>
      <point x="703" y="414"/>
      <point x="693" y="458"/>
      <point x="632" y="494" type="curve"/>
      <point x="618" y="491" type="line"/>
      <point x="529" y="447"/>
      <point x="453" y="347"/>
      <point x="450" y="267" type="curve" smooth="yes"/>
      <point x="446" y="167"/>
      <point x="471" y="97"/>
      <point x="569" y="58" type="curve"/>
      <point x="637" y="82"/>
      <point x="706" y="112"/>
      <point x="742" y="151" type="curve"/>
      <point x="770" y="151"/>
      <point x="774" y="139"/>
      <point x="772" y="109" type="curve"/>
      <point x="737" y="69"/>
      <point x="632" y="11"/>
      <point x="564" y="0" type="curve"/>
      <point x="437" y="53"/>
      <point x="384" y="146"/>
      <point x="384" y="246" type="curve" smooth="yes"/>
      <point x="384" y="292"/>
      <point x="395" y="339"/>
      <point x="416" y="384" type="curve"/>
      <point x="453" y="434"/>
      <point x="532" y="522"/>
      <point x="634" y="548" type="curve"/>
      <point x="748" y="516"/>
      <point x="784" y="423"/>
      <point x="778" y="321" type="curve"/>
      <point x="659" y="264"/>
      <point x="550" y="229"/>
      <point x="435" y="206" type="curve"/>
      <point x="426" y="254" type="line"/>
      <point x="529" y="279"/>
      <point x="618" y="307"/>
    </contour>
    <component base="o"/>
  </outline>
</glyph>
<glyph name="tcaron" format="1">
  <advance width="372"/>
  <unicode hex="0165"/>
  <outline>
    <contour>
      <point x="327" y="552" type="curve"/>
      <point x="369" y="590"/>
      <point x="424" y="661"/>
      <point x="431" y="727" type="curve"/>
      <point x="415" y="771"/>
      <point x="368" y="795"/>
      <point x="326" y="761" type="curve"/>
      <point x="349" y="649" type="line"/>
      <point x="295" y="566" type="line"/>
      <point x="302" y="555"/>
      <point x="316" y="551"/>
    </contour>
    <contour>
      <point x="191" y="485" type="line"/>
      <point x="42" y="484" type="line"/>
      <point x="24" y="462"/>
      <point x="23" y="435"/>
      <point x="40" y="414" type="curve"/>
      <point x="215" y="447" type="line"/>
      <point x="382" y="452" type="line"/>
      <point x="403" y="482"/>
      <point x="402" y="512"/>
      <point x="384" y="523" type="curve"/>
    </contour>
    <contour>
      <point x="167" y="36" type="line"/>
      <point x="189" y="230"/>
      <point x="208" y="376"/>
      <point x="222" y="521" type="curve"/>
      <point x="271" y="679" type="line"/>
      <point x="239" y="703"/>
      <point x="210" y="696"/>
      <point x="171" y="669" type="curve"/>
      <point x="172" y="510" type="line"/>
      <point x="141" y="333"/>
      <point x="117" y="235"/>
      <point x="76" y="52" type="curve"/>
      <point x="81" y="31"/>
      <point x="98" y="10"/>
      <point x="146" y="0" type="curve"/>
      <point x="206" y="13"/>
      <point x="289" y="48"/>
      <point x="333" y="87" type="curve"/>
      <point x="335" y="110"/>
      <point x="334" y="127"/>
      <point x="300" y="125" type="curve"/>
      <point x="253" y="92"/>
      <point x="201" y="73"/>
      <point x="132" y="57" type="curve"/>
    </contour>
  </outline>
</glyph>
<glyph name="Uogonek" format="1">
  <advance width="570"/>
  <unicode hex="0172"/>
  <outline>
    <contour>
      <point x="284" y="2" type="curve"/>
      <point x="281" y="17"/>
      <point x="269" y="25"/>
      <point x="251" y="25" type="curve"/>
      <point x="164" y="-6"/>
      <point x="122" y="-62"/>
      <point x="122" y="-109" type="curve" smooth="yes"/>
      <point x="122" y="-158"/>
      <point x="165" y="-198"/>
      <point x="247" y="-198" type="curve" smooth="yes"/>
      <point x="301" y="-198"/>
      <point x="346" y="-171"/>
      <point x="378" y="-137" type="curve"/>
      <point x="374" y="-119"/>
      <point x="365" y="-113"/>
      <point x="351" y="-112" type="curve"/>
      <point x="321" y="-137"/>
      <point x="285" y="-151"/>
      <point x="251" y="-151" type="curve" smooth="yes"/>
      <point x="221" y="-151"/>
      <point x="194" y="-141"/>
      <point x="172" y="-119" type="curve"/>
      <point x="183" y="-63"/>
      <point x="225" y="-22"/>
    </contour>
    <component base="U"/>
  </outline>
</glyph>
<glyph name="Tcommaaccent" format="1">
  <advance width="537"/>
  <unicode hex="021A"/>
  <outline>
    <contour>
      <point x="161" y="-245" type="curve"/>
      <point x="203" y="-207"/>
      <point x="258" y="-136"/>
      <point x="265" y="-70" type="curve"/>
      <point x="249" y="-26"/>
      <point x="202" y="-2"/>
      <point x="160" y="-36" type="curve"/>
      <point x="183" y="-148" type="line"/>
      <point x="129" y="-231" type="line"/>
      <point x="136" y="-242"/>
      <point x="150" y="-246"/>
    </contour>
    <component base="T"/>
  </outline>
</glyph>
<glyph name="dotaccent" format="1">
  <advance width="118"/>
  <unicode hex="02D9"/>
  <outline>
    <contour>
      <point x="118" y="594" type="move" name="_top"/>
    </contour>
    <contour>
      <point x="127" y="609" type="curve" smooth="yes"/>
      <point x="153" y="609"/>
      <point x="174" y="631"/>
      <point x="174" y="656" type="curve" smooth="yes"/>
      <point x="174" y="683"/>
      <point x="153" y="703"/>
      <point x="127" y="703" type="curve" smooth="yes"/>
      <point x="100" y="703"/>
      <point x="80" y="683"/>
      <point x="80" y="656" type="curve" smooth="yes"/>
      <point x="80" y="631"/>
      <point x="100" y="609"/>
    </contour>
  </outline>
</glyph>
<glyph name="quoteleft" format="1">
  <advance width="284"/>
  <unicode hex="2018"/>
  <outline>
    <contour>
      <point x="257" y="901" type="curve"/>
      <point x="208" y="847"/>
      <point x="154" y="765"/>
      <point x="168" y="678" type="curve"/>
      <point x="194" y="649"/>
      <point x="247" y="657"/>
      <point x="274" y="699" type="curve"/>
      <point x="245" y="792" type="line"/>
      <point x="296" y="886" type="line"/>
      <point x="286" y="897"/>
      <point x="270" y="902"/>
    </contour>
  </outline>
</glyph>
<glyph name="bullet" format="1">
  <advance width="336"/>
  <unicode hex="2022"/>
  <outline>
    <contour>
      <point x="145" y="271" type="curve" smooth="yes"/>
      <point x="199" y="271"/>
      <point x="275" y="316"/>
      <point x="311" y="373" type="curve" smooth="yes"/>
      <point x="299" y="433"/>
      <point x="239" y="501"/>
      <point x="194" y="501" type="curve" smooth="yes"/>
      <point x="133" y="494"/>
      <point x="64" y="415"/>
      <point x="58" y="349" type="curve" smooth="yes"/>
      <point x="66" y="302"/>
      <point x="103" y="271"/>
    </contour>
  </outline>
</glyph>
<glyph name="guilsinglright" format="1">
  <advance width="340"/>
  <unicode hex="203A"/>
  <outline>
    <contour>
      <point x="114" y="485" type="curve"/>
      <point x="195" y="413" type="line"/>
      <point x="254" y="347" type="line"/>
      <point x="73" y="228" type="line"/>
      <point x="48" y="187"/>
      <point x="54" y="158"/>
      <point x="83" y="147" type="curve"/>
      <point x="181" y="228" type="line"/>
      <point x="301" y="316" type="line"/>
      <point x="308" y="327"/>
      <point x="310" y="340"/>
      <point x="310" y="351" type="curve"/>
      <point x="153" y="558" type="line"/>
      <point x="129" y="558"/>
      <point x="106" y="522"/>
    </contour>
  </outline>
</glyph>
<glyph name="fraction" format="1">
  <advance width="457"/>
  <unicode hex="2044"/>
  <outline>
    <contour>
      <point x="241" y="377" type="line"/>
      <point x="-26" y="-62" type="line"/>
      <point x="-12" y="-81"/>
      <point x="11" y="-86"/>
      <point x="42" y="-80" type="curve"/>
      <point x="544" y="809" type="line"/>
      <point x="532" y="828"/>
      <point x="503" y="835"/>
      <point x="468" y="831" type="curve"/>
    </contour>
  </outline>
</glyph>
<glyph name="ruble" format="1">
  <advance width="532"/>
  <unicode hex="20BD"/>
  <outline>
    <contour>
      <point x="372" y="340" type="curve"/>
      <point x="482" y="400"/>
      <point x="531" y="460"/>
      <point x="531" y="561" type="curve" smooth="yes"/>
      <point x="531" y="649"/>
      <point x="457" y="737"/>
      <point x="280" y="737" type="curve" smooth="yes"/>
      <point x="217" y="737"/>
      <point x="174" y="731"/>
      <point x="131" y="721" type="curve"/>
      <point x="114" y="714"/>
      <point x="110" y="688"/>
      <point x="125" y="663" type="curve"/>
      <point x="176" y="666" type="line"/>
      <point x="147" y="455" type="line"/>
      <point x="124" y="329"/>
      <point x="102" y="188"/>
      <point x="55" y="25" type="curve"/>
      <point x="77" y="2"/>
      <point x="124" y="-5"/>
      <point x="150" y="3" type="curve"/>
      <point x="179" y="179"/>
      <point x="192" y="296"/>
      <point x="200" y="413" type="curve"/>
      <point x="265" y="698" type="line"/>
      <point x="204" y="669" type="line"/>
      <point x="382" y="703"/>
      <point x="449" y="634"/>
      <point x="449" y="556" type="curve" smooth="yes"/>
      <point x="449" y="478"/>
      <point x="423" y="438"/>
      <point x="354" y="392" type="curve"/>
      <point x="272" y="364"/>
      <point x="114" y="353"/>
      <point x="34" y="352" type="curve"/>
      <point x="25" y="339"/>
      <point x="25" y="324"/>
      <point x="39" y="309" type="curve"/>
      <point x="140" y="311"/>
      <point x="274" y="318"/>
    </contour>
    <contour>
      <point x="378" y="238" type="curve"/>
      <point x="175" y="215" type="line"/>
      <point x="-10" y="212" type="line"/>
      <point x="-29" y="185"/>
      <point x="-22" y="171"/>
      <point x="-7" y="158" type="curve"/>
      <point x="376" y="180" type="line"/>
      <point x="401" y="210"/>
      <point x="393" y="229"/>
    </contour>
  </outline>
</glyph>
<glyph name="estimated" format="1">
  <advance width="604"/>
  <unicode hex="212E"/>
  <outline>
    <contour>
      <point x="556" y="118" type="curve"/>
      <point x="527" y="149" type="line"/>
      <point x="459" y="82"/>
      <point x="399" y="41"/>
      <point x="314" y="41" type="curve" smooth="yes"/>
      <point x="230" y="41"/>
      <point x="177" y="70"/>
      <point x="135" y="128" type="curve"/>
      <point x="135" y="263" type="line"/>
      <point x="579" y="263" type="line"/>
      <point x="579" y="313" type="line" smooth="yes"/>
      <point x="579" y="448"/>
      <point x="482" y="577"/>
      <point x="307" y="577" type="curve" smooth="yes"/>
      <point x="133" y="577"/>
      <point x="36" y="444"/>
      <point x="36" y="276" type="curve" smooth="yes"/>
      <point x="36" y="99"/>
      <point x="155" y="0"/>
      <point x="314" y="0" type="curve" smooth="yes"/>
      <point x="409" y="0"/>
      <point x="490" y="46"/>
    </contour>
    <contour>
      <point x="135" y="310" type="line"/>
      <point x="135" y="446" type="line"/>
      <point x="174" y="508"/>
      <point x="236" y="536"/>
      <point x="307" y="536" type="curve" smooth="yes"/>
      <point x="379" y="536"/>
      <point x="437" y="507"/>
      <point x="472" y="457" type="curve"/>
      <point x="472" y="310" type="line"/>
    </contour>
  </outline>
</glyph>
<glyph name="product" format="1">
  <advance width="550"/>
  <unicode hex="220F"/>
  <outline>
    <contour>
      <point x="491" y="527" type="curve"/>
      <point x="532" y="663" type="line"/>
      <point x="592" y="661" type="line"/>
      <point x="606" y="684"/>
      <point x="613" y="711"/>
      <point x="600" y="733" type="curve"/>
      <point x="499" y="718" type="line"/>
      <point x="118" y="741" type="line"/>
      <point x="107" y="730"/>
      <point x="102" y="702"/>
      <point x="113" y="670" type="curve"/>
      <point x="180" y="679" type="line"/>
      <point x="163" y="505" type="line"/>
      <point x="118" y="314"/>
      <point x="83" y="206"/>
      <point x="-13" y="1" type="curve"/>
      <point x="2" y="-23"/>
      <point x="25" y="-33"/>
      <point x="67" y="-30" type="curve"/>
      <point x="140" y="164"/>
      <point x="220" y="498"/>
      <point x="248" y="685" type="curve"/>
      <point x="469" y="671" type="line"/>
      <point x="425" y="517"/>
      <point x="394" y="223"/>
      <point x="405" y="-30" type="curve"/>
      <point x="451" y="-35"/>
      <point x="472" y="-32"/>
      <point x="489" y="-13" type="curve"/>
      <point x="469" y="164"/>
      <point x="471" y="379"/>
    </contour>
  </outline>
</glyph>
<glyph name="lessequal" format="1">
  <advance width="584"/>
  <unicode hex="2264"/>
  <outline>
    <contour>
      <point x="459" y="492" type="line"/>
      <point x="565" y="522" type="line"/>
      <point x="578" y="546"/>
      <point x="572" y="579"/>
      <point x="549" y="595" type="curve"/>
      <point x="100" y="448" type="line"/>
      <point x="78" y="427"/>
      <point x="67" y="384"/>
      <point x="86" y="360" type="curve"/>
      <point x="304" y="306" type="line"/>
      <point x="502" y="250" type="line"/>
      <point x="525" y="263"/>
      <point x="535" y="288"/>
      <point x="533" y="311" type="curve"/>
      <point x="151" y="408" type="line"/>
    </contour>
    <contour>
      <point x="499" y="156" type="curve"/>
      <point x="272" y="210" type="line"/>
      <point x="82" y="278" type="line"/>
      <point x="55" y="260"/>
      <point x="49" y="235"/>
      <point x="58" y="218" type="curve"/>
      <point x="470" y="93" type="line"/>
      <point x="504" y="113"/>
      <point x="510" y="142"/>
    </contour>
  </outline>
</glyph>
<glyph name="greaterequal" format="1">
  <advance width="616"/>
  <unicode hex="2265"/>
  <outline>
    <contour>
      <point x="74" y="311" type="line"/>
      <point x="63" y="288"/>
      <point x="63" y="263"/>
      <point x="81" y="250" type="curve"/>
      <point x="301" y="306" type="line"/>
      <point x="539" y="360" type="line"/>
      <point x="567" y="384"/>
      <point x="572" y="427"/>
      <point x="559" y="448" type="curve"/>
      <point x="141" y="597" type="line"/>
      <point x="110" y="587"/>
      <point x="92" y="562"/>
      <point x="98" y="532" type="curve"/>
      <point x="240" y="500" type="line"/>
      <point x="493" y="408" type="line"/>
    </contour>
    <contour>
      <point x="553" y="218" type="line"/>
      <point x="569" y="235"/>
      <point x="572" y="260"/>
      <point x="551" y="278" type="curve"/>
      <point x="335" y="210" type="line"/>
      <point x="88" y="156" type="line"/>
      <point x="73" y="142"/>
      <point x="67" y="113"/>
      <point x="94" y="93" type="curve"/>
    </contour>
  </outline>
</glyph>
<glyph name="lozenge" format="1">
  <advance width="565"/>
  <unicode hex="25CA"/>
  <outline>
    <contour>
      <point x="470" y="316" type="line"/>
      <point x="382" y="562" type="line"/>
      <point x="361" y="579"/>
      <point x="341" y="588"/>
      <point x="316" y="584" type="curve"/>
      <point x="139" y="328" type="line"/>
      <point x="223" y="86" type="line"/>
      <point x="243" y="69"/>
      <point x="264" y="61"/>
      <point x="290" y="63" type="curve"/>
    </contour>
    <contour>
      <point x="206" y="319" type="line"/>
      <point x="337" y="513" type="line"/>
      <point x="407" y="325" type="line"/>
      <point x="268" y="134" type="line"/>
    </contour>
  </outline>
</glyph>
<glyph name="fl" format="1">
  <advance width="536"/>
  <unicode hex="FB02"/>
  <outline>
    <contour>
      <point x="146" y="438" type="line"/>
      <point x="-3" y="437" type="line"/>
      <point x="-22" y="416"/>
      <point x="-23" y="389"/>
      <point x="-5" y="367" type="curve"/>
      <point x="170" y="401" type="line"/>
      <point x="314" y="408" type="line"/>
      <point x="335" y="437"/>
      <point x="334" y="468"/>
      <point x="316" y="478" type="curve"/>
    </contour>
    <contour>
      <point x="531" y="720" type="line"/>
      <point x="506" y="763"/>
      <point x="442" y="803"/>
      <point x="348" y="813" type="curve"/>
      <point x="262" y="803"/>
      <point x="190" y="771"/>
      <point x="131" y="713" type="curve"/>
      <point x="127" y="440" type="line"/>
      <point x="102" y="262"/>
      <point x="79" y="166"/>
      <point x="35" y="24" type="curve"/>
      <point x="50" y="2"/>
      <point x="75" y="-4"/>
      <point x="120" y="0" type="curve"/>
      <point x="158" y="211"/>
      <point x="204" y="568"/>
      <point x="203" y="697" type="curve"/>
      <point x="256" y="735"/>
      <point x="342" y="769"/>
      <point x="434" y="738" type="curve"/>
      <point x="435" y="540" type="line"/>
      <point x="414" y="395"/>
      <point x="387" y="254"/>
      <point x="331" y="31" type="curve"/>
      <point x="348" y="2"/>
      <point x="385" y="-4"/>
      <point x="426" y="0" type="curve"/>
      <point x="451" y="212"/>
      <point x="470" y="374"/>
      <point x="493" y="580" type="curve"/>
    </contour>
  </outline>
</glyph>
<glyph name="dvBH_LA" format="1">
  <advance width="947"/>
  <outline>
    <contour>
      <point x="166" y="227" type="curve"/>
      <point x="157" y="220" type="line"/>
      <point x="118" y="233"/>
      <point x="93" y="262"/>
      <point x="76" y="300" type="curve"/>
      <point x="71" y="266" type="line"/>
      <point x="161" y="343"/>
      <point x="315" y="327"/>
      <point x="423" y="311" type="curve"/>
      <point x="423" y="347" type="line"/>
      <point x="306" y="371"/>
      <point x="128" y="364"/>
      <point x="55" y="313" type="curve"/>
      <point x="40" y="299"/>
      <point x="33" y="280"/>
      <point x="30" y="258" type="curve"/>
      <point x="54" y="210"/>
      <point x="109" y="169"/>
      <point x="168" y="161" type="curve"/>
      <point x="193" y="169"/>
      <point x="215" y="183"/>
      <point x="229" y="197" type="curve"/>
      <point x="259" y="310"/>
      <point x="306" y="553"/>
      <point x="330" y="660" type="curve"/>
      <point x="319" y="676"/>
      <point x="279" y="690"/>
      <point x="256" y="688" type="curve"/>
      <point x="213" y="643"/>
      <point x="126" y="574"/>
      <point x="80" y="546" type="curve"/>
      <point x="72" y="538"/>
      <point x="61" y="517"/>
      <point x="61" y="505" type="curve" smooth="yes"/>
      <point x="61" y="484"/>
      <point x="108" y="447"/>
      <point x="149" y="447" type="curve"/>
      <point x="250" y="491" type="line"/>
      <point x="237" y="516" type="line"/>
      <point x="146" y="491" type="line"/>
      <point x="132" y="494"/>
      <point x="123" y="503"/>
      <point x="119" y="509" type="curve"/>
      <point x="163" y="545"/>
      <point x="207" y="581"/>
      <point x="251" y="617" type="curve"/>
      <point x="254" y="615" type="line"/>
      <point x="246" y="572"/>
      <point x="235" y="525"/>
      <point x="225" y="483" type="curve"/>
      <point x="233" y="474" type="line"/>
      <point x="220" y="447" type="line"/>
      <point x="214" y="414"/>
      <point x="186" y="291"/>
    </contour>
    <contour>
      <point x="989" y="619" type="line"/>
      <point x="973" y="641"/>
      <point x="948" y="649"/>
      <point x="902" y="649" type="curve"/>
      <point x="833" y="356" type="line"/>
      <point x="845" y="345" type="line"/>
      <point x="820" y="301" type="line"/>
      <point x="755" y="23" type="line"/>
      <point x="769" y="6"/>
      <point x="793" y="-5"/>
      <point x="836" y="0" type="curve"/>
      <point x="907" y="441" type="line"/>
    </contour>
    <contour>
      <point x="1075" y="573" type="line"/>
      <point x="1088" y="581"/>
      <point x="1096" y="595"/>
      <point x="1100" y="608" type="curve"/>
      <point x="1088" y="619" type="line"/>
      <point x="386" y="619" type="line"/>
      <point x="373" y="611"/>
      <point x="365" y="597"/>
      <point x="361" y="584" type="curve"/>
      <point x="373" y="573" type="line"/>
    </contour>
    <contour>
      <point x="647" y="256" type="line"/>
      <point x="654" y="272"/>
      <point x="660" y="295"/>
      <point x="663" y="312" type="curve"/>
      <point x="658" y="367"/>
      <point x="635" y="415"/>
      <point x="593" y="442" type="curve"/>
      <point x="578" y="446"/>
      <point x="530" y="443"/>
      <point x="510" y="437" type="curve"/>
      <point x="456" y="409"/>
      <point x="379" y="307"/>
      <point x="379" y="249" type="curve" smooth="yes"/>
      <point x="379" y="174"/>
      <point x="422" y="74"/>
      <point x="525" y="0" type="curve"/>
      <point x="560" y="6"/>
      <point x="583" y="27"/>
      <point x="572" y="53" type="curve"/>
      <point x="492" y="99"/>
      <point x="453" y="172"/>
      <point x="443" y="253" type="curve"/>
      <point x="451" y="309"/>
      <point x="499" y="377"/>
      <point x="553" y="394" type="curve"/>
      <point x="586" y="381"/>
      <point x="602" y="348"/>
      <point x="608" y="311" type="curve"/>
      <point x="605" y="286"/>
      <point x="595" y="265"/>
      <point x="581" y="240" type="curve"/>
      <point x="581" y="215"/>
      <point x="618" y="194"/>
      <point x="656" y="195" type="curve"/>
      <point x="727" y="251"/>
      <point x="833" y="352"/>
      <point x="878" y="392" type="curve"/>
      <point x="858" y="456" type="line"/>
      <point x="791" y="374"/>
      <point x="711" y="295"/>
      <point x="651" y="253" type="curve"/>
    </contour>
  </outline>
</glyph>
<glyph name="dvBH_NA" format="1">
  <advance width="833"/>
  <outline>
    <contour>
      <point x="163" y="207" type="curve"/>
      <point x="150" y="200" type="line"/>
      <point x="111" y="213"/>
      <point x="86" y="242"/>
      <point x="69" y="280" type="curve"/>
      <point x="64" y="246" type="line"/>
      <point x="154" y="323"/>
      <point x="308" y="307"/>
      <point x="416" y="291" type="curve"/>
      <point x="428" y="321" type="line"/>
      <point x="316" y="366"/>
      <point x="120" y="345"/>
      <point x="48" y="293" type="curve"/>
      <point x="33" y="279"/>
      <point x="26" y="260"/>
      <point x="23" y="238" type="curve"/>
      <point x="47" y="190"/>
      <point x="102" y="149"/>
      <point x="161" y="141" type="curve"/>
      <point x="186" y="149"/>
      <point x="208" y="163"/>
      <point x="222" y="177" type="curve"/>
      <point x="252" y="290"/>
      <point x="306" y="553"/>
      <point x="330" y="660" type="curve"/>
      <point x="319" y="676"/>
      <point x="279" y="690"/>
      <point x="256" y="688" type="curve"/>
      <point x="213" y="643"/>
      <point x="126" y="574"/>
      <point x="80" y="546" type="curve"/>
      <point x="72" y="538"/>
      <point x="61" y="517"/>
      <point x="61" y="505" type="curve" smooth="yes"/>
      <point x="61" y="484"/>
      <point x="108" y="447"/>
      <point x="149" y="447" type="curve"/>
      <point x="250" y="491" type="line"/>
      <point x="237" y="516" type="line"/>
      <point x="146" y="491" type="line"/>
      <point x="132" y="494"/>
      <point x="123" y="503"/>
      <point x="119" y="509" type="curve"/>
      <point x="163" y="545"/>
      <point x="207" y="581"/>
      <point x="251" y="617" type="curve"/>
      <point x="254" y="615" type="line"/>
      <point x="246" y="572"/>
      <point x="235" y="525"/>
      <point x="225" y="483" type="curve"/>
      <point x="233" y="474" type="line"/>
      <point x="220" y="447" type="line"/>
      <point x="217" y="400"/>
      <point x="186" y="257"/>
    </contour>
    <contour>
      <point x="961" y="573" type="line"/>
      <point x="974" y="581"/>
      <point x="982" y="595"/>
      <point x="986" y="608" type="curve"/>
      <point x="974" y="619" type="line"/>
      <point x="373" y="619" type="line"/>
      <point x="360" y="611"/>
      <point x="352" y="597"/>
      <point x="348" y="584" type="curve"/>
      <point x="360" y="573" type="line"/>
    </contour>
    <contour>
      <point x="836" y="507" type="line"/>
      <point x="815" y="530"/>
      <point x="786" y="541"/>
      <point x="752" y="543" type="curve"/>
      <point x="739" y="485" type="line"/>
      <point x="749" y="480" type="line"/>
      <point x="641" y="23" type="line"/>
      <point x="655" y="6"/>
      <point x="679" y="-5"/>
      <point x="722" y="0" type="curve"/>
      <point x="787" y="400" type="line"/>
    </contour>
    <contour>
      <point x="479" y="335" type="line"/>
      <point x="489" y="299"/>
      <point x="494" y="267"/>
      <point x="486" y="227" type="curve"/>
      <point x="477" y="220" type="line"/>
      <point x="442" y="229"/>
      <point x="420" y="248"/>
      <point x="399" y="284" type="curve"/>
      <point x="394" y="250" type="line"/>
      <point x="528" y="337"/>
      <point x="648" y="416"/>
      <point x="782" y="515" type="curve"/>
      <point x="752" y="543" type="line"/>
      <point x="637" y="454"/>
      <point x="500" y="372"/>
      <point x="378" y="297" type="curve"/>
      <point x="363" y="283"/>
      <point x="356" y="264"/>
      <point x="353" y="242" type="curve"/>
      <point x="383" y="192"/>
      <point x="436" y="169"/>
      <point x="488" y="164" type="curve"/>
      <point x="513" y="172"/>
      <point x="535" y="186"/>
      <point x="549" y="200" type="curve"/>
      <point x="551" y="256"/>
      <point x="544" y="315"/>
      <point x="518" y="363" type="curve"/>
    </contour>
  </outline>
</glyph>
<glyph name="dvBH_RA" format="1">
  <advance width="502"/>
  <outline>
    <contour>
      <point x="590" y="573" type="line"/>
      <point x="603" y="581"/>
      <point x="611" y="595"/>
      <point x="615" y="608" type="curve"/>
      <point x="603" y="619" type="line"/>
      <point x="406" y="619" type="line"/>
      <point x="393" y="611"/>
      <point x="385" y="597"/>
      <point x="381" y="584" type="curve"/>
      <point x="393" y="573" type="line"/>
    </contour>
    <contour>
      <point x="220" y="447" type="line"/>
      <point x="206" y="378"/>
      <point x="182" y="294"/>
      <point x="157" y="225" type="curve"/>
      <point x="148" y="220" type="line"/>
      <point x="112" y="233"/>
      <point x="99" y="248"/>
      <point x="79" y="281" type="curve"/>
      <point x="51" y="240" type="line"/>
      <point x="201" y="337"/>
      <point x="330" y="416"/>
      <point x="450" y="510" type="curve"/>
      <point x="427" y="543" type="line"/>
      <point x="312" y="450"/>
      <point x="186" y="377"/>
      <point x="54" y="294" type="curve"/>
      <point x="38" y="283"/>
      <point x="31" y="261"/>
      <point x="30" y="242" type="curve"/>
      <point x="59" y="189"/>
      <point x="113" y="166"/>
      <point x="168" y="161" type="curve"/>
      <point x="193" y="169"/>
      <point x="216" y="180"/>
      <point x="230" y="194" type="curve"/>
      <point x="268" y="359"/>
      <point x="291" y="487"/>
      <point x="330" y="660" type="curve"/>
      <point x="319" y="676"/>
      <point x="279" y="690"/>
      <point x="256" y="688" type="curve"/>
      <point x="213" y="643"/>
      <point x="126" y="574"/>
      <point x="80" y="546" type="curve"/>
      <point x="72" y="538"/>
      <point x="61" y="517"/>
      <point x="61" y="505" type="curve" smooth="yes"/>
      <point x="61" y="484"/>
      <point x="108" y="447"/>
      <point x="149" y="447" type="curve"/>
      <point x="250" y="491" type="line"/>
      <point x="237" y="516" type="line"/>
      <point x="146" y="491" type="line"/>
      <point x="132" y="494"/>
      <point x="123" y="503"/>
      <point x="119" y="509" type="curve"/>
      <point x="163" y="545"/>
      <point x="207" y="581"/>
      <point x="251" y="617" type="curve"/>
      <point x="254" y="615" type="line"/>
      <point x="246" y="572"/>
      <point x="235" y="525"/>
      <point x="225" y="483" type="curve"/>
      <point x="233" y="474" type="line"/>
    </contour>
    <contour>
      <point x="424" y="480" type="line"/>
      <point x="368" y="239" type="line"/>
      <point x="283" y="150"/>
      <point x="173" y="79"/>
      <point x="69" y="36" type="curve"/>
      <point x="65" y="16"/>
      <point x="70" y="1"/>
      <point x="103" y="-20" type="curve"/>
      <point x="196" y="30"/>
      <point x="308" y="107"/>
      <point x="363" y="171" type="curve"/>
      <point x="370" y="167" type="line"/>
      <point x="316" y="23" type="line"/>
      <point x="330" y="6"/>
      <point x="354" y="-5"/>
      <point x="397" y="0" type="curve"/>
      <point x="462" y="400" type="line"/>
      <point x="511" y="507" type="line"/>
      <point x="490" y="530"/>
      <point x="461" y="541"/>
      <point x="427" y="543" type="curve"/>
      <point x="414" y="485" type="line"/>
    </contour>
  </outline>
</glyph>
<glyph name="dvB_BA" format="1">
  <advance width="615"/>
  <outline>
    <contour>
      <point x="385" y="573" type="line"/>
      <point x="398" y="581"/>
      <point x="406" y="595"/>
      <point x="410" y="608" type="curve"/>
      <point x="398" y="619" type="line"/>
      <point x="34" y="619" type="line"/>
      <point x="21" y="611"/>
      <point x="13" y="597"/>
      <point x="9" y="584" type="curve"/>
      <point x="21" y="573" type="line"/>
    </contour>
    <contour>
      <point x="240" y="234" type="curve"/>
      <point x="271" y="265" type="line"/>
      <point x="224" y="314"/>
      <point x="179" y="370"/>
      <point x="138" y="428" type="curve"/>
      <point x="108" y="395" type="line"/>
      <point x="145" y="340"/>
      <point x="197" y="277"/>
    </contour>
    <contour>
      <point x="281" y="316" type="line"/>
      <point x="228" y="261"/>
      <point x="174" y="206"/>
      <point x="121" y="151" type="curve"/>
      <point x="100" y="161"/>
      <point x="86" y="186"/>
      <point x="86" y="228" type="curve"/>
      <point x="86" y="339"/>
      <point x="152" y="453"/>
      <point x="217" y="453" type="curve" smooth="yes"/>
      <point x="251" y="453"/>
      <point x="275" y="410"/>
      <point x="293" y="362" type="curve"/>
      <point x="321" y="383" type="line"/>
      <point x="299" y="437"/>
      <point x="274" y="504"/>
      <point x="213" y="504" type="curve" smooth="yes"/>
      <point x="98" y="504"/>
      <point x="12" y="352"/>
      <point x="12" y="228" type="curve"/>
      <point x="12" y="147"/>
      <point x="62" y="107"/>
      <point x="139" y="102" type="curve"/>
      <point x="196" y="168"/>
      <point x="252" y="234"/>
      <point x="309" y="300" type="curve"/>
    </contour>
    <contour>
      <point x="332" y="151" type="curve"/>
      <point x="311" y="161"/>
      <point x="297" y="190"/>
      <point x="297" y="228" type="curve" smooth="yes"/>
      <point x="297" y="339"/>
      <point x="363" y="453"/>
      <point x="428" y="453" type="curve" smooth="yes"/>
      <point x="462" y="453"/>
      <point x="485" y="409"/>
      <point x="503" y="364" type="curve"/>
      <point x="492" y="316" type="line"/>
      <point x="439" y="261"/>
      <point x="385" y="206"/>
    </contour>
    <contour>
      <point x="743" y="573" type="line"/>
      <point x="756" y="581"/>
      <point x="764" y="595"/>
      <point x="768" y="608" type="curve"/>
      <point x="756" y="619" type="line"/>
      <point x="245" y="619" type="line"/>
      <point x="232" y="611"/>
      <point x="224" y="597"/>
      <point x="220" y="584" type="curve"/>
      <point x="232" y="573" type="line"/>
    </contour>
    <contour>
      <point x="515" y="420" type="line"/>
      <point x="498" y="464"/>
      <point x="470" y="504"/>
      <point x="424" y="504" type="curve" smooth="yes"/>
      <point x="309" y="504"/>
      <point x="223" y="352"/>
      <point x="223" y="228" type="curve" smooth="yes"/>
      <point x="223" y="147"/>
      <point x="273" y="107"/>
      <point x="350" y="102" type="curve"/>
      <point x="397" y="157"/>
      <point x="444" y="211"/>
      <point x="491" y="266" type="curve"/>
      <point x="500" y="259" type="line"/>
      <point x="464" y="196" type="line"/>
      <point x="423" y="23" type="line"/>
      <point x="437" y="6"/>
      <point x="461" y="-5"/>
      <point x="504" y="0" type="curve"/>
      <point x="575" y="441" type="line"/>
      <point x="657" y="619" type="line"/>
      <point x="641" y="641"/>
      <point x="616" y="649"/>
      <point x="570" y="649" type="curve"/>
      <point x="517" y="421" type="line"/>
    </contour>
    <contour>
      <point x="451" y="234" type="curve"/>
      <point x="482" y="265" type="line"/>
      <point x="435" y="314"/>
      <point x="390" y="370"/>
      <point x="349" y="428" type="curve"/>
      <point x="319" y="393" type="line"/>
      <point x="356" y="338"/>
      <point x="408" y="277"/>
    </contour>
  </outline>
</glyph>
<glyph name="dvB_DA_mU" format="1">
  <advance width="681"/>
  <outline>
    <contour>
      <point x="230" y="214" type="curve"/>
      <point x="261" y="245" type="line"/>
      <point x="214" y="294"/>
      <point x="169" y="350"/>
      <point x="128" y="408" type="curve"/>
      <point x="89" y="384" type="line"/>
      <point x="126" y="329"/>
      <point x="187" y="257"/>
    </contour>
    <contour>
      <point x="271" y="291" type="line"/>
      <point x="228" y="244"/>
      <point x="186" y="198"/>
      <point x="143" y="151" type="curve"/>
      <point x="110" y="167"/>
      <point x="94" y="206"/>
      <point x="94" y="248" type="curve" smooth="yes"/>
      <point x="94" y="327"/>
      <point x="150" y="411"/>
      <point x="204" y="411" type="curve" smooth="yes"/>
      <point x="239" y="411"/>
      <point x="269" y="356"/>
      <point x="292" y="301" type="curve"/>
      <point x="320" y="322" type="line"/>
      <point x="293" y="383"/>
      <point x="262" y="462"/>
      <point x="200" y="462" type="curve" smooth="yes"/>
      <point x="96" y="462"/>
      <point x="20" y="340"/>
      <point x="20" y="248" type="curve" smooth="yes"/>
      <point x="20" y="162"/>
      <point x="71" y="107"/>
      <point x="161" y="102" type="curve"/>
      <point x="208" y="159"/>
      <point x="254" y="217"/>
      <point x="301" y="274" type="curve"/>
    </contour>
    <contour>
      <point x="385" y="573" type="line"/>
      <point x="398" y="581"/>
      <point x="406" y="595"/>
      <point x="410" y="608" type="curve"/>
      <point x="398" y="619" type="line"/>
      <point x="34" y="619" type="line"/>
      <point x="21" y="611"/>
      <point x="13" y="597"/>
      <point x="9" y="584" type="curve"/>
      <point x="21" y="573" type="line"/>
    </contour>
    <component base="dvDA_mU" xOffset="212"/>
  </outline>
</glyph>
<glyph name="dvB_DHA" format="1">
  <advance width="797"/>
  <outline>
    <contour>
      <point x="240" y="256" type="curve"/>
      <point x="271" y="287" type="line"/>
      <point x="224" y="336"/>
      <point x="179" y="392"/>
      <point x="138" y="450" type="curve"/>
      <point x="99" y="426" type="line"/>
      <point x="136" y="371"/>
      <point x="197" y="299"/>
    </contour>
    <contour>
      <point x="306" y="366" type="line"/>
      <point x="255" y="311"/>
      <point x="204" y="256"/>
      <point x="153" y="201" type="curve"/>
      <point x="120" y="217"/>
      <point x="104" y="249"/>
      <point x="104" y="291" type="curve" smooth="yes"/>
      <point x="104" y="364"/>
      <point x="168" y="444"/>
      <point x="216" y="444" type="curve" smooth="yes"/>
      <point x="251" y="444"/>
      <point x="266" y="369"/>
      <point x="305" y="333" type="curve"/>
      <point x="333" y="354" type="line"/>
      <point x="290" y="396"/>
      <point x="274" y="495"/>
      <point x="212" y="495" type="curve" smooth="yes"/>
      <point x="114" y="495"/>
      <point x="30" y="377"/>
      <point x="30" y="291" type="curve" smooth="yes"/>
      <point x="30" y="205"/>
      <point x="81" y="157"/>
      <point x="171" y="152" type="curve"/>
      <point x="225" y="218"/>
      <point x="280" y="284"/>
      <point x="334" y="350" type="curve"/>
    </contour>
    <contour>
      <point x="385" y="573" type="line"/>
      <point x="398" y="581"/>
      <point x="406" y="595"/>
      <point x="410" y="608" type="curve"/>
      <point x="398" y="619" type="line"/>
      <point x="34" y="619" type="line"/>
      <point x="21" y="611"/>
      <point x="13" y="597"/>
      <point x="9" y="584" type="curve"/>
      <point x="21" y="573" type="line"/>
    </contour>
    <contour>
      <point x="839" y="619" type="line"/>
      <point x="823" y="641"/>
      <point x="798" y="649"/>
      <point x="752" y="649" type="curve"/>
      <point x="674" y="318" type="line"/>
      <point x="693" y="298" type="line"/>
      <point x="659" y="256" type="line"/>
      <point x="605" y="23" type="line"/>
      <point x="619" y="6"/>
      <point x="643" y="-5"/>
      <point x="686" y="0" type="curve"/>
      <point x="757" y="441" type="line"/>
    </contour>
    <contour>
      <point x="925" y="573" type="line"/>
      <point x="938" y="581"/>
      <point x="946" y="595"/>
      <point x="950" y="608" type="curve"/>
      <point x="938" y="619" type="line"/>
      <point x="678" y="619" type="line"/>
      <point x="665" y="611"/>
      <point x="657" y="597"/>
      <point x="653" y="584" type="curve"/>
      <point x="665" y="573" type="line"/>
    </contour>
    <contour>
      <point x="734" y="368" type="curve"/>
      <point x="694" y="401" type="line"/>
      <point x="629" y="317"/>
      <point x="466" y="198"/>
      <point x="362" y="161" type="curve"/>
      <point x="355" y="168" type="line"/>
      <point x="396" y="227"/>
      <point x="463" y="292"/>
      <point x="527" y="346" type="curve"/>
      <point x="521" y="385"/>
      <point x="499" y="413"/>
      <point x="471" y="415" type="curve"/>
      <point x="439" y="402"/>
      <point x="383" y="383"/>
      <point x="341" y="380" type="curve"/>
      <point x="331" y="386"/>
      <point x="322" y="396"/>
      <point x="321" y="408" type="curve"/>
      <point x="350" y="489"/>
      <point x="472" y="596"/>
      <point x="557" y="636" type="curve"/>
      <point x="566" y="634"/>
      <point x="571" y="627"/>
      <point x="573" y="617" type="curve"/>
      <point x="550" y="556"/>
      <point x="449" y="480"/>
      <point x="385" y="465" type="curve"/>
      <point x="310" y="451" type="line"/>
      <point x="314" y="429" type="line"/>
      <point x="390" y="416" type="line"/>
      <point x="481" y="442"/>
      <point x="605" y="528"/>
      <point x="631" y="613" type="curve"/>
      <point x="620" y="663"/>
      <point x="589" y="693"/>
      <point x="556" y="690" type="curve"/>
      <point x="414" y="637"/>
      <point x="289" y="494"/>
      <point x="261" y="420" type="curve"/>
      <point x="256" y="383"/>
      <point x="298" y="343"/>
      <point x="333" y="325" type="curve"/>
      <point x="388" y="332"/>
      <point x="430" y="346"/>
      <point x="461" y="360" type="curve"/>
      <point x="465" y="355" type="line"/>
      <point x="405" y="308"/>
      <point x="348" y="252"/>
      <point x="290" y="179" type="curve"/>
      <point x="290" y="145"/>
      <point x="325" y="115"/>
      <point x="365" y="101" type="curve"/>
      <point x="479" y="137"/>
      <point x="669" y="273"/>
    </contour>
  </outline>
</glyph>
<glyph name="dvB_DH_VA" format="1">
  <advance width="1046"/>
  <outline>
    <contour>
      <point x="240" y="256" type="curve"/>
      <point x="271" y="287" type="line"/>
      <point x="224" y="336"/>
      <point x="179" y="392"/>
      <point x="138" y="450" type="curve"/>
      <point x="99" y="426" type="line"/>
      <point x="136" y="371"/>
      <point x="197" y="299"/>
    </contour>
    <contour>
      <point x="306" y="366" type="line"/>
      <point x="255" y="311"/>
      <point x="204" y="256"/>
      <point x="153" y="201" type="curve"/>
      <point x="120" y="217"/>
      <point x="104" y="249"/>
      <point x="104" y="291" type="curve" smooth="yes"/>
      <point x="104" y="364"/>
      <point x="168" y="444"/>
      <point x="216" y="444" type="curve" smooth="yes"/>
      <point x="251" y="444"/>
      <point x="266" y="369"/>
      <point x="305" y="333" type="curve"/>
      <point x="333" y="354" type="line"/>
      <point x="290" y="396"/>
      <point x="274" y="495"/>
      <point x="212" y="495" type="curve" smooth="yes"/>
      <point x="114" y="495"/>
      <point x="30" y="377"/>
      <point x="30" y="291" type="curve" smooth="yes"/>
      <point x="30" y="205"/>
      <point x="81" y="157"/>
      <point x="171" y="152" type="curve"/>
      <point x="225" y="218"/>
      <point x="280" y="284"/>
      <point x="334" y="350" type="curve"/>
    </contour>
    <contour>
      <point x="385" y="573" type="line"/>
      <point x="398" y="581"/>
      <point x="406" y="595"/>
      <point x="410" y="608" type="curve"/>
      <point x="398" y="619" type="line"/>
      <point x="34" y="619" type="line"/>
      <point x="21" y="611"/>
      <point x="13" y="597"/>
      <point x="9" y="584" type="curve"/>
      <point x="21" y="573" type="line"/>
    </contour>
    <contour>
      <point x="1174" y="573" type="line"/>
      <point x="1187" y="581"/>
      <point x="1195" y="595"/>
      <point x="1199" y="608" type="curve"/>
      <point x="1187" y="619" type="line"/>
      <point x="727" y="619" type="line"/>
      <point x="714" y="611"/>
      <point x="706" y="597"/>
      <point x="702" y="584" type="curve"/>
      <point x="714" y="573" type="line"/>
    </contour>
    <contour>
      <point x="923" y="316" type="line"/>
      <point x="873" y="261"/>
      <point x="823" y="206"/>
      <point x="773" y="151" type="curve"/>
      <point x="740" y="167"/>
      <point x="724" y="206"/>
      <point x="724" y="248" type="curve" smooth="yes"/>
      <point x="724" y="359"/>
      <point x="792" y="453"/>
      <point x="856" y="453" type="curve" smooth="yes"/>
      <point x="891" y="453"/>
      <point x="917" y="410"/>
      <point x="935" y="362" type="curve"/>
      <point x="963" y="383" type="line"/>
      <point x="941" y="437"/>
      <point x="914" y="504"/>
      <point x="852" y="504" type="curve" smooth="yes"/>
      <point x="738" y="504"/>
      <point x="650" y="372"/>
      <point x="650" y="248" type="curve" smooth="yes"/>
      <point x="650" y="162"/>
      <point x="701" y="107"/>
      <point x="791" y="102" type="curve"/>
      <point x="844" y="168"/>
      <point x="898" y="234"/>
      <point x="951" y="300" type="curve"/>
    </contour>
    <contour>
      <point x="1088" y="619" type="line"/>
      <point x="1072" y="641"/>
      <point x="1047" y="649"/>
      <point x="1001" y="649" type="curve"/>
      <point x="953" y="423" type="line"/>
      <point x="937" y="415" type="line"/>
      <point x="938" y="382" type="line"/>
      <point x="912" y="269" type="line"/>
      <point x="931" y="253" type="line"/>
      <point x="894" y="196" type="line"/>
      <point x="854" y="23" type="line"/>
      <point x="868" y="6"/>
      <point x="892" y="-5"/>
      <point x="935" y="0" type="curve"/>
      <point x="1006" y="441" type="line"/>
    </contour>
    <contour>
      <point x="792" y="573" type="line"/>
      <point x="805" y="581"/>
      <point x="813" y="595"/>
      <point x="817" y="608" type="curve"/>
      <point x="805" y="619" type="line"/>
      <point x="678" y="619" type="line"/>
      <point x="665" y="611"/>
      <point x="657" y="597"/>
      <point x="653" y="584" type="curve"/>
      <point x="665" y="573" type="line"/>
    </contour>
    <contour>
      <point x="734" y="368" type="curve"/>
      <point x="694" y="401" type="line"/>
      <point x="629" y="317"/>
      <point x="466" y="198"/>
      <point x="362" y="161" type="curve"/>
      <point x="355" y="168" type="line"/>
      <point x="396" y="227"/>
      <point x="463" y="292"/>
      <point x="527" y="346" type="curve"/>
      <point x="521" y="385"/>
      <point x="499" y="413"/>
      <point x="471" y="415" type="curve"/>
      <point x="439" y="402"/>
      <point x="383" y="383"/>
      <point x="341" y="380" type="curve"/>
      <point x="331" y="386"/>
      <point x="322" y="396"/>
      <point x="321" y="408" type="curve"/>
      <point x="350" y="489"/>
      <point x="472" y="596"/>
      <point x="557" y="636" type="curve"/>
      <point x="566" y="634"/>
      <point x="571" y="627"/>
      <point x="573" y="617" type="curve"/>
      <point x="550" y="556"/>
      <point x="449" y="480"/>
      <point x="385" y="465" type="curve"/>
      <point x="310" y="451" type="line"/>
      <point x="314" y="429" type="line"/>
      <point x="390" y="416" type="line"/>
      <point x="481" y="442"/>
      <point x="605" y="528"/>
      <point x="631" y="613" type="curve"/>
      <point x="620" y="663"/>
      <point x="589" y="693"/>
      <point x="556" y="690" type="curve"/>
      <point x="414" y="637"/>
      <point x="289" y="494"/>
      <point x="261" y="420" type="curve"/>
      <point x="256" y="383"/>
      <point x="298" y="343"/>
      <point x="333" y="325" type="curve"/>
      <point x="388" y="332"/>
      <point x="430" y="346"/>
      <point x="461" y="360" type="curve"/>
      <point x="465" y="355" type="line"/>
      <point x="405" y="308"/>
      <point x="348" y="252"/>
      <point x="290" y="179" type="curve"/>
      <point x="290" y="145"/>
      <point x="325" y="115"/>
      <point x="365" y="101" type="curve"/>
      <point x="479" y="137"/>
      <point x="669" y="273"/>
    </contour>
  </outline>
</glyph>
<glyph name="dvB_RA" format="1">
  <advance width="404"/>
  <outline>
    <contour>
      <point x="121" y="202" type="curve"/>
      <point x="101" y="216"/>
      <point x="89" y="240"/>
      <point x="89" y="275" type="curve" smooth="yes"/>
      <point x="89" y="352"/>
      <point x="158" y="453"/>
      <point x="217" y="453" type="curve" smooth="yes"/>
      <point x="250" y="453"/>
      <point x="274" y="411"/>
      <point x="292" y="364" type="curve"/>
      <point x="285" y="334" type="line"/>
      <point x="230" y="290"/>
      <point x="176" y="246"/>
    </contour>
    <contour>
      <point x="532" y="573" type="line"/>
      <point x="545" y="581"/>
      <point x="553" y="595"/>
      <point x="557" y="608" type="curve"/>
      <point x="545" y="619" type="line"/>
      <point x="34" y="619" type="line"/>
      <point x="21" y="611"/>
      <point x="13" y="597"/>
      <point x="9" y="584" type="curve"/>
      <point x="21" y="573" type="line"/>
    </contour>
    <contour>
      <point x="-35" y="36" type="curve"/>
      <point x="-39" y="16"/>
      <point x="-34" y="1"/>
      <point x="-1" y="-20" type="curve"/>
      <point x="92" y="30"/>
      <point x="204" y="107"/>
      <point x="259" y="171" type="curve"/>
      <point x="266" y="167" type="line"/>
      <point x="212" y="23" type="line"/>
      <point x="226" y="6"/>
      <point x="250" y="-5"/>
      <point x="293" y="0" type="curve"/>
      <point x="364" y="441" type="line"/>
      <point x="446" y="619" type="line"/>
      <point x="430" y="641"/>
      <point x="405" y="649"/>
      <point x="359" y="649" type="curve"/>
      <point x="307" y="421" type="line"/>
      <point x="305" y="420" type="line"/>
      <point x="286" y="462"/>
      <point x="258" y="504"/>
      <point x="213" y="504" type="curve" smooth="yes"/>
      <point x="110" y="504"/>
      <point x="16" y="367"/>
      <point x="16" y="261" type="curve" smooth="yes"/>
      <point x="16" y="204"/>
      <point x="46" y="156"/>
      <point x="112" y="139" type="curve"/>
      <point x="171" y="190"/>
      <point x="230" y="241"/>
      <point x="289" y="292" type="curve"/>
      <point x="300" y="284" type="line"/>
      <point x="228" y="184"/>
      <point x="89" y="87"/>
    </contour>
    <contour>
      <point x="225" y="253" type="curve"/>
      <point x="256" y="284" type="line"/>
      <point x="209" y="333"/>
      <point x="179" y="370"/>
      <point x="138" y="428" type="curve"/>
      <point x="99" y="404" type="line"/>
      <point x="136" y="349"/>
      <point x="182" y="296"/>
    </contour>
  </outline>
</glyph>
<glyph name="dvB_SA" format="1">
  <advance width="872"/>
  <outline>
    <contour>
      <point x="385" y="573" type="line"/>
      <point x="398" y="581"/>
      <point x="406" y="595"/>
      <point x="410" y="608" type="curve"/>
      <point x="398" y="619" type="line"/>
      <point x="34" y="619" type="line"/>
      <point x="21" y="611"/>
      <point x="13" y="597"/>
      <point x="9" y="584" type="curve"/>
      <point x="21" y="573" type="line"/>
    </contour>
    <contour>
      <point x="243" y="241" type="curve"/>
      <point x="274" y="272" type="line"/>
      <point x="227" y="321"/>
      <point x="182" y="377"/>
      <point x="141" y="435" type="curve"/>
      <point x="102" y="411" type="line"/>
      <point x="139" y="356"/>
      <point x="200" y="284"/>
    </contour>
    <contour>
      <point x="290" y="313" type="line"/>
      <point x="241" y="266"/>
      <point x="192" y="218"/>
      <point x="143" y="171" type="curve"/>
      <point x="110" y="187"/>
      <point x="94" y="226"/>
      <point x="94" y="268" type="curve" smooth="yes"/>
      <point x="94" y="359"/>
      <point x="162" y="453"/>
      <point x="215" y="453" type="curve" smooth="yes"/>
      <point x="249" y="453"/>
      <point x="291" y="358"/>
      <point x="309" y="310" type="curve"/>
      <point x="345" y="325" type="line"/>
      <point x="323" y="379"/>
      <point x="284" y="504"/>
      <point x="214" y="504" type="curve" smooth="yes"/>
      <point x="108" y="504"/>
      <point x="20" y="372"/>
      <point x="20" y="268" type="curve" smooth="yes"/>
      <point x="20" y="182"/>
      <point x="71" y="127"/>
      <point x="161" y="122" type="curve"/>
      <point x="214" y="181"/>
      <point x="267" y="241"/>
      <point x="320" y="300" type="curve"/>
    </contour>
    <contour>
      <point x="445" y="301" type="line"/>
      <point x="467" y="289"/>
      <point x="502" y="261"/>
      <point x="521" y="261" type="curve" smooth="yes"/>
      <point x="578" y="261"/>
      <point x="751" y="332"/>
      <point x="808" y="405" type="curve"/>
      <point x="780" y="443" type="line"/>
      <point x="719" y="369"/>
      <point x="566" y="312"/>
      <point x="527" y="312" type="curve" smooth="yes"/>
      <point x="518" y="312"/>
      <point x="502" y="323"/>
      <point x="490" y="329" type="curve"/>
    </contour>
    <contour>
      <point x="914" y="619" type="line"/>
      <point x="898" y="641"/>
      <point x="873" y="649"/>
      <point x="827" y="649" type="curve"/>
      <point x="763" y="378" type="line"/>
      <point x="779" y="355" type="line"/>
      <point x="749" y="315" type="line"/>
      <point x="680" y="23" type="line"/>
      <point x="694" y="6"/>
      <point x="718" y="-5"/>
      <point x="761" y="0" type="curve"/>
      <point x="832" y="441" type="line"/>
    </contour>
    <contour>
      <point x="1000" y="573" type="line"/>
      <point x="1013" y="581"/>
      <point x="1021" y="595"/>
      <point x="1025" y="608" type="curve"/>
      <point x="1013" y="619" type="line"/>
      <point x="293" y="619" type="line"/>
      <point x="280" y="611"/>
      <point x="272" y="597"/>
      <point x="268" y="584" type="curve"/>
      <point x="280" y="573" type="line"/>
    </contour>
    <contour>
      <point x="648" y="500" type="curve"/>
      <point x="648" y="546"/>
      <point x="602" y="619"/>
      <point x="532" y="619" type="curve" smooth="yes"/>
      <point x="456" y="619"/>
      <point x="397" y="579"/>
      <point x="374" y="543" type="curve"/>
      <point x="375" y="527"/>
      <point x="389" y="514"/>
      <point x="410" y="510" type="curve"/>
      <point x="436" y="540"/>
      <point x="475" y="566"/>
      <point x="520" y="566" type="curve" smooth="yes"/>
      <point x="548" y="566"/>
      <point x="574" y="525"/>
      <point x="574" y="494" type="curve" smooth="yes"/>
      <point x="574" y="414"/>
      <point x="463" y="342"/>
      <point x="384" y="331" type="curve" smooth="yes"/>
      <point x="365" y="328"/>
      <point x="347" y="329"/>
      <point x="334" y="335" type="curve"/>
      <point x="294" y="332"/>
      <point x="275" y="299"/>
      <point x="264" y="262" type="curve"/>
      <point x="330" y="197"/>
      <point x="437" y="70"/>
      <point x="504" y="0" type="curve"/>
      <point x="518" y="-1"/>
      <point x="536" y="11"/>
      <point x="543" y="35" type="curve"/>
      <point x="483" y="102"/>
      <point x="389" y="214"/>
      <point x="348" y="264" type="curve"/>
      <point x="353" y="272" type="line"/>
      <point x="472" y="267"/>
      <point x="648" y="398"/>
    </contour>
  </outline>
</glyph>
<glyph name="dvB_SHA" format="1">
  <advance width="836"/>
  <outline>
    <contour>
      <point x="243" y="241" type="curve"/>
      <point x="274" y="272" type="line"/>
      <point x="227" y="321"/>
      <point x="182" y="377"/>
      <point x="141" y="435" type="curve"/>
      <point x="102" y="411" type="line"/>
      <point x="139" y="356"/>
      <point x="200" y="284"/>
    </contour>
    <contour>
      <point x="290" y="313" type="line"/>
      <point x="241" y="266"/>
      <point x="192" y="218"/>
      <point x="143" y="171" type="curve"/>
      <point x="110" y="187"/>
      <point x="94" y="226"/>
      <point x="94" y="268" type="curve" smooth="yes"/>
      <point x="94" y="359"/>
      <point x="162" y="453"/>
      <point x="215" y="453" type="curve" smooth="yes"/>
      <point x="249" y="453"/>
      <point x="291" y="358"/>
      <point x="309" y="310" type="curve"/>
      <point x="345" y="325" type="line"/>
      <point x="323" y="379"/>
      <point x="284" y="504"/>
      <point x="214" y="504" type="curve" smooth="yes"/>
      <point x="108" y="504"/>
      <point x="20" y="372"/>
      <point x="20" y="268" type="curve" smooth="yes"/>
      <point x="20" y="182"/>
      <point x="71" y="127"/>
      <point x="161" y="122" type="curve"/>
      <point x="214" y="181"/>
      <point x="267" y="241"/>
      <point x="320" y="300" type="curve"/>
    </contour>
    <contour>
      <point x="414" y="573" type="line"/>
      <point x="427" y="581"/>
      <point x="435" y="595"/>
      <point x="439" y="608" type="curve"/>
      <point x="427" y="619" type="line"/>
      <point x="33" y="619" type="line"/>
      <point x="20" y="611"/>
      <point x="12" y="597"/>
      <point x="8" y="584" type="curve"/>
      <point x="20" y="573" type="line"/>
    </contour>
    <contour>
      <point x="878" y="619" type="line"/>
      <point x="862" y="641"/>
      <point x="837" y="649"/>
      <point x="791" y="649" type="curve"/>
      <point x="644" y="23" type="line"/>
      <point x="658" y="6"/>
      <point x="682" y="-5"/>
      <point x="725" y="0" type="curve"/>
      <point x="796" y="441" type="line"/>
    </contour>
    <contour>
      <point x="964" y="573" type="line"/>
      <point x="977" y="581"/>
      <point x="985" y="595"/>
      <point x="989" y="608" type="curve"/>
      <point x="977" y="619" type="line"/>
      <point x="699" y="619" type="line"/>
      <point x="686" y="611"/>
      <point x="678" y="597"/>
      <point x="674" y="584" type="curve"/>
      <point x="686" y="573" type="line"/>
    </contour>
    <contour>
      <point x="582" y="523" type="curve"/>
      <point x="582" y="427"/>
      <point x="474" y="338"/>
      <point x="382" y="331" type="curve" smooth="yes"/>
      <point x="365" y="329"/>
      <point x="349" y="331"/>
      <point x="334" y="335" type="curve"/>
      <point x="294" y="332"/>
      <point x="275" y="299"/>
      <point x="264" y="262" type="curve"/>
      <point x="330" y="197"/>
      <point x="437" y="70"/>
      <point x="504" y="0" type="curve"/>
      <point x="518" y="-1"/>
      <point x="536" y="11"/>
      <point x="543" y="35" type="curve"/>
      <point x="483" y="102"/>
      <point x="389" y="214"/>
      <point x="348" y="264" type="curve"/>
      <point x="353" y="272" type="line"/>
      <point x="509" y="279"/>
      <point x="648" y="396"/>
      <point x="648" y="525" type="curve" smooth="yes"/>
      <point x="648" y="607"/>
      <point x="598" y="689"/>
      <point x="531" y="689" type="curve" smooth="yes"/>
      <point x="454" y="689"/>
      <point x="370" y="593"/>
      <point x="370" y="552" type="curve" smooth="yes"/>
      <point x="370" y="526"/>
      <point x="408" y="479"/>
      <point x="437" y="464" type="curve"/>
      <point x="580" y="443" type="line"/>
      <point x="590" y="480" type="line"/>
      <point x="464" y="508" type="line"/>
      <point x="451" y="516"/>
      <point x="430" y="539"/>
      <point x="430" y="555" type="curve" smooth="yes"/>
      <point x="430" y="583"/>
      <point x="490" y="636"/>
      <point x="522" y="636" type="curve" smooth="yes"/>
      <point x="563" y="636"/>
      <point x="582" y="581"/>
    </contour>
  </outline>
</glyph>
<glyph name="dvB_YA" format="1">
  <advance width="729"/>
  <outline>
    <contour>
      <point x="240" y="234" type="curve"/>
      <point x="271" y="265" type="line"/>
      <point x="224" y="314"/>
      <point x="179" y="370"/>
      <point x="138" y="428" type="curve"/>
      <point x="99" y="404" type="line"/>
      <point x="136" y="349"/>
      <point x="197" y="277"/>
    </contour>
    <contour>
      <point x="305" y="362" type="curve"/>
      <point x="270" y="306"/>
      <point x="188" y="201"/>
      <point x="143" y="151" type="curve"/>
      <point x="110" y="167"/>
      <point x="94" y="206"/>
      <point x="94" y="248" type="curve" smooth="yes"/>
      <point x="94" y="359"/>
      <point x="162" y="453"/>
      <point x="226" y="453" type="curve" smooth="yes"/>
      <point x="261" y="453"/>
      <point x="287" y="410"/>
    </contour>
    <contour>
      <point x="337" y="344" type="curve"/>
      <point x="326" y="423"/>
      <point x="284" y="504"/>
      <point x="222" y="504" type="curve" smooth="yes"/>
      <point x="108" y="504"/>
      <point x="20" y="372"/>
      <point x="20" y="248" type="curve" smooth="yes"/>
      <point x="20" y="162"/>
      <point x="71" y="107"/>
      <point x="161" y="102" type="curve"/>
      <point x="207" y="165"/>
      <point x="291" y="281"/>
    </contour>
    <contour>
      <point x="385" y="573" type="line"/>
      <point x="398" y="581"/>
      <point x="406" y="595"/>
      <point x="410" y="608" type="curve"/>
      <point x="398" y="619" type="line"/>
      <point x="34" y="619" type="line"/>
      <point x="21" y="611"/>
      <point x="13" y="597"/>
      <point x="9" y="584" type="curve"/>
      <point x="21" y="573" type="line"/>
    </contour>
    <contour>
      <point x="771" y="619" type="line"/>
      <point x="755" y="641"/>
      <point x="730" y="649"/>
      <point x="684" y="649" type="curve"/>
      <point x="609" y="328" type="line"/>
      <point x="628" y="313" type="line"/>
      <point x="589" y="241" type="line"/>
      <point x="537" y="23" type="line"/>
      <point x="551" y="6"/>
      <point x="575" y="-5"/>
      <point x="618" y="0" type="curve"/>
      <point x="689" y="441" type="line"/>
    </contour>
    <contour>
      <point x="857" y="573" type="line"/>
      <point x="870" y="581"/>
      <point x="878" y="595"/>
      <point x="882" y="608" type="curve"/>
      <point x="870" y="619" type="line"/>
      <point x="241" y="619" type="line"/>
      <point x="228" y="611"/>
      <point x="220" y="597"/>
      <point x="216" y="584" type="curve"/>
      <point x="228" y="573" type="line"/>
    </contour>
    <contour>
      <point x="295" y="550" type="curve"/>
      <point x="293" y="533"/>
      <point x="308" y="521"/>
      <point x="327" y="516" type="curve"/>
      <point x="365" y="547"/>
      <point x="400" y="568"/>
      <point x="439" y="568" type="curve" smooth="yes"/>
      <point x="459" y="568"/>
      <point x="485" y="556"/>
      <point x="485" y="536" type="curve" smooth="yes"/>
      <point x="485" y="442"/>
      <point x="223" y="358"/>
      <point x="223" y="274" type="curve" smooth="yes"/>
      <point x="223" y="225"/>
      <point x="312" y="151"/>
      <point x="365" y="151" type="curve" smooth="yes"/>
      <point x="445" y="151"/>
      <point x="597" y="276"/>
      <point x="662" y="385" type="curve"/>
      <point x="629" y="413" type="line"/>
      <point x="574" y="315"/>
      <point x="426" y="201"/>
      <point x="375" y="201" type="curve" smooth="yes"/>
      <point x="338" y="201"/>
      <point x="293" y="244"/>
      <point x="293" y="270" type="curve" smooth="yes"/>
      <point x="293" y="327"/>
      <point x="555" y="432"/>
      <point x="555" y="539" type="curve" smooth="yes"/>
      <point x="555" y="584"/>
      <point x="485" y="619"/>
      <point x="436" y="619" type="curve" smooth="yes"/>
      <point x="392" y="619"/>
      <point x="325" y="584"/>
    </contour>
  </outline>
</glyph>
<glyph name="dvC" format="1">
  <advance width="404"/>
  <outline>
    <contour>
      <point x="569" y="573" type="line"/>
      <point x="582" y="581"/>
      <point x="590" y="595"/>
      <point x="594" y="608" type="curve"/>
      <point x="582" y="619" type="line"/>
      <point x="34" y="619" type="line"/>
      <point x="21" y="611"/>
      <point x="13" y="597"/>
      <point x="9" y="584" type="curve"/>
      <point x="21" y="573" type="line"/>
    </contour>
    <contour>
      <point x="44" y="390" type="curve"/>
      <point x="119" y="385"/>
      <point x="211" y="396"/>
      <point x="277" y="404" type="curve"/>
      <point x="278" y="397" type="line"/>
      <point x="219" y="369"/>
      <point x="90" y="320"/>
      <point x="90" y="273" type="curve" smooth="yes"/>
      <point x="90" y="223"/>
      <point x="173" y="150"/>
      <point x="235" y="150" type="curve" smooth="yes"/>
      <point x="327" y="150"/>
      <point x="453" y="267"/>
      <point x="533" y="381" type="curve"/>
      <point x="497" y="412" type="line"/>
      <point x="440" y="313"/>
      <point x="313" y="214"/>
      <point x="262" y="214" type="curve" smooth="yes"/>
      <point x="226" y="214"/>
      <point x="179" y="254"/>
      <point x="179" y="281" type="curve" smooth="yes"/>
      <point x="179" y="311"/>
      <point x="281" y="355"/>
      <point x="348" y="382" type="curve"/>
      <point x="350" y="401"/>
      <point x="341" y="445"/>
      <point x="328" y="449" type="curve"/>
      <point x="239" y="444"/>
      <point x="135" y="450"/>
      <point x="41" y="466" type="curve"/>
      <point x="29" y="455"/>
      <point x="32" y="409"/>
    </contour>
  </outline>
</glyph>
<glyph name="dvC_CH_VA" format="1">
  <advance width="1033"/>
  <outline>
    <contour>
      <point x="725" y="-203" type="move" name="blwm"/>
    </contour>
    <contour>
      <point x="826" y="649" type="move" name="abvm"/>
    </contour>
    <contour>
      <point x="569" y="573" type="line"/>
      <point x="582" y="581"/>
      <point x="590" y="595"/>
      <point x="594" y="608" type="curve"/>
      <point x="582" y="619" type="line"/>
      <point x="34" y="619" type="line"/>
      <point x="21" y="611"/>
      <point x="13" y="597"/>
      <point x="9" y="584" type="curve"/>
      <point x="21" y="573" type="line"/>
    </contour>
    <contour>
      <point x="44" y="390" type="curve"/>
      <point x="119" y="385"/>
      <point x="211" y="396"/>
      <point x="277" y="404" type="curve"/>
      <point x="278" y="397" type="line"/>
      <point x="219" y="369"/>
      <point x="90" y="320"/>
      <point x="90" y="273" type="curve" smooth="yes"/>
      <point x="90" y="223"/>
      <point x="173" y="150"/>
      <point x="235" y="150" type="curve" smooth="yes"/>
      <point x="327" y="150"/>
      <point x="453" y="267"/>
      <point x="533" y="381" type="curve"/>
      <point x="497" y="412" type="line"/>
      <point x="440" y="313"/>
      <point x="313" y="214"/>
      <point x="262" y="214" type="curve" smooth="yes"/>
      <point x="226" y="214"/>
      <point x="179" y="254"/>
      <point x="179" y="281" type="curve" smooth="yes"/>
      <point x="179" y="311"/>
      <point x="281" y="355"/>
      <point x="348" y="382" type="curve"/>
      <point x="350" y="401"/>
      <point x="341" y="445"/>
      <point x="328" y="449" type="curve"/>
      <point x="239" y="444"/>
      <point x="135" y="450"/>
      <point x="41" y="466" type="curve"/>
      <point x="29" y="455"/>
      <point x="32" y="409"/>
    </contour>
    <contour>
      <point x="1090" y="573" type="line"/>
      <point x="1103" y="581"/>
      <point x="1111" y="595"/>
      <point x="1115" y="608" type="curve"/>
      <point x="1103" y="619" type="line"/>
      <point x="472" y="619" type="line"/>
      <point x="459" y="611"/>
      <point x="451" y="597"/>
      <point x="447" y="584" type="curve"/>
      <point x="459" y="573" type="line"/>
    </contour>
    <contour>
      <point x="897" y="179" type="curve"/>
      <point x="889" y="298"/>
      <point x="850" y="430"/>
      <point x="865" y="498" type="curve"/>
      <point x="869" y="511"/>
      <point x="873" y="520"/>
      <point x="882" y="523" type="curve"/>
      <point x="900" y="514"/>
      <point x="918" y="495"/>
      <point x="916" y="483" type="curve"/>
      <point x="908" y="405"/>
      <point x="694" y="194"/>
      <point x="558" y="156" type="curve"/>
      <point x="551" y="162" type="line"/>
      <point x="592" y="217"/>
      <point x="661" y="286"/>
      <point x="718" y="331" type="curve"/>
      <point x="727" y="363"/>
      <point x="712" y="390"/>
      <point x="671" y="400" type="curve"/>
      <point x="627" y="390"/>
      <point x="580" y="378"/>
      <point x="542" y="375" type="curve"/>
      <point x="536" y="386" type="line"/>
      <point x="589" y="438"/>
      <point x="676" y="521"/>
      <point x="775" y="572" type="curve"/>
      <point x="745" y="618" type="line"/>
      <point x="643" y="568"/>
      <point x="530" y="465"/>
      <point x="472" y="400" type="curve"/>
      <point x="467" y="370"/>
      <point x="493" y="334"/>
      <point x="524" y="318" type="curve"/>
      <point x="568" y="324"/>
      <point x="615" y="339"/>
      <point x="653" y="349" type="curve"/>
      <point x="656" y="344" type="line"/>
      <point x="598" y="306"/>
      <point x="540" y="241"/>
      <point x="485" y="173" type="curve"/>
      <point x="482" y="139"/>
      <point x="518" y="111"/>
      <point x="555" y="97" type="curve"/>
      <point x="686" y="127"/>
      <point x="965" y="360"/>
      <point x="978" y="485" type="curve"/>
      <point x="982" y="522"/>
      <point x="938" y="566"/>
      <point x="899" y="581" type="curve"/>
      <point x="858" y="578"/>
      <point x="822" y="545"/>
      <point x="810" y="528" type="curve"/>
      <point x="786" y="434"/>
      <point x="844" y="286"/>
      <point x="851" y="173" type="curve"/>
      <point x="829" y="60"/>
      <point x="768" y="-113"/>
      <point x="725" y="-202" type="curve"/>
      <point x="724" y="-223"/>
      <point x="749" y="-236"/>
      <point x="779" y="-233" type="curve"/>
      <point x="812" y="-135"/>
      <point x="881" y="51"/>
    </contour>
    <contour>
      <point x="764" y="146" type="curve"/>
      <point x="668" y="146"/>
      <point x="581" y="42"/>
      <point x="570" y="-54" type="curve"/>
      <point x="562" y="-124"/>
      <point x="600" y="-168"/>
      <point x="677" y="-171" type="curve"/>
      <point x="727" y="-120"/>
      <point x="781" y="-67"/>
      <point x="831" y="-15" type="curve"/>
      <point x="805" y="3" type="line"/>
      <point x="758" y="-41"/>
      <point x="711" y="-82"/>
      <point x="666" y="-124" type="curve"/>
      <point x="643" y="-112"/>
      <point x="635" y="-85"/>
      <point x="638" y="-54" type="curve"/>
      <point x="649" y="23"/>
      <point x="711" y="99"/>
      <point x="761" y="99" type="curve"/>
      <point x="788" y="99"/>
      <point x="805" y="64"/>
      <point x="814" y="27" type="curve"/>
      <point x="849" y="47" type="line"/>
      <point x="833" y="89"/>
      <point x="818" y="146"/>
    </contour>
  </outline>
</glyph>
<glyph name="dvC_NA" format="1">
  <advance width="857"/>
  <outline>
    <contour>
      <point x="569" y="573" type="line"/>
      <point x="582" y="581"/>
      <point x="590" y="595"/>
      <point x="594" y="608" type="curve"/>
      <point x="582" y="619" type="line"/>
      <point x="34" y="619" type="line"/>
      <point x="21" y="611"/>
      <point x="13" y="597"/>
      <point x="9" y="584" type="curve"/>
      <point x="21" y="573" type="line"/>
    </contour>
    <contour>
      <point x="44" y="390" type="curve"/>
      <point x="119" y="385"/>
      <point x="211" y="396"/>
      <point x="277" y="404" type="curve"/>
      <point x="278" y="397" type="line"/>
      <point x="219" y="369"/>
      <point x="90" y="320"/>
      <point x="90" y="273" type="curve" smooth="yes"/>
      <point x="90" y="223"/>
      <point x="173" y="150"/>
      <point x="235" y="150" type="curve" smooth="yes"/>
      <point x="303" y="150"/>
      <point x="378" y="210"/>
      <point x="433" y="261" type="curve"/>
      <point x="395" y="289" type="line"/>
      <point x="351" y="251"/>
      <point x="294" y="214"/>
      <point x="262" y="214" type="curve" smooth="yes"/>
      <point x="226" y="214"/>
      <point x="179" y="254"/>
      <point x="179" y="281" type="curve" smooth="yes"/>
      <point x="179" y="311"/>
      <point x="281" y="355"/>
      <point x="348" y="382" type="curve"/>
      <point x="350" y="401"/>
      <point x="341" y="445"/>
      <point x="328" y="449" type="curve"/>
      <point x="239" y="444"/>
      <point x="135" y="450"/>
      <point x="41" y="466" type="curve"/>
      <point x="29" y="455"/>
      <point x="32" y="409"/>
    </contour>
    <contour>
      <point x="985" y="573" type="line"/>
      <point x="998" y="581"/>
      <point x="1006" y="595"/>
      <point x="1010" y="608" type="curve"/>
      <point x="998" y="619" type="line"/>
      <point x="397" y="619" type="line"/>
      <point x="384" y="611"/>
      <point x="376" y="597"/>
      <point x="372" y="584" type="curve"/>
      <point x="384" y="573" type="line"/>
    </contour>
    <contour>
      <point x="860" y="507" type="line"/>
      <point x="839" y="530"/>
      <point x="810" y="541"/>
      <point x="776" y="543" type="curve"/>
      <point x="763" y="485" type="line"/>
      <point x="773" y="480" type="line"/>
      <point x="665" y="23" type="line"/>
      <point x="679" y="6"/>
      <point x="703" y="-5"/>
      <point x="746" y="0" type="curve"/>
      <point x="811" y="400" type="line"/>
    </contour>
    <contour>
      <point x="503" y="335" type="line"/>
      <point x="513" y="299"/>
      <point x="518" y="267"/>
      <point x="510" y="227" type="curve"/>
      <point x="501" y="220" type="line"/>
      <point x="466" y="229"/>
      <point x="444" y="248"/>
      <point x="423" y="284" type="curve"/>
      <point x="418" y="250" type="line"/>
      <point x="552" y="337"/>
      <point x="672" y="416"/>
      <point x="806" y="515" type="curve"/>
      <point x="776" y="543" type="line"/>
      <point x="661" y="454"/>
      <point x="524" y="372"/>
      <point x="402" y="297" type="curve"/>
      <point x="387" y="283"/>
      <point x="380" y="264"/>
      <point x="377" y="242" type="curve"/>
      <point x="407" y="192"/>
      <point x="460" y="169"/>
      <point x="512" y="164" type="curve"/>
      <point x="537" y="172"/>
      <point x="559" y="186"/>
      <point x="573" y="200" type="curve"/>
      <point x="575" y="256"/>
      <point x="568" y="315"/>
      <point x="542" y="363" type="curve"/>
    </contour>
  </outline>
</glyph>
<glyph name="dvC_R" format="1">
  <advance width="404"/>
  <outline>
    <contour>
      <point x="580" y="573" type="line"/>
      <point x="593" y="581"/>
      <point x="601" y="595"/>
      <point x="605" y="608" type="curve"/>
      <point x="593" y="619" type="line"/>
      <point x="34" y="619" type="line"/>
      <point x="21" y="611"/>
      <point x="13" y="597"/>
      <point x="9" y="584" type="curve"/>
      <point x="21" y="573" type="line"/>
    </contour>
    <contour>
      <point x="44" y="390" type="curve"/>
      <point x="119" y="385"/>
      <point x="211" y="396"/>
      <point x="277" y="404" type="curve"/>
      <point x="278" y="397" type="line"/>
      <point x="219" y="369"/>
      <point x="90" y="320"/>
      <point x="90" y="273" type="curve" smooth="yes"/>
      <point x="90" y="223"/>
      <point x="173" y="150"/>
      <point x="235" y="150" type="curve" smooth="yes"/>
      <point x="327" y="150"/>
      <point x="453" y="267"/>
      <point x="533" y="381" type="curve"/>
      <point x="497" y="412" type="line"/>
      <point x="440" y="313"/>
      <point x="313" y="214"/>
      <point x="262" y="214" type="curve" smooth="yes"/>
      <point x="226" y="214"/>
      <point x="179" y="254"/>
      <point x="179" y="281" type="curve" smooth="yes"/>
      <point x="179" y="311"/>
      <point x="281" y="355"/>
      <point x="348" y="382" type="curve"/>
      <point x="350" y="401"/>
      <point x="341" y="445"/>
      <point x="328" y="449" type="curve"/>
      <point x="239" y="444"/>
      <point x="135" y="450"/>
      <point x="41" y="466" type="curve"/>
      <point x="29" y="455"/>
      <point x="32" y="409"/>
    </contour>
    <contour>
      <point x="502" y="244" type="curve"/>
      <point x="494" y="345" type="line"/>
      <point x="455" y="286" type="line"/>
      <point x="469" y="272" type="line"/>
      <point x="416" y="169"/>
      <point x="279" y="89"/>
      <point x="158" y="36" type="curve"/>
      <point x="154" y="16"/>
      <point x="159" y="1"/>
      <point x="192" y="-20" type="curve"/>
      <point x="312" y="48"/>
      <point x="449" y="135"/>
    </contour>
  </outline>
</glyph>
<glyph name="dvC_YA" format="1">
  <advance width="909"/>
  <outline>
    <contour>
      <point x="569" y="573" type="line"/>
      <point x="582" y="581"/>
      <point x="590" y="595"/>
      <point x="594" y="608" type="curve"/>
      <point x="582" y="619" type="line"/>
      <point x="34" y="619" type="line"/>
      <point x="21" y="611"/>
      <point x="13" y="597"/>
      <point x="9" y="584" type="curve"/>
      <point x="21" y="573" type="line"/>
    </contour>
    <contour>
      <point x="44" y="390" type="curve"/>
      <point x="119" y="385"/>
      <point x="211" y="396"/>
      <point x="277" y="404" type="curve"/>
      <point x="278" y="397" type="line"/>
      <point x="219" y="369"/>
      <point x="90" y="320"/>
      <point x="90" y="273" type="curve" smooth="yes"/>
      <point x="90" y="223"/>
      <point x="173" y="150"/>
      <point x="235" y="150" type="curve" smooth="yes"/>
      <point x="321" y="150"/>
      <point x="408" y="240"/>
      <point x="480" y="306" type="curve"/>
      <point x="429" y="323" type="line"/>
      <point x="381" y="273"/>
      <point x="307" y="214"/>
      <point x="262" y="214" type="curve" smooth="yes"/>
      <point x="226" y="214"/>
      <point x="179" y="254"/>
      <point x="179" y="281" type="curve" smooth="yes"/>
      <point x="179" y="311"/>
      <point x="281" y="355"/>
      <point x="348" y="382" type="curve"/>
      <point x="350" y="401"/>
      <point x="341" y="445"/>
      <point x="328" y="449" type="curve"/>
      <point x="239" y="444"/>
      <point x="135" y="450"/>
      <point x="41" y="466" type="curve"/>
      <point x="29" y="455"/>
      <point x="32" y="409"/>
    </contour>
    <contour>
      <point x="951" y="619" type="line"/>
      <point x="935" y="641"/>
      <point x="910" y="649"/>
      <point x="864" y="649" type="curve"/>
      <point x="789" y="328" type="line"/>
      <point x="808" y="313" type="line"/>
      <point x="769" y="241" type="line"/>
      <point x="717" y="23" type="line"/>
      <point x="731" y="6"/>
      <point x="755" y="-5"/>
      <point x="798" y="0" type="curve"/>
      <point x="869" y="441" type="line"/>
    </contour>
    <contour>
      <point x="1037" y="573" type="line"/>
      <point x="1050" y="581"/>
      <point x="1058" y="595"/>
      <point x="1062" y="608" type="curve"/>
      <point x="1050" y="619" type="line"/>
      <point x="421" y="619" type="line"/>
      <point x="408" y="611"/>
      <point x="400" y="597"/>
      <point x="396" y="584" type="curve"/>
      <point x="408" y="573" type="line"/>
    </contour>
    <contour>
      <point x="475" y="550" type="curve"/>
      <point x="473" y="533"/>
      <point x="488" y="521"/>
      <point x="507" y="516" type="curve"/>
      <point x="545" y="547"/>
      <point x="580" y="568"/>
      <point x="619" y="568" type="curve" smooth="yes"/>
      <point x="639" y="568"/>
      <point x="665" y="556"/>
      <point x="665" y="536" type="curve" smooth="yes"/>
      <point x="665" y="442"/>
      <point x="403" y="358"/>
      <point x="403" y="274" type="curve" smooth="yes"/>
      <point x="403" y="225"/>
      <point x="492" y="151"/>
      <point x="545" y="151" type="curve" smooth="yes"/>
      <point x="625" y="151"/>
      <point x="777" y="276"/>
      <point x="842" y="385" type="curve"/>
      <point x="809" y="413" type="line"/>
      <point x="754" y="315"/>
      <point x="606" y="201"/>
      <point x="555" y="201" type="curve" smooth="yes"/>
      <point x="518" y="201"/>
      <point x="473" y="244"/>
      <point x="473" y="270" type="curve" smooth="yes"/>
      <point x="473" y="327"/>
      <point x="735" y="432"/>
      <point x="735" y="539" type="curve" smooth="yes"/>
      <point x="735" y="584"/>
      <point x="665" y="619"/>
      <point x="616" y="619" type="curve" smooth="yes"/>
      <point x="572" y="619"/>
      <point x="505" y="584"/>
    </contour>
  </outline>
</glyph>
<glyph name="dvDDH_R" format="1">
  <advance width="488"/>
  <outline>
    <contour>
      <point x="307" y="-113" type="curve"/>
      <point x="271" y="-64"/>
      <point x="272" y="-46"/>
      <point x="268" y="8" type="curve"/>
      <point x="248" y="24"/>
      <point x="230" y="30"/>
      <point x="208" y="30" type="curve"/>
      <point x="156" y="0"/>
      <point x="116" y="-44"/>
      <point x="73" y="-99" type="curve"/>
      <point x="72" y="-117"/>
      <point x="87" y="-138"/>
      <point x="136" y="-136" type="curve"/>
      <point x="155" y="-77"/>
      <point x="184" y="-37"/>
      <point x="219" y="-7" type="curve"/>
      <point x="224" y="-9" type="line"/>
      <point x="219" y="-56"/>
      <point x="236" y="-97"/>
      <point x="272" y="-141" type="curve"/>
      <point x="294" y="-137"/>
      <point x="309" y="-128"/>
    </contour>
    <contour>
      <point x="598" y="573" type="line"/>
      <point x="611" y="581"/>
      <point x="619" y="595"/>
      <point x="623" y="608" type="curve"/>
      <point x="611" y="619" type="line"/>
      <point x="53" y="619" type="line"/>
      <point x="40" y="611"/>
      <point x="32" y="597"/>
      <point x="28" y="584" type="curve"/>
      <point x="40" y="573" type="line"/>
    </contour>
    <contour>
      <point x="274" y="610" type="curve"/>
      <point x="240" y="582" type="line"/>
      <point x="297" y="543"/>
      <point x="329" y="526"/>
      <point x="348" y="490" type="curve"/>
      <point x="344" y="481" type="line"/>
      <point x="298" y="424"/>
      <point x="124" y="346"/>
      <point x="56" y="285" type="curve"/>
      <point x="41" y="266"/>
      <point x="33" y="239"/>
      <point x="32" y="219" type="curve"/>
      <point x="55" y="149"/>
      <point x="145" y="62"/>
      <point x="225" y="62" type="curve"/>
      <point x="299" y="62"/>
      <point x="444" y="152"/>
      <point x="444" y="208" type="curve"/>
      <point x="444" y="242"/>
      <point x="389" y="295"/>
      <point x="335" y="300" type="curve"/>
      <point x="247" y="234"/>
      <point x="228" y="211"/>
      <point x="146" y="147" type="curve"/>
      <point x="172" y="118" type="line"/>
      <point x="245" y="174"/>
      <point x="294" y="217"/>
      <point x="337" y="245" type="curve"/>
      <point x="356" y="238"/>
      <point x="375" y="221"/>
      <point x="378" y="205" type="curve"/>
      <point x="353" y="157"/>
      <point x="297" y="120"/>
      <point x="226" y="105" type="curve"/>
      <point x="166" y="125"/>
      <point x="106" y="180"/>
      <point x="106" y="230" type="curve"/>
      <point x="106" y="288"/>
      <point x="330" y="369"/>
      <point x="391" y="450" type="curve"/>
      <point x="406" y="472"/>
      <point x="409" y="487"/>
      <point x="403" y="504" type="curve"/>
      <point x="387" y="546"/>
      <point x="325" y="577"/>
    </contour>
    <contour>
      <point x="347" y="-286" type="curve"/>
      <point x="358" y="-281"/>
      <point x="363" y="-273"/>
      <point x="364" y="-260" type="curve"/>
      <point x="310" y="-208"/>
      <point x="230" y="-169"/>
      <point x="161" y="-154" type="curve"/>
      <point x="138" y="-160"/>
      <point x="129" y="-179"/>
      <point x="133" y="-211" type="curve"/>
      <point x="220" y="-227"/>
      <point x="281" y="-242"/>
    </contour>
  </outline>
</glyph>
<glyph name="dvDDH_YA" format="1">
  <advance width="938"/>
  <outline>
    <contour>
      <point x="598" y="573" type="line"/>
      <point x="611" y="581"/>
      <point x="619" y="595"/>
      <point x="623" y="608" type="curve"/>
      <point x="611" y="619" type="line"/>
      <point x="53" y="619" type="line"/>
      <point x="40" y="611"/>
      <point x="32" y="597"/>
      <point x="28" y="584" type="curve"/>
      <point x="40" y="573" type="line"/>
    </contour>
    <contour>
      <point x="980" y="619" type="line"/>
      <point x="964" y="641"/>
      <point x="939" y="649"/>
      <point x="893" y="649" type="curve"/>
      <point x="811" y="298" type="line"/>
      <point x="830" y="283" type="line"/>
      <point x="791" y="211" type="line"/>
      <point x="746" y="23" type="line"/>
      <point x="760" y="6"/>
      <point x="784" y="-5"/>
      <point x="827" y="0" type="curve"/>
      <point x="898" y="441" type="line"/>
    </contour>
    <contour>
      <point x="1066" y="573" type="line"/>
      <point x="1079" y="581"/>
      <point x="1087" y="595"/>
      <point x="1091" y="608" type="curve"/>
      <point x="1079" y="619" type="line"/>
      <point x="450" y="619" type="line"/>
      <point x="437" y="611"/>
      <point x="429" y="597"/>
      <point x="425" y="584" type="curve"/>
      <point x="437" y="573" type="line"/>
    </contour>
    <contour>
      <point x="271" y="609" type="curve"/>
      <point x="236" y="580" type="line"/>
      <point x="291" y="545"/>
      <point x="329" y="524"/>
      <point x="349" y="486" type="curve"/>
      <point x="345" y="475" type="line"/>
      <point x="297" y="416"/>
      <point x="114" y="335"/>
      <point x="43" y="272" type="curve"/>
      <point x="27" y="253"/>
      <point x="19" y="225"/>
      <point x="18" y="205" type="curve"/>
      <point x="42" y="133"/>
      <point x="135" y="43"/>
      <point x="219" y="43" type="curve" smooth="yes"/>
      <point x="297" y="43"/>
      <point x="448" y="136"/>
      <point x="448" y="193" type="curve" smooth="yes"/>
      <point x="448" y="229"/>
      <point x="391" y="282"/>
      <point x="335" y="288" type="curve"/>
      <point x="257" y="229"/>
      <point x="200" y="178"/>
      <point x="138" y="129" type="curve"/>
      <point x="165" y="102" type="line"/>
      <point x="221" y="145"/>
      <point x="291" y="202"/>
      <point x="337" y="233" type="curve"/>
      <point x="358" y="225"/>
      <point x="378" y="208"/>
      <point x="381" y="190" type="curve"/>
      <point x="355" y="139"/>
      <point x="295" y="101"/>
      <point x="220" y="86" type="curve"/>
      <point x="157" y="105"/>
      <point x="94" y="164"/>
      <point x="94" y="219" type="curve" smooth="yes"/>
      <point x="94" y="272"/>
      <point x="284" y="354"/>
      <point x="385" y="434" type="curve"/>
      <point x="503" y="483"/>
      <point x="631" y="503"/>
      <point x="704" y="495" type="curve"/>
      <point x="716" y="397"/>
      <point x="456" y="331"/>
      <point x="456" y="254" type="curve" smooth="yes"/>
      <point x="456" y="211"/>
      <point x="540" y="146"/>
      <point x="596" y="146" type="curve" smooth="yes"/>
      <point x="665" y="146"/>
      <point x="808" y="255"/>
      <point x="867" y="349" type="curve"/>
      <point x="830" y="378" type="line"/>
      <point x="788" y="299"/>
      <point x="655" y="203"/>
      <point x="604" y="198" type="curve"/>
      <point x="566" y="198"/>
      <point x="528" y="232"/>
      <point x="528" y="251" type="curve" smooth="yes"/>
      <point x="528" y="292"/>
      <point x="767" y="383"/>
      <point x="767" y="490" type="curve"/>
      <point x="751" y="519"/>
      <point x="731" y="534"/>
      <point x="688" y="549" type="curve"/>
      <point x="583" y="542"/>
      <point x="499" y="525"/>
      <point x="408" y="489" type="curve"/>
      <point x="407" y="493"/>
      <point x="406" y="496"/>
      <point x="405" y="500" type="curve"/>
      <point x="388" y="543"/>
      <point x="324" y="575"/>
    </contour>
  </outline>
</glyph>
<glyph name="dvDD_YA" format="1">
  <advance width="898"/>
  <outline>
    <contour>
      <point x="827" y="349" type="curve"/>
      <point x="790" y="378" type="line"/>
      <point x="748" y="299"/>
      <point x="615" y="203"/>
      <point x="564" y="198" type="curve"/>
      <point x="526" y="198"/>
      <point x="488" y="232"/>
      <point x="488" y="251" type="curve" smooth="yes"/>
      <point x="488" y="292"/>
      <point x="727" y="383"/>
      <point x="727" y="490" type="curve"/>
      <point x="711" y="519"/>
      <point x="691" y="534"/>
      <point x="648" y="549" type="curve"/>
      <point x="549" y="542"/>
      <point x="468" y="527"/>
      <point x="382" y="494" type="curve"/>
      <point x="382" y="499"/>
      <point x="382" y="503"/>
      <point x="382" y="507" type="curve"/>
      <point x="348" y="558"/>
      <point x="291" y="586"/>
      <point x="242" y="610" type="curve"/>
      <point x="211" y="574" type="line"/>
      <point x="248" y="555"/>
      <point x="298" y="532"/>
      <point x="322" y="494" type="curve"/>
      <point x="320" y="487" type="line"/>
      <point x="259" y="445"/>
      <point x="168" y="422"/>
      <point x="87" y="396" type="curve"/>
      <point x="62" y="384"/>
      <point x="54" y="347"/>
      <point x="57" y="311" type="curve"/>
      <point x="126" y="250"/>
      <point x="255" y="239"/>
      <point x="327" y="184" type="curve"/>
      <point x="326" y="177" type="line"/>
      <point x="243" y="113"/>
      <point x="110" y="89"/>
      <point x="9" y="80" type="curve"/>
      <point x="-6" y="63"/>
      <point x="2" y="38"/>
      <point x="27" y="17" type="curve"/>
      <point x="135" y="30"/>
      <point x="295" y="74"/>
      <point x="358" y="126" type="curve" smooth="yes"/>
      <point x="373" y="139"/>
      <point x="389" y="199"/>
      <point x="375" y="225" type="curve"/>
      <point x="307" y="276"/>
      <point x="189" y="293"/>
      <point x="123" y="339" type="curve"/>
      <point x="124" y="345" type="line"/>
      <point x="204" y="379"/>
      <point x="284" y="415"/>
      <point x="367" y="443" type="curve" smooth="yes"/>
      <point x="462" y="476"/>
      <point x="560" y="498"/>
      <point x="664" y="495" type="curve"/>
      <point x="676" y="397"/>
      <point x="416" y="331"/>
      <point x="416" y="254" type="curve" smooth="yes"/>
      <point x="416" y="211"/>
      <point x="500" y="146"/>
      <point x="556" y="146" type="curve" smooth="yes"/>
      <point x="625" y="146"/>
      <point x="768" y="255"/>
    </contour>
    <contour>
      <point x="554" y="573" type="line"/>
      <point x="567" y="581"/>
      <point x="575" y="595"/>
      <point x="579" y="608" type="curve"/>
      <point x="567" y="619" type="line"/>
      <point x="34" y="619" type="line"/>
      <point x="21" y="611"/>
      <point x="13" y="597"/>
      <point x="9" y="584" type="curve"/>
      <point x="21" y="573" type="line"/>
    </contour>
    <contour>
      <point x="940" y="619" type="line"/>
      <point x="924" y="641"/>
      <point x="899" y="649"/>
      <point x="853" y="649" type="curve"/>
      <point x="771" y="298" type="line"/>
      <point x="790" y="283" type="line"/>
      <point x="751" y="211" type="line"/>
      <point x="706" y="23" type="line"/>
      <point x="720" y="6"/>
      <point x="744" y="-5"/>
      <point x="787" y="0" type="curve"/>
      <point x="858" y="441" type="line"/>
    </contour>
    <contour>
      <point x="1026" y="573" type="line"/>
      <point x="1039" y="581"/>
      <point x="1047" y="595"/>
      <point x="1051" y="608" type="curve"/>
      <point x="1039" y="619" type="line"/>
      <point x="410" y="619" type="line"/>
      <point x="397" y="611"/>
      <point x="389" y="597"/>
      <point x="385" y="584" type="curve"/>
      <point x="397" y="573" type="line"/>
    </contour>
  </outline>
</glyph>
<glyph name="dvDH" format="1">
  <advance width="373"/>
  <outline>
    <contour>
      <point x="561" y="573" type="line"/>
      <point x="574" y="581"/>
      <point x="582" y="595"/>
      <point x="586" y="608" type="curve"/>
      <point x="574" y="619" type="line"/>
      <point x="447" y="619" type="line"/>
      <point x="434" y="611"/>
      <point x="426" y="597"/>
      <point x="422" y="584" type="curve"/>
      <point x="434" y="573" type="line"/>
    </contour>
    <contour>
      <point x="503" y="368" type="curve"/>
      <point x="463" y="401" type="line"/>
      <point x="398" y="317"/>
      <point x="235" y="198"/>
      <point x="131" y="161" type="curve"/>
      <point x="124" y="168" type="line"/>
      <point x="165" y="227"/>
      <point x="232" y="292"/>
      <point x="296" y="346" type="curve"/>
      <point x="290" y="385"/>
      <point x="268" y="413"/>
      <point x="240" y="415" type="curve"/>
      <point x="208" y="402"/>
      <point x="152" y="383"/>
      <point x="110" y="380" type="curve"/>
      <point x="100" y="386"/>
      <point x="91" y="396"/>
      <point x="90" y="408" type="curve"/>
      <point x="119" y="489"/>
      <point x="241" y="596"/>
      <point x="326" y="636" type="curve"/>
      <point x="335" y="634"/>
      <point x="340" y="627"/>
      <point x="342" y="617" type="curve"/>
      <point x="319" y="556"/>
      <point x="218" y="480"/>
      <point x="154" y="465" type="curve"/>
      <point x="79" y="451" type="line"/>
      <point x="83" y="429" type="line"/>
      <point x="159" y="416" type="line"/>
      <point x="250" y="442"/>
      <point x="374" y="528"/>
      <point x="400" y="613" type="curve"/>
      <point x="389" y="663"/>
      <point x="358" y="693"/>
      <point x="325" y="690" type="curve"/>
      <point x="183" y="637"/>
      <point x="58" y="494"/>
      <point x="30" y="420" type="curve"/>
      <point x="25" y="383"/>
      <point x="67" y="343"/>
      <point x="102" y="325" type="curve"/>
      <point x="157" y="332"/>
      <point x="199" y="346"/>
      <point x="230" y="360" type="curve"/>
      <point x="234" y="355" type="line"/>
      <point x="174" y="308"/>
      <point x="117" y="252"/>
      <point x="59" y="179" type="curve"/>
      <point x="59" y="145"/>
      <point x="94" y="115"/>
      <point x="134" y="101" type="curve"/>
      <point x="248" y="137"/>
      <point x="438" y="273"/>
    </contour>
  </outline>
</glyph>
<glyph name="dvDH_NA" format="1">
  <advance width="811"/>
  <outline>
    <contour>
      <point x="384" y="259" type="curve"/>
      <point x="352" y="293" type="line"/>
      <point x="292" y="247"/>
      <point x="221" y="195"/>
      <point x="131" y="161" type="curve"/>
      <point x="124" y="168" type="line"/>
      <point x="165" y="227"/>
      <point x="232" y="292"/>
      <point x="296" y="346" type="curve"/>
      <point x="290" y="385"/>
      <point x="268" y="413"/>
      <point x="240" y="415" type="curve"/>
      <point x="208" y="402"/>
      <point x="152" y="383"/>
      <point x="110" y="380" type="curve"/>
      <point x="100" y="386"/>
      <point x="91" y="396"/>
      <point x="90" y="408" type="curve"/>
      <point x="119" y="489"/>
      <point x="241" y="596"/>
      <point x="326" y="636" type="curve"/>
      <point x="335" y="634"/>
      <point x="340" y="627"/>
      <point x="342" y="617" type="curve"/>
      <point x="319" y="556"/>
      <point x="218" y="480"/>
      <point x="154" y="465" type="curve"/>
      <point x="79" y="451" type="line"/>
      <point x="83" y="429" type="line"/>
      <point x="159" y="416" type="line"/>
      <point x="250" y="442"/>
      <point x="374" y="528"/>
      <point x="400" y="613" type="curve"/>
      <point x="389" y="663"/>
      <point x="358" y="693"/>
      <point x="325" y="690" type="curve"/>
      <point x="183" y="637"/>
      <point x="58" y="494"/>
      <point x="30" y="420" type="curve"/>
      <point x="25" y="383"/>
      <point x="67" y="343"/>
      <point x="102" y="325" type="curve"/>
      <point x="157" y="332"/>
      <point x="199" y="346"/>
      <point x="230" y="360" type="curve"/>
      <point x="234" y="355" type="line"/>
      <point x="174" y="308"/>
      <point x="117" y="252"/>
      <point x="59" y="179" type="curve"/>
      <point x="59" y="145"/>
      <point x="94" y="115"/>
      <point x="134" y="101" type="curve"/>
      <point x="223" y="134"/>
      <point x="316" y="201"/>
    </contour>
    <contour>
      <point x="939" y="573" type="line"/>
      <point x="952" y="581"/>
      <point x="960" y="595"/>
      <point x="964" y="608" type="curve"/>
      <point x="952" y="619" type="line"/>
      <point x="351" y="619" type="line"/>
      <point x="338" y="611"/>
      <point x="330" y="597"/>
      <point x="326" y="584" type="curve"/>
      <point x="338" y="573" type="line"/>
    </contour>
    <contour>
      <point x="814" y="507" type="line"/>
      <point x="793" y="530"/>
      <point x="764" y="541"/>
      <point x="730" y="543" type="curve"/>
      <point x="717" y="485" type="line"/>
      <point x="727" y="480" type="line"/>
      <point x="619" y="23" type="line"/>
      <point x="633" y="6"/>
      <point x="657" y="-5"/>
      <point x="700" y="0" type="curve"/>
      <point x="765" y="400" type="line"/>
    </contour>
    <contour>
      <point x="457" y="335" type="line"/>
      <point x="467" y="299"/>
      <point x="472" y="267"/>
      <point x="464" y="227" type="curve"/>
      <point x="455" y="220" type="line"/>
      <point x="420" y="229"/>
      <point x="398" y="248"/>
      <point x="377" y="284" type="curve"/>
      <point x="372" y="250" type="line"/>
      <point x="506" y="337"/>
      <point x="626" y="416"/>
      <point x="760" y="515" type="curve"/>
      <point x="730" y="543" type="line"/>
      <point x="615" y="454"/>
      <point x="478" y="372"/>
      <point x="356" y="297" type="curve"/>
      <point x="341" y="283"/>
      <point x="334" y="264"/>
      <point x="331" y="242" type="curve"/>
      <point x="361" y="192"/>
      <point x="414" y="169"/>
      <point x="466" y="164" type="curve"/>
      <point x="491" y="172"/>
      <point x="513" y="186"/>
      <point x="527" y="200" type="curve"/>
      <point x="529" y="256"/>
      <point x="522" y="315"/>
      <point x="496" y="363" type="curve"/>
    </contour>
  </outline>
</glyph>
<glyph name="dvDH_RA" format="1">
  <advance width="566"/>
  <outline>
    <contour>
      <point x="426" y="239" type="line"/>
      <point x="341" y="150"/>
      <point x="231" y="79"/>
      <point x="127" y="36" type="curve"/>
      <point x="123" y="16"/>
      <point x="128" y="1"/>
      <point x="161" y="-20" type="curve"/>
      <point x="254" y="30"/>
      <point x="366" y="107"/>
      <point x="421" y="171" type="curve"/>
      <point x="428" y="167" type="line"/>
      <point x="374" y="23" type="line"/>
      <point x="388" y="6"/>
      <point x="412" y="-5"/>
      <point x="455" y="0" type="curve"/>
      <point x="526" y="441" type="line"/>
      <point x="608" y="619" type="line"/>
      <point x="592" y="641"/>
      <point x="567" y="649"/>
      <point x="521" y="649" type="curve"/>
      <point x="443" y="317" type="line"/>
      <point x="462" y="301" type="line"/>
    </contour>
    <contour>
      <point x="694" y="573" type="line"/>
      <point x="707" y="581"/>
      <point x="715" y="595"/>
      <point x="719" y="608" type="curve"/>
      <point x="707" y="619" type="line"/>
      <point x="447" y="619" type="line"/>
      <point x="434" y="611"/>
      <point x="426" y="597"/>
      <point x="422" y="584" type="curve"/>
      <point x="434" y="573" type="line"/>
    </contour>
    <contour>
      <point x="240" y="415" type="curve"/>
      <point x="208" y="402"/>
      <point x="152" y="383"/>
      <point x="110" y="380" type="curve"/>
      <point x="100" y="386"/>
      <point x="91" y="396"/>
      <point x="90" y="408" type="curve"/>
      <point x="119" y="489"/>
      <point x="241" y="596"/>
      <point x="326" y="636" type="curve"/>
      <point x="335" y="634"/>
      <point x="340" y="627"/>
      <point x="342" y="617" type="curve"/>
      <point x="319" y="556"/>
      <point x="218" y="480"/>
      <point x="154" y="465" type="curve"/>
      <point x="79" y="451" type="line"/>
      <point x="83" y="429" type="line"/>
      <point x="159" y="416" type="line"/>
      <point x="250" y="442"/>
      <point x="374" y="528"/>
      <point x="400" y="613" type="curve"/>
      <point x="389" y="663"/>
      <point x="358" y="693"/>
      <point x="325" y="690" type="curve"/>
      <point x="183" y="637"/>
      <point x="58" y="494"/>
      <point x="30" y="420" type="curve"/>
      <point x="25" y="383"/>
      <point x="67" y="343"/>
      <point x="102" y="325" type="curve"/>
      <point x="157" y="332"/>
      <point x="199" y="346"/>
      <point x="230" y="360" type="curve"/>
      <point x="234" y="355" type="line"/>
      <point x="174" y="308"/>
      <point x="117" y="252"/>
      <point x="59" y="179" type="curve"/>
      <point x="59" y="145"/>
      <point x="94" y="115"/>
      <point x="134" y="101" type="curve"/>
      <point x="248" y="137"/>
      <point x="438" y="273"/>
      <point x="503" y="368" type="curve"/>
      <point x="463" y="401" type="line"/>
      <point x="398" y="317"/>
      <point x="235" y="198"/>
      <point x="131" y="161" type="curve"/>
      <point x="124" y="168" type="line"/>
      <point x="165" y="227"/>
      <point x="232" y="292"/>
      <point x="296" y="346" type="curve"/>
      <point x="290" y="385"/>
      <point x="268" y="413"/>
    </contour>
  </outline>
</glyph>
<glyph name="dvDH_VA" format="1">
  <advance width="815"/>
  <outline>
    <contour>
      <point x="943" y="573" type="line"/>
      <point x="956" y="581"/>
      <point x="964" y="595"/>
      <point x="968" y="608" type="curve"/>
      <point x="956" y="619" type="line"/>
      <point x="496" y="619" type="line"/>
      <point x="483" y="611"/>
      <point x="475" y="597"/>
      <point x="471" y="584" type="curve"/>
      <point x="483" y="573" type="line"/>
    </contour>
    <contour>
      <point x="692" y="316" type="line"/>
      <point x="642" y="261"/>
      <point x="592" y="206"/>
      <point x="542" y="151" type="curve"/>
      <point x="509" y="167"/>
      <point x="493" y="206"/>
      <point x="493" y="248" type="curve" smooth="yes"/>
      <point x="493" y="359"/>
      <point x="561" y="453"/>
      <point x="625" y="453" type="curve" smooth="yes"/>
      <point x="660" y="453"/>
      <point x="686" y="410"/>
      <point x="704" y="362" type="curve"/>
      <point x="732" y="383" type="line"/>
      <point x="710" y="437"/>
      <point x="683" y="504"/>
      <point x="621" y="504" type="curve" smooth="yes"/>
      <point x="507" y="504"/>
      <point x="419" y="372"/>
      <point x="419" y="248" type="curve" smooth="yes"/>
      <point x="419" y="162"/>
      <point x="470" y="107"/>
      <point x="560" y="102" type="curve"/>
      <point x="613" y="168"/>
      <point x="667" y="234"/>
      <point x="720" y="300" type="curve"/>
    </contour>
    <contour>
      <point x="857" y="619" type="line"/>
      <point x="841" y="641"/>
      <point x="816" y="649"/>
      <point x="770" y="649" type="curve"/>
      <point x="722" y="423" type="line"/>
      <point x="706" y="415" type="line"/>
      <point x="707" y="382" type="line"/>
      <point x="681" y="269" type="line"/>
      <point x="700" y="253" type="line"/>
      <point x="663" y="196" type="line"/>
      <point x="623" y="23" type="line"/>
      <point x="637" y="6"/>
      <point x="661" y="-5"/>
      <point x="704" y="0" type="curve"/>
      <point x="775" y="441" type="line"/>
    </contour>
    <contour>
      <point x="561" y="573" type="line"/>
      <point x="574" y="581"/>
      <point x="582" y="595"/>
      <point x="586" y="608" type="curve"/>
      <point x="574" y="619" type="line"/>
      <point x="447" y="619" type="line"/>
      <point x="434" y="611"/>
      <point x="426" y="597"/>
      <point x="422" y="584" type="curve"/>
      <point x="434" y="573" type="line"/>
    </contour>
    <contour>
      <point x="503" y="368" type="curve"/>
      <point x="463" y="401" type="line"/>
      <point x="398" y="317"/>
      <point x="235" y="198"/>
      <point x="131" y="161" type="curve"/>
      <point x="124" y="168" type="line"/>
      <point x="165" y="227"/>
      <point x="232" y="292"/>
      <point x="296" y="346" type="curve"/>
      <point x="290" y="385"/>
      <point x="268" y="413"/>
      <point x="240" y="415" type="curve"/>
      <point x="208" y="402"/>
      <point x="152" y="383"/>
      <point x="110" y="380" type="curve"/>
      <point x="100" y="386"/>
      <point x="91" y="396"/>
      <point x="90" y="408" type="curve"/>
      <point x="119" y="489"/>
      <point x="241" y="596"/>
      <point x="326" y="636" type="curve"/>
      <point x="335" y="634"/>
      <point x="340" y="627"/>
      <point x="342" y="617" type="curve"/>
      <point x="319" y="556"/>
      <point x="218" y="480"/>
      <point x="154" y="465" type="curve"/>
      <point x="79" y="451" type="line"/>
      <point x="83" y="429" type="line"/>
      <point x="159" y="416" type="line"/>
      <point x="250" y="442"/>
      <point x="374" y="528"/>
      <point x="400" y="613" type="curve"/>
      <point x="389" y="663"/>
      <point x="358" y="693"/>
      <point x="325" y="690" type="curve"/>
      <point x="183" y="637"/>
      <point x="58" y="494"/>
      <point x="30" y="420" type="curve"/>
      <point x="25" y="383"/>
      <point x="67" y="343"/>
      <point x="102" y="325" type="curve"/>
      <point x="157" y="332"/>
      <point x="199" y="346"/>
      <point x="230" y="360" type="curve"/>
      <point x="234" y="355" type="line"/>
      <point x="174" y="308"/>
      <point x="117" y="252"/>
      <point x="59" y="179" type="curve"/>
      <point x="59" y="145"/>
      <point x="94" y="115"/>
      <point x="134" y="101" type="curve"/>
      <point x="248" y="137"/>
      <point x="438" y="273"/>
    </contour>
  </outline>
</glyph>
<glyph name="dvD_B_RA" format="1">
  <advance width="585"/>
  <outline>
    <contour>
      <point x="361" y="-194" type="move" name="blwm"/>
    </contour>
    <contour>
      <point x="341" y="649" type="move" name="abvm"/>
    </contour>
    <contour>
      <point x="668" y="573" type="line"/>
      <point x="681" y="581"/>
      <point x="689" y="595"/>
      <point x="693" y="608" type="curve"/>
      <point x="681" y="619" type="line"/>
      <point x="30" y="619" type="line"/>
      <point x="17" y="611"/>
      <point x="9" y="597"/>
      <point x="5" y="584" type="curve"/>
      <point x="17" y="573" type="line"/>
    </contour>
    <contour>
      <point x="249" y="-41" type="curve"/>
      <point x="267" y="-2" type="line"/>
      <point x="209" y="24"/>
      <point x="146" y="64"/>
      <point x="85" y="106" type="curve"/>
      <point x="67" y="66" type="line"/>
      <point x="122" y="32"/>
      <point x="193" y="-11"/>
    </contour>
    <contour>
      <point x="308" y="71" type="line"/>
      <point x="262" y="18"/>
      <point x="233" y="-22"/>
      <point x="185" y="-70" type="curve"/>
      <point x="133" y="-74"/>
      <point x="62" y="-51"/>
      <point x="62" y="18" type="curve" smooth="yes"/>
      <point x="62" y="55"/>
      <point x="84" y="89"/>
      <point x="139" y="124" type="curve"/>
      <point x="181" y="109"/>
      <point x="202" y="91"/>
      <point x="248" y="68" type="curve"/>
      <point x="267" y="101" type="line"/>
      <point x="213" y="127"/>
      <point x="190" y="146"/>
      <point x="132" y="166" type="curve"/>
      <point x="51" y="137"/>
      <point x="1" y="80"/>
      <point x="1" y="16" type="curve" smooth="yes"/>
      <point x="1" y="-65"/>
      <point x="95" y="-129"/>
      <point x="209" y="-110" type="curve"/>
      <point x="263" y="-48"/>
      <point x="291" y="-11"/>
      <point x="342" y="54" type="curve"/>
    </contour>
    <contour>
      <point x="301" y="95" type="curve"/>
      <point x="336" y="105" type="line"/>
      <point x="278" y="112"/>
      <point x="220" y="158"/>
      <point x="202" y="208" type="curve"/>
      <point x="229" y="288"/>
      <point x="428" y="367"/>
      <point x="499" y="432" type="curve"/>
      <point x="518" y="459"/>
      <point x="526" y="483"/>
      <point x="521" y="502" type="curve"/>
      <point x="499" y="546"/>
      <point x="430" y="584"/>
      <point x="381" y="614" type="curve"/>
      <point x="344" y="584" type="line"/>
      <point x="398" y="549"/>
      <point x="439" y="526"/>
      <point x="456" y="491" type="curve"/>
      <point x="454" y="484" type="line"/>
      <point x="391" y="396"/>
      <point x="131" y="320"/>
      <point x="131" y="212" type="curve" smooth="yes"/>
      <point x="131" y="133"/>
      <point x="230" y="52"/>
      <point x="335" y="45" type="curve"/>
      <point x="385" y="113"/>
      <point x="433" y="178"/>
      <point x="469" y="234" type="curve"/>
      <point x="474" y="231" type="line"/>
      <point x="461" y="188"/>
      <point x="433" y="113"/>
      <point x="398" y="2" type="curve"/>
      <point x="313" y="-87"/>
      <point x="233" y="-142"/>
      <point x="129" y="-185" type="curve"/>
      <point x="125" y="-205"/>
      <point x="130" y="-220"/>
      <point x="163" y="-241" type="curve"/>
      <point x="240" y="-191"/>
      <point x="322" y="-131"/>
      <point x="374" y="-69" type="curve"/>
      <point x="381" y="-73" type="line"/>
      <point x="340" y="-165" type="line"/>
      <point x="346" y="-187"/>
      <point x="371" y="-195"/>
      <point x="401" y="-194" type="curve"/>
      <point x="447" y="-40"/>
      <point x="502" y="154"/>
      <point x="543" y="253" type="curve"/>
      <point x="521" y="289"/>
      <point x="489" y="303"/>
      <point x="460" y="300" type="curve"/>
      <point x="436" y="271"/>
      <point x="353" y="156"/>
    </contour>
  </outline>
</glyph>
<glyph name="dvFive" format="1">
  <advance width="432"/>
  <outline>
    <contour>
      <point x="348" y="326" type="curve"/>
      <point x="359" y="321" type="line"/>
      <point x="339" y="225"/>
      <point x="293" y="52"/>
      <point x="236" y="-84" type="curve"/>
      <point x="237" y="-104"/>
      <point x="256" y="-114"/>
      <point x="286" y="-115" type="curve"/>
      <point x="346" y="24"/>
      <point x="402" y="233"/>
      <point x="431" y="357" type="curve"/>
      <point x="429" y="392"/>
      <point x="394" y="416"/>
      <point x="331" y="405" type="curve"/>
      <point x="287" y="335"/>
      <point x="240" y="253"/>
      <point x="177" y="164" type="curve"/>
      <point x="125" y="194"/>
      <point x="101" y="221"/>
      <point x="101" y="274" type="curve" smooth="yes"/>
      <point x="101" y="395"/>
      <point x="269" y="533"/>
      <point x="408" y="614" type="curve"/>
      <point x="409" y="630"/>
      <point x="394" y="642"/>
      <point x="373" y="645" type="curve"/>
      <point x="240" y="590"/>
      <point x="26" y="416"/>
      <point x="26" y="273" type="curve" smooth="yes"/>
      <point x="26" y="191"/>
      <point x="81" y="122"/>
      <point x="204" y="99" type="curve"/>
      <point x="264" y="198"/>
      <point x="328" y="299"/>
    </contour>
  </outline>
</glyph>
<glyph name="dvGH_MA" format="1">
  <advance width="787"/>
  <outline>
    <contour>
      <point x="516" y="573" type="line"/>
      <point x="529" y="581"/>
      <point x="537" y="595"/>
      <point x="541" y="608" type="curve"/>
      <point x="529" y="619" type="line"/>
      <point x="34" y="619" type="line"/>
      <point x="21" y="611"/>
      <point x="13" y="597"/>
      <point x="9" y="584" type="curve"/>
      <point x="21" y="573" type="line"/>
    </contour>
    <contour>
      <point x="92" y="389" type="line"/>
      <point x="143" y="448"/>
      <point x="230" y="520"/>
      <point x="319" y="574" type="curve"/>
      <point x="285" y="613" type="line"/>
      <point x="192" y="560"/>
      <point x="84" y="476"/>
      <point x="30" y="407" type="curve"/>
      <point x="28" y="376"/>
      <point x="51" y="339"/>
      <point x="85" y="324" type="curve"/>
      <point x="141" y="331"/>
      <point x="180" y="343"/>
      <point x="218" y="355" type="curve"/>
      <point x="222" y="350" type="line"/>
      <point x="162" y="303"/>
      <point x="110" y="252"/>
      <point x="52" y="179" type="curve"/>
      <point x="52" y="145"/>
      <point x="87" y="115"/>
      <point x="124" y="103" type="curve"/>
      <point x="225" y="150"/>
      <point x="291" y="186"/>
      <point x="362" y="262" type="curve"/>
      <point x="331" y="291" type="line"/>
      <point x="252" y="224"/>
      <point x="191" y="188"/>
      <point x="124" y="161" type="curve"/>
      <point x="117" y="168" type="line"/>
      <point x="158" y="227"/>
      <point x="220" y="287"/>
      <point x="284" y="341" type="curve"/>
      <point x="278" y="380"/>
      <point x="256" y="408"/>
      <point x="228" y="410" type="curve"/>
      <point x="182" y="395"/>
      <point x="142" y="384"/>
      <point x="98" y="380" type="curve"/>
    </contour>
    <contour>
      <point x="915" y="573" type="line"/>
      <point x="928" y="581"/>
      <point x="936" y="595"/>
      <point x="940" y="608" type="curve"/>
      <point x="928" y="619" type="line"/>
      <point x="345" y="619" type="line"/>
      <point x="332" y="611"/>
      <point x="324" y="597"/>
      <point x="320" y="584" type="curve"/>
      <point x="332" y="573" type="line"/>
    </contour>
    <contour>
      <point x="428" y="220" type="line"/>
      <point x="398" y="229"/>
      <point x="380" y="245"/>
      <point x="359" y="281" type="curve"/>
      <point x="349" y="253" type="line"/>
      <point x="499" y="350"/>
      <point x="613" y="428"/>
      <point x="737" y="515" type="curve"/>
      <point x="707" y="543" type="line"/>
      <point x="588" y="457"/>
      <point x="466" y="377"/>
      <point x="334" y="294" type="curve"/>
      <point x="318" y="283"/>
      <point x="311" y="261"/>
      <point x="310" y="242" type="curve"/>
      <point x="339" y="189"/>
      <point x="393" y="166"/>
      <point x="448" y="161" type="curve"/>
      <point x="473" y="169"/>
      <point x="488" y="180"/>
      <point x="502" y="194" type="curve"/>
      <point x="528" y="296"/>
      <point x="563" y="470"/>
      <point x="582" y="609" type="curve"/>
      <point x="488" y="597" type="line"/>
      <point x="498" y="473" type="line"/>
      <point x="489" y="378"/>
      <point x="466" y="298"/>
      <point x="437" y="227" type="curve"/>
    </contour>
    <contour>
      <point x="791" y="507" type="line"/>
      <point x="770" y="530"/>
      <point x="741" y="541"/>
      <point x="707" y="543" type="curve"/>
      <point x="694" y="485" type="line"/>
      <point x="704" y="480" type="line"/>
      <point x="596" y="23" type="line"/>
      <point x="610" y="6"/>
      <point x="634" y="-5"/>
      <point x="677" y="0" type="curve"/>
      <point x="742" y="400" type="line"/>
    </contour>
  </outline>
</glyph>
<glyph name="dvGH_NA" format="1">
  <advance width="791"/>
  <outline>
    <contour>
      <point x="516" y="573" type="line"/>
      <point x="529" y="581"/>
      <point x="537" y="595"/>
      <point x="541" y="608" type="curve"/>
      <point x="529" y="619" type="line"/>
      <point x="34" y="619" type="line"/>
      <point x="21" y="611"/>
      <point x="13" y="597"/>
      <point x="9" y="584" type="curve"/>
      <point x="21" y="573" type="line"/>
    </contour>
    <contour>
      <point x="92" y="389" type="line"/>
      <point x="143" y="448"/>
      <point x="230" y="520"/>
      <point x="319" y="574" type="curve"/>
      <point x="285" y="613" type="line"/>
      <point x="192" y="560"/>
      <point x="84" y="476"/>
      <point x="30" y="407" type="curve"/>
      <point x="28" y="376"/>
      <point x="51" y="339"/>
      <point x="85" y="324" type="curve"/>
      <point x="141" y="331"/>
      <point x="180" y="343"/>
      <point x="218" y="355" type="curve"/>
      <point x="222" y="350" type="line"/>
      <point x="162" y="303"/>
      <point x="110" y="252"/>
      <point x="52" y="179" type="curve"/>
      <point x="52" y="145"/>
      <point x="87" y="115"/>
      <point x="124" y="103" type="curve"/>
      <point x="225" y="150"/>
      <point x="291" y="186"/>
      <point x="362" y="262" type="curve"/>
      <point x="331" y="291" type="line"/>
      <point x="252" y="224"/>
      <point x="191" y="188"/>
      <point x="124" y="161" type="curve"/>
      <point x="117" y="168" type="line"/>
      <point x="158" y="227"/>
      <point x="220" y="287"/>
      <point x="284" y="341" type="curve"/>
      <point x="278" y="380"/>
      <point x="256" y="408"/>
      <point x="228" y="410" type="curve"/>
      <point x="182" y="395"/>
      <point x="142" y="384"/>
      <point x="98" y="380" type="curve"/>
    </contour>
    <contour>
      <point x="919" y="573" type="line"/>
      <point x="932" y="581"/>
      <point x="940" y="595"/>
      <point x="944" y="608" type="curve"/>
      <point x="932" y="619" type="line"/>
      <point x="331" y="619" type="line"/>
      <point x="318" y="611"/>
      <point x="310" y="597"/>
      <point x="306" y="584" type="curve"/>
      <point x="318" y="573" type="line"/>
    </contour>
    <contour>
      <point x="794" y="507" type="line"/>
      <point x="773" y="530"/>
      <point x="744" y="541"/>
      <point x="710" y="543" type="curve"/>
      <point x="697" y="485" type="line"/>
      <point x="707" y="480" type="line"/>
      <point x="599" y="23" type="line"/>
      <point x="613" y="6"/>
      <point x="637" y="-5"/>
      <point x="680" y="0" type="curve"/>
      <point x="745" y="400" type="line"/>
    </contour>
    <contour>
      <point x="437" y="335" type="line"/>
      <point x="447" y="299"/>
      <point x="452" y="267"/>
      <point x="444" y="227" type="curve"/>
      <point x="435" y="220" type="line"/>
      <point x="400" y="229"/>
      <point x="378" y="248"/>
      <point x="357" y="284" type="curve"/>
      <point x="352" y="250" type="line"/>
      <point x="486" y="337"/>
      <point x="606" y="416"/>
      <point x="740" y="515" type="curve"/>
      <point x="710" y="543" type="line"/>
      <point x="595" y="454"/>
      <point x="458" y="372"/>
      <point x="336" y="297" type="curve"/>
      <point x="321" y="283"/>
      <point x="314" y="264"/>
      <point x="311" y="242" type="curve"/>
      <point x="341" y="192"/>
      <point x="394" y="169"/>
      <point x="446" y="164" type="curve"/>
      <point x="471" y="172"/>
      <point x="493" y="186"/>
      <point x="507" y="200" type="curve"/>
      <point x="509" y="256"/>
      <point x="502" y="315"/>
      <point x="476" y="363" type="curve"/>
    </contour>
  </outline>
</glyph>
<glyph name="dvGH_RA" format="1">
  <advance width="539"/>
  <outline>
    <contour>
      <point x="100" y="36" type="curve"/>
      <point x="96" y="16"/>
      <point x="101" y="1"/>
      <point x="134" y="-20" type="curve"/>
      <point x="227" y="30"/>
      <point x="339" y="107"/>
      <point x="394" y="171" type="curve"/>
      <point x="401" y="167" type="line"/>
      <point x="347" y="23" type="line"/>
      <point x="361" y="6"/>
      <point x="385" y="-5"/>
      <point x="428" y="0" type="curve"/>
      <point x="499" y="441" type="line"/>
      <point x="581" y="619" type="line"/>
      <point x="565" y="641"/>
      <point x="540" y="649"/>
      <point x="494" y="649" type="curve"/>
      <point x="414" y="310" type="line"/>
      <point x="433" y="290" type="line"/>
      <point x="373" y="188"/>
      <point x="233" y="91"/>
    </contour>
    <contour>
      <point x="667" y="573" type="line"/>
      <point x="680" y="581"/>
      <point x="688" y="595"/>
      <point x="692" y="608" type="curve"/>
      <point x="680" y="619" type="line"/>
      <point x="34" y="619" type="line"/>
      <point x="21" y="611"/>
      <point x="13" y="597"/>
      <point x="9" y="584" type="curve"/>
      <point x="21" y="573" type="line"/>
    </contour>
    <contour>
      <point x="284" y="341" type="curve"/>
      <point x="278" y="380"/>
      <point x="256" y="408"/>
      <point x="228" y="410" type="curve"/>
      <point x="182" y="395"/>
      <point x="142" y="384"/>
      <point x="98" y="380" type="curve"/>
      <point x="92" y="389" type="line"/>
      <point x="143" y="448"/>
      <point x="230" y="520"/>
      <point x="319" y="574" type="curve"/>
      <point x="285" y="613" type="line"/>
      <point x="192" y="560"/>
      <point x="84" y="476"/>
      <point x="30" y="407" type="curve"/>
      <point x="28" y="376"/>
      <point x="51" y="339"/>
      <point x="85" y="324" type="curve"/>
      <point x="141" y="331"/>
      <point x="180" y="343"/>
      <point x="218" y="355" type="curve"/>
      <point x="222" y="350" type="line"/>
      <point x="162" y="303"/>
      <point x="110" y="252"/>
      <point x="52" y="179" type="curve"/>
      <point x="52" y="145"/>
      <point x="87" y="115"/>
      <point x="127" y="101" type="curve"/>
      <point x="232" y="129"/>
      <point x="416" y="269"/>
      <point x="481" y="364" type="curve"/>
      <point x="436" y="401" type="line"/>
      <point x="371" y="317"/>
      <point x="246" y="208"/>
      <point x="124" y="161" type="curve"/>
      <point x="117" y="168" type="line"/>
      <point x="158" y="227"/>
      <point x="220" y="287"/>
    </contour>
  </outline>
</glyph>
<glyph name="dvGH_YA" format="1">
  <advance width="846"/>
  <outline>
    <contour>
      <point x="516" y="573" type="line"/>
      <point x="529" y="581"/>
      <point x="537" y="595"/>
      <point x="541" y="608" type="curve"/>
      <point x="529" y="619" type="line"/>
      <point x="34" y="619" type="line"/>
      <point x="21" y="611"/>
      <point x="13" y="597"/>
      <point x="9" y="584" type="curve"/>
      <point x="21" y="573" type="line"/>
    </contour>
    <contour>
      <point x="92" y="389" type="line"/>
      <point x="143" y="448"/>
      <point x="230" y="520"/>
      <point x="319" y="574" type="curve"/>
      <point x="285" y="613" type="line"/>
      <point x="192" y="560"/>
      <point x="84" y="476"/>
      <point x="30" y="407" type="curve"/>
      <point x="28" y="376"/>
      <point x="51" y="339"/>
      <point x="85" y="324" type="curve"/>
      <point x="141" y="331"/>
      <point x="180" y="343"/>
      <point x="218" y="355" type="curve"/>
      <point x="222" y="350" type="line"/>
      <point x="162" y="303"/>
      <point x="110" y="252"/>
      <point x="52" y="179" type="curve"/>
      <point x="52" y="145"/>
      <point x="87" y="115"/>
      <point x="127" y="101" type="curve"/>
      <point x="235" y="141"/>
      <point x="341" y="225"/>
      <point x="417" y="304" type="curve"/>
      <point x="379" y="335" type="line"/>
      <point x="299" y="263"/>
      <point x="237" y="209"/>
      <point x="124" y="161" type="curve"/>
      <point x="117" y="168" type="line"/>
      <point x="158" y="227"/>
      <point x="220" y="287"/>
      <point x="284" y="341" type="curve"/>
      <point x="278" y="380"/>
      <point x="256" y="408"/>
      <point x="228" y="410" type="curve"/>
      <point x="182" y="395"/>
      <point x="142" y="384"/>
      <point x="98" y="380" type="curve"/>
    </contour>
    <contour>
      <point x="888" y="619" type="line"/>
      <point x="872" y="641"/>
      <point x="847" y="649"/>
      <point x="801" y="649" type="curve"/>
      <point x="726" y="328" type="line"/>
      <point x="745" y="313" type="line"/>
      <point x="706" y="241" type="line"/>
      <point x="654" y="23" type="line"/>
      <point x="668" y="6"/>
      <point x="692" y="-5"/>
      <point x="735" y="0" type="curve"/>
      <point x="806" y="441" type="line"/>
    </contour>
    <contour>
      <point x="974" y="573" type="line"/>
      <point x="987" y="581"/>
      <point x="995" y="595"/>
      <point x="999" y="608" type="curve"/>
      <point x="987" y="619" type="line"/>
      <point x="358" y="619" type="line"/>
      <point x="345" y="611"/>
      <point x="337" y="597"/>
      <point x="333" y="584" type="curve"/>
      <point x="345" y="573" type="line"/>
    </contour>
    <contour>
      <point x="412" y="550" type="curve"/>
      <point x="410" y="533"/>
      <point x="425" y="521"/>
      <point x="444" y="516" type="curve"/>
      <point x="482" y="547"/>
      <point x="517" y="568"/>
      <point x="556" y="568" type="curve" smooth="yes"/>
      <point x="576" y="568"/>
      <point x="602" y="556"/>
      <point x="602" y="536" type="curve" smooth="yes"/>
      <point x="602" y="442"/>
      <point x="340" y="358"/>
      <point x="340" y="274" type="curve" smooth="yes"/>
      <point x="340" y="225"/>
      <point x="429" y="151"/>
      <point x="482" y="151" type="curve" smooth="yes"/>
      <point x="562" y="151"/>
      <point x="714" y="276"/>
      <point x="779" y="385" type="curve"/>
      <point x="746" y="413" type="line"/>
      <point x="691" y="315"/>
      <point x="543" y="201"/>
      <point x="492" y="201" type="curve" smooth="yes"/>
      <point x="455" y="201"/>
      <point x="410" y="244"/>
      <point x="410" y="270" type="curve" smooth="yes"/>
      <point x="410" y="327"/>
      <point x="672" y="432"/>
      <point x="672" y="539" type="curve" smooth="yes"/>
      <point x="672" y="584"/>
      <point x="602" y="619"/>
      <point x="553" y="619" type="curve" smooth="yes"/>
      <point x="509" y="619"/>
      <point x="442" y="584"/>
    </contour>
  </outline>
</glyph>
